<?xml version="1.0" encoding="UTF-8" standalone="no"?><svg xmlns="http://www.w3.org/2000/svg" xmlns:xlink="http://www.w3.org/1999/xlink" clip-rule="evenodd" stroke-miterlimit="4.00" viewBox="0 0 1024 768"><desc>SVG generated by Keynote</desc><defs></defs><g transform="matrix(1.00, 0.00, -0.00, -1.00, 0.0, 768.0)"><path d="M 0.0 768.0 L 1024.0 768.0 L 1024.0 0.0 L 0.0 0.0 Z M 0.0 768.0 " fill="#FEFFFF"></path><text xml:space="preserve" font-family="BebasNeueRegular" font-size="80.0" fill="#000000" transform="matrix(1.00, 0.00, -0.00, -1.00, 36.0, 618.0)">G</text><text xml:space="preserve" font-family="BebasNeueRegular" font-size="80.0" fill="#000000" transform="matrix(1.00, 0.00, -0.00, -1.00, 66.6, 618.0)">l</text><text xml:space="preserve" font-family="BebasNeueRegular" font-size="80.0" fill="#000000" transform="matrix(1.00, 0.00, -0.00, -1.00, 93.6, 618.0)">o</text><text xml:space="preserve" font-family="BebasNeueRegular" font-size="80.0" fill="#000000" transform="matrix(1.00, 0.00, -0.00, -1.00, 124.7, 618.0)">w</text><text xml:space="preserve" font-family="BebasNeueRegular" font-size="80.0" fill="#000000" transform="matrix(1.00, 0.00, -0.00, -1.00, 171.4, 618.0)">i</text><text xml:space="preserve" font-family="BebasNeueRegular" font-size="80.0" fill="#000000" transform="matrix(1.00, 0.00, -0.00, -1.00, 184.0, 618.0)">n</text><text xml:space="preserve" font-family="BebasNeueRegular" font-size="80.0" fill="#000000" transform="matrix(1.00, 0.00, -0.00, -1.00, 216.7, 618.0)">g</text><text xml:space="preserve" font-family="BebasNeueRegular" font-size="80.0" fill="#000000" transform="matrix(1.00, 0.00, -0.00, -1.00, 247.4, 618.0)"> </text><text xml:space="preserve" font-family="BebasNeueRegular" font-size="80.0" fill="#000000" transform="matrix(1.00, 0.00, -0.00, -1.00, 259.8, 618.0)">u</text><text xml:space="preserve" font-family="BebasNeueRegular" font-size="80.0" fill="#000000" transform="matrix(1.00, 0.00, -0.00, -1.00, 290.7, 618.0)">p</text><text xml:space="preserve" font-family="BebasNeueRegular" font-size="80.0" fill="#000000" transform="matrix(1.00, 0.00, -0.00, -1.00, 320.4, 618.0)"> </text><text xml:space="preserve" font-family="BebasNeueRegular" font-size="80.0" fill="#000000" transform="matrix(1.00, 0.00, -0.00, -1.00, 332.8, 618.0)">p</text><text xml:space="preserve" font-family="BebasNeueRegular" font-size="80.0" fill="#000000" transform="matrix(1.00, 0.00, -0.00, -1.00, 362.5, 618.0)">o</text><text xml:space="preserve" font-family="BebasNeueRegular" font-size="80.0" fill="#000000" transform="matrix(1.00, 0.00, -0.00, -1.00, 393.6, 618.0)">d</text><text xml:space="preserve" font-family="BebasNeueRegular" font-size="80.0" fill="#000000" transform="matrix(1.00, 0.00, -0.00, -1.00, 425.3, 618.0)">c</text><text xml:space="preserve" font-family="BebasNeueRegular" font-size="80.0" fill="#000000" transform="matrix(1.00, 0.00, -0.00, -1.00, 455.7, 618.0)">a</text><text xml:space="preserve" font-family="BebasNeueRegular" font-size="80.0" fill="#000000" transform="matrix(1.00, 0.00, -0.00, -1.00, 489.4, 618.0)">s</text><text xml:space="preserve" font-family="BebasNeueRegular" font-size="80.0" fill="#000000" transform="matrix(1.00, 0.00, -0.00, -1.00, 519.2, 618.0)">t</text><text xml:space="preserve" font-family="Lora-Bold" font-weight="bold" font-size="24.0" fill="#000000" transform="matrix(1.00, 0.00, -0.00, -1.00, 39.0, 381.0)">I</text><text xml:space="preserve" font-family="Lora-Bold" font-weight="bold" font-size="24.0" fill="#000000" transform="matrix(1.00, 0.00, -0.00, -1.00, 48.0, 381.0)">m</text><text xml:space="preserve" font-family="Lora-Bold" font-weight="bold" font-size="24.0" fill="#000000" transform="matrix(1.00, 0.00, -0.00, -1.00, 70.0, 381.0)">p</text><text xml:space="preserve" font-family="Lora-Bold" font-weight="bold" font-size="24.0" fill="#000000" transform="matrix(1.00, 0.00, -0.00, -1.00, 84.4, 381.0)">a</text><text xml:space="preserve" font-family="Lora-Bold" font-weight="bold" font-size="24.0" fill="#000000" transform="matrix(1.00, 0.00, -0.00, -1.00, 97.0, 381.0)">c</text><text xml:space="preserve" font-family="Lora-Bold" font-weight="bold" font-size="24.0" fill="#000000" transform="matrix(1.00, 0.00, -0.00, -1.00, 109.5, 381.0)">t</text><text xml:space="preserve" font-family="Lora-Bold" font-weight="bold" font-size="24.0" fill="#000000" transform="matrix(1.00, 0.00, -0.00, -1.00, 119.4, 381.0)">:</text><text xml:space="preserve" font-family="Lora-Bold" font-weight="bold" font-size="24.0" fill="#000000" transform="matrix(1.00, 0.00, -0.00, -1.00, 125.3, 381.0)"> </text><text xml:space="preserve" font-family="Lora-Regular" font-size="18.0" fill="#000000" transform="matrix(1.00, 0.00, -0.00, -1.00, 38.5, 353.4)">•</text><text xml:space="preserve" font-family="Lora-Regular" font-size="24.0" fill="#000000" transform="matrix(1.00, 0.00, -0.00, -1.00, 62.0, 351.0)">1</text><text xml:space="preserve" font-family="Lora-Regular" font-size="24.0" fill="#000000" transform="matrix(1.00, 0.00, -0.00, -1.00, 70.7, 351.0)">.</text><text xml:space="preserve" font-family="Lora-Regular" font-size="24.0" fill="#000000" transform="matrix(1.00, 0.00, -0.00, -1.00, 76.4, 351.0)">6</text><text xml:space="preserve" font-family="Lora-Regular" font-size="24.0" fill="#000000" transform="matrix(1.00, 0.00, -0.00, -1.00, 90.3, 351.0)">k</text><text xml:space="preserve" font-family="Lora-Regular" font-size="24.0" fill="#000000" transform="matrix(1.00, 0.00, -0.00, -1.00, 103.2, 351.0)"> </text><text xml:space="preserve" font-family="Lora-Regular" font-size="24.0" fill="#000000" transform="matrix(1.00, 0.00, -0.00, -1.00, 109.5, 351.0)">c</text><text xml:space="preserve" font-family="Lora-Regular" font-size="24.0" fill="#000000" transform="matrix(1.00, 0.00, -0.00, -1.00, 122.3, 351.0)">l</text><text xml:space="preserve" font-family="Lora-Regular" font-size="24.0" fill="#000000" transform="matrix(1.00, 0.00, -0.00, -1.00, 128.8, 351.0)">i</text><text xml:space="preserve" font-family="Lora-Regular" font-size="24.0" fill="#000000" transform="matrix(1.00, 0.00, -0.00, -1.00, 135.5, 351.0)">c</text><text xml:space="preserve" font-family="Lora-Regular" font-size="24.0" fill="#000000" transform="matrix(1.00, 0.00, -0.00, -1.00, 148.3, 351.0)">k</text><text xml:space="preserve" font-family="Lora-Regular" font-size="24.0" fill="#000000" transform="matrix(1.00, 0.00, -0.00, -1.00, 161.2, 351.0)">s</text><text xml:space="preserve" font-family="Lora-Regular" font-size="24.0" fill="#000000" transform="matrix(1.00, 0.00, -0.00, -1.00, 172.3, 351.0)"> </text><text xml:space="preserve" font-family="Lora-Regular" font-size="24.0" fill="#000000" transform="matrix(1.00, 0.00, -0.00, -1.00, 178.6, 351.0)">o</text><text xml:space="preserve" font-family="Lora-Regular" font-size="24.0" fill="#000000" transform="matrix(1.00, 0.00, -0.00, -1.00, 192.7, 351.0)">n</text><text xml:space="preserve" font-family="Lora-Regular" font-size="24.0" fill="#000000" transform="matrix(1.00, 0.00, -0.00, -1.00, 207.2, 351.0)"> </text><text xml:space="preserve" font-family="Lora-Regular" font-size="24.0" fill="#000000" transform="matrix(1.00, 0.00, -0.00, -1.00, 213.6, 351.0)">m</text><text xml:space="preserve" font-family="Lora-Regular" font-size="24.0" fill="#000000" transform="matrix(1.00, 0.00, -0.00, -1.00, 235.0, 351.0)">e</text><text xml:space="preserve" font-family="Lora-Regular" font-size="24.0" fill="#000000" transform="matrix(1.00, 0.00, -0.00, -1.00, 248.0, 351.0)">n</text><text xml:space="preserve" font-family="Lora-Regular" font-size="24.0" fill="#000000" transform="matrix(1.00, 0.00, -0.00, -1.00, 262.4, 351.0)">t</text><text xml:space="preserve" font-family="Lora-Regular" font-size="24.0" fill="#000000" transform="matrix(1.00, 0.00, -0.00, -1.00, 271.7, 351.0)">i</text><text xml:space="preserve" font-family="Lora-Regular" font-size="24.0" fill="#000000" transform="matrix(1.00, 0.00, -0.00, -1.00, 278.4, 351.0)">o</text><text xml:space="preserve" font-family="Lora-Regular" font-size="24.0" fill="#000000" transform="matrix(1.00, 0.00, -0.00, -1.00, 292.4, 351.0)">n</text><text xml:space="preserve" font-family="Lora-Regular" font-size="24.0" fill="#000000" transform="matrix(1.00, 0.00, -0.00, -1.00, 307.0, 351.0)">e</text><text xml:space="preserve" font-family="Lora-Regular" font-size="24.0" fill="#000000" transform="matrix(1.00, 0.00, -0.00, -1.00, 319.9, 351.0)">d</text><text xml:space="preserve" font-family="Lora-Regular" font-size="24.0" fill="#000000" transform="matrix(1.00, 0.00, -0.00, -1.00, 334.3, 351.0)"> </text><text xml:space="preserve" font-family="Lora-Regular" font-size="24.0" fill="#000000" transform="matrix(1.00, 0.00, -0.00, -1.00, 340.6, 351.0)">p</text><text xml:space="preserve" font-family="Lora-Regular" font-size="24.0" fill="#000000" transform="matrix(1.00, 0.00, -0.00, -1.00, 354.9, 351.0)">r</text><text xml:space="preserve" font-family="Lora-Regular" font-size="24.0" fill="#000000" transform="matrix(1.00, 0.00, -0.00, -1.00, 365.1, 351.0)">o</text><text xml:space="preserve" font-family="Lora-Regular" font-size="24.0" fill="#000000" transform="matrix(1.00, 0.00, -0.00, -1.00, 379.2, 351.0)">d</text><text xml:space="preserve" font-family="Lora-Regular" font-size="24.0" fill="#000000" transform="matrix(1.00, 0.00, -0.00, -1.00, 393.5, 351.0)">u</text><text xml:space="preserve" font-family="Lora-Regular" font-size="24.0" fill="#000000" transform="matrix(1.00, 0.00, -0.00, -1.00, 407.9, 351.0)">c</text><text xml:space="preserve" font-family="Lora-Regular" font-size="24.0" fill="#000000" transform="matrix(1.00, 0.00, -0.00, -1.00, 420.5, 351.0)">t</text><text xml:space="preserve" font-family="Lora-Regular" font-size="24.0" fill="#000000" transform="matrix(1.00, 0.00, -0.00, -1.00, 429.8, 351.0)">s</text><text xml:space="preserve" font-family="Lora-Regular" font-size="24.0" fill="#000000" transform="matrix(1.00, 0.00, -0.00, -1.00, 440.9, 351.0)"> </text><text xml:space="preserve" font-family="Lora-Regular" font-size="24.0" fill="#000000" transform="matrix(1.00, 0.00, -0.00, -1.00, 447.3, 351.0)">s</text><text xml:space="preserve" font-family="Lora-Regular" font-size="24.0" fill="#000000" transform="matrix(1.00, 0.00, -0.00, -1.00, 458.4, 351.0)">i</text><text xml:space="preserve" font-family="Lora-Regular" font-size="24.0" fill="#000000" transform="matrix(1.00, 0.00, -0.00, -1.00, 465.1, 351.0)">n</text><text xml:space="preserve" font-family="Lora-Regular" font-size="24.0" fill="#000000" transform="matrix(1.00, 0.00, -0.00, -1.00, 479.7, 351.0)">c</text><text xml:space="preserve" font-family="Lora-Regular" font-size="24.0" fill="#000000" transform="matrix(1.00, 0.00, -0.00, -1.00, 492.3, 351.0)">e</text><text xml:space="preserve" font-family="Lora-Regular" font-size="24.0" fill="#000000" transform="matrix(1.00, 0.00, -0.00, -1.00, 505.3, 351.0)"> </text><text xml:space="preserve" font-family="Lora-Regular" font-size="24.0" fill="#000000" transform="matrix(1.00, 0.00, -0.00, -1.00, 511.6, 351.0)">A</text><text xml:space="preserve" font-family="Lora-Regular" font-size="24.0" fill="#000000" transform="matrix(1.00, 0.00, -0.00, -1.00, 526.7, 351.0)">u</text><text xml:space="preserve" font-family="Lora-Regular" font-size="24.0" fill="#000000" transform="matrix(1.00, 0.00, -0.00, -1.00, 541.0, 351.0)">g</text><text xml:space="preserve" font-family="Lora-Regular" font-size="24.0" fill="#000000" transform="matrix(1.00, 0.00, -0.00, -1.00, 554.3, 351.0)">u</text><text xml:space="preserve" font-family="Lora-Regular" font-size="24.0" fill="#000000" transform="matrix(1.00, 0.00, -0.00, -1.00, 568.6, 351.0)">s</text><text xml:space="preserve" font-family="Lora-Regular" font-size="24.0" fill="#000000" transform="matrix(1.00, 0.00, -0.00, -1.00, 579.7, 351.0)">t</text><text xml:space="preserve" font-family="Lora-Regular" font-size="24.0" fill="#000000" transform="matrix(1.00, 0.00, -0.00, -1.00, 589.0, 351.0)"> </text><text xml:space="preserve" font-family="Lora-Regular" font-size="24.0" fill="#000000" transform="matrix(1.00, 0.00, -0.00, -1.00, 595.4, 351.0)">2</text><text xml:space="preserve" font-family="Lora-Regular" font-size="24.0" fill="#000000" transform="matrix(1.00, 0.00, -0.00, -1.00, 608.2, 351.0)">0</text><text xml:space="preserve" font-family="Lora-Regular" font-size="24.0" fill="#000000" transform="matrix(1.00, 0.00, -0.00, -1.00, 623.2, 351.0)">1</text><text xml:space="preserve" font-family="Lora-Regular" font-size="24.0" fill="#000000" transform="matrix(1.00, 0.00, -0.00, -1.00, 631.9, 351.0)">7</text><text xml:space="preserve" font-family="Lora-Regular" font-size="24.0" fill="#000000" transform="matrix(1.00, 0.00, -0.00, -1.00, 642.9, 351.0)"> </text><text xml:space="preserve" font-family="Lora-Regular" font-size="18.0" fill="#000000" transform="matrix(1.00, 0.00, -0.00, -1.00, 38.5, 324.4)">•</text><text xml:space="preserve" font-family="Lora-Regular" font-size="24.0" fill="#000000" transform="matrix(1.00, 0.00, -0.00, -1.00, 62.0, 322.0)">7</text><text xml:space="preserve" font-family="Lora-Regular" font-size="24.0" fill="#000000" transform="matrix(1.00, 0.00, -0.00, -1.00, 72.7, 322.0)">4</text><text xml:space="preserve" font-family="Lora-Regular" font-size="24.0" fill="#000000" transform="matrix(1.00, 0.00, -0.00, -1.00, 85.7, 322.0)">%</text><text xml:space="preserve" font-family="Lora-Regular" font-size="24.0" fill="#000000" transform="matrix(1.00, 0.00, -0.00, -1.00, 106.6, 322.0)"> </text><text xml:space="preserve" font-family="Lora-Regular" font-size="24.0" fill="#000000" transform="matrix(1.00, 0.00, -0.00, -1.00, 112.9, 322.0)">o</text><text xml:space="preserve" font-family="Lora-Regular" font-size="24.0" fill="#000000" transform="matrix(1.00, 0.00, -0.00, -1.00, 126.9, 322.0)">f</text><text xml:space="preserve" font-family="Lora-Regular" font-size="24.0" fill="#000000" transform="matrix(1.00, 0.00, -0.00, -1.00, 135.0, 322.0)"> </text><text xml:space="preserve" font-family="Lora-Regular" font-size="24.0" fill="#000000" transform="matrix(1.00, 0.00, -0.00, -1.00, 141.3, 322.0)">t</text><text xml:space="preserve" font-family="Lora-Regular" font-size="24.0" fill="#000000" transform="matrix(1.00, 0.00, -0.00, -1.00, 150.6, 322.0)">r</text><text xml:space="preserve" font-family="Lora-Regular" font-size="24.0" fill="#000000" transform="matrix(1.00, 0.00, -0.00, -1.00, 160.8, 322.0)">a</text><text xml:space="preserve" font-family="Lora-Regular" font-size="24.0" fill="#000000" transform="matrix(1.00, 0.00, -0.00, -1.00, 173.2, 322.0)">f</text><text xml:space="preserve" font-family="Lora-Regular" font-size="24.0" fill="#000000" transform="matrix(1.00, 0.00, -0.00, -1.00, 181.5, 322.0)">f</text><text xml:space="preserve" font-family="Lora-Regular" font-size="24.0" fill="#000000" transform="matrix(1.00, 0.00, -0.00, -1.00, 190.4, 322.0)">i</text><text xml:space="preserve" font-family="Lora-Regular" font-size="24.0" fill="#000000" transform="matrix(1.00, 0.00, -0.00, -1.00, 197.1, 322.0)">c</text><text xml:space="preserve" font-family="Lora-Regular" font-size="24.0" fill="#000000" transform="matrix(1.00, 0.00, -0.00, -1.00, 209.9, 322.0)"> </text><text xml:space="preserve" font-family="Lora-Regular" font-size="24.0" fill="#000000" transform="matrix(1.00, 0.00, -0.00, -1.00, 216.2, 322.0)">c</text><text xml:space="preserve" font-family="Lora-Regular" font-size="24.0" fill="#000000" transform="matrix(1.00, 0.00, -0.00, -1.00, 228.9, 322.0)">a</text><text xml:space="preserve" font-family="Lora-Regular" font-size="24.0" fill="#000000" transform="matrix(1.00, 0.00, -0.00, -1.00, 241.3, 322.0)">m</text><text xml:space="preserve" font-family="Lora-Regular" font-size="24.0" fill="#000000" transform="matrix(1.00, 0.00, -0.00, -1.00, 262.8, 322.0)">e</text><text xml:space="preserve" font-family="Lora-Regular" font-size="24.0" fill="#000000" transform="matrix(1.00, 0.00, -0.00, -1.00, 275.8, 322.0)"> </text><text xml:space="preserve" font-family="Lora-Regular" font-size="24.0" fill="#000000" transform="matrix(1.00, 0.00, -0.00, -1.00, 282.1, 322.0)">t</text><text xml:space="preserve" font-family="Lora-Regular" font-size="24.0" fill="#000000" transform="matrix(1.00, 0.00, -0.00, -1.00, 291.4, 322.0)">h</text><text xml:space="preserve" font-family="Lora-Regular" font-size="24.0" fill="#000000" transform="matrix(1.00, 0.00, -0.00, -1.00, 305.8, 322.0)">r</text><text xml:space="preserve" font-family="Lora-Regular" font-size="24.0" fill="#000000" transform="matrix(1.00, 0.00, -0.00, -1.00, 316.0, 322.0)">o</text><text xml:space="preserve" font-family="Lora-Regular" font-size="24.0" fill="#000000" transform="matrix(1.00, 0.00, -0.00, -1.00, 330.1, 322.0)">u</text><text xml:space="preserve" font-family="Lora-Regular" font-size="24.0" fill="#000000" transform="matrix(1.00, 0.00, -0.00, -1.00, 344.4, 322.0)">g</text><text xml:space="preserve" font-family="Lora-Regular" font-size="24.0" fill="#000000" transform="matrix(1.00, 0.00, -0.00, -1.00, 358.3, 322.0)">h</text><text xml:space="preserve" font-family="Lora-Regular" font-size="24.0" fill="#000000" transform="matrix(1.00, 0.00, -0.00, -1.00, 372.6, 322.0)"> </text><text xml:space="preserve" font-family="Lora-Regular" font-size="24.0" fill="#000000" transform="matrix(1.00, 0.00, -0.00, -1.00, 379.0, 322.0)">F</text><text xml:space="preserve" font-family="Lora-Regular" font-size="24.0" fill="#000000" transform="matrix(1.00, 0.00, -0.00, -1.00, 392.1, 322.0)">a</text><text xml:space="preserve" font-family="Lora-Regular" font-size="24.0" fill="#000000" transform="matrix(1.00, 0.00, -0.00, -1.00, 404.5, 322.0)">c</text><text xml:space="preserve" font-family="Lora-Regular" font-size="24.0" fill="#000000" transform="matrix(1.00, 0.00, -0.00, -1.00, 417.2, 322.0)">e</text><text xml:space="preserve" font-family="Lora-Regular" font-size="24.0" fill="#000000" transform="matrix(1.00, 0.00, -0.00, -1.00, 430.2, 322.0)">b</text><text xml:space="preserve" font-family="Lora-Regular" font-size="24.0" fill="#000000" transform="matrix(1.00, 0.00, -0.00, -1.00, 444.1, 322.0)">o</text><text xml:space="preserve" font-family="Lora-Regular" font-size="24.0" fill="#000000" transform="matrix(1.00, 0.00, -0.00, -1.00, 458.2, 322.0)">o</text><text xml:space="preserve" font-family="Lora-Regular" font-size="24.0" fill="#000000" transform="matrix(1.00, 0.00, -0.00, -1.00, 472.2, 322.0)">k</text><text xml:space="preserve" font-family="Lora-Regular" font-size="24.0" fill="#000000" transform="matrix(1.00, 0.00, -0.00, -1.00, 485.1, 322.0)"> </text><text xml:space="preserve" font-family="Lora-Regular" font-size="24.0" fill="#000000" transform="matrix(1.00, 0.00, -0.00, -1.00, 491.4, 322.0)">p</text><text xml:space="preserve" font-family="Lora-Regular" font-size="24.0" fill="#000000" transform="matrix(1.00, 0.00, -0.00, -1.00, 505.8, 322.0)">o</text><text xml:space="preserve" font-family="Lora-Regular" font-size="24.0" fill="#000000" transform="matrix(1.00, 0.00, -0.00, -1.00, 519.8, 322.0)">s</text><text xml:space="preserve" font-family="Lora-Regular" font-size="24.0" fill="#000000" transform="matrix(1.00, 0.00, -0.00, -1.00, 530.9, 322.0)">t</text><text xml:space="preserve" font-family="Lora-Regular" font-size="24.0" fill="#000000" transform="matrix(1.00, 0.00, -0.00, -1.00, 540.2, 322.0)">s</text><text xml:space="preserve" font-family="Lora-Regular" font-size="24.0" fill="#000000" transform="matrix(1.00, 0.00, -0.00, -1.00, 551.3, 322.0)"> </text><text xml:space="preserve" font-family="Lora-Bold" font-weight="bold" font-size="24.0" fill="#000000" transform="matrix(1.00, 0.00, -0.00, -1.00, 39.0, 263.0)">W</text><text xml:space="preserve" font-family="Lora-Bold" font-weight="bold" font-size="24.0" fill="#000000" transform="matrix(1.00, 0.00, -0.00, -1.00, 64.0, 263.0)">h</text><text xml:space="preserve" font-family="Lora-Bold" font-weight="bold" font-size="24.0" fill="#000000" transform="matrix(1.00, 0.00, -0.00, -1.00, 78.8, 263.0)">a</text><text xml:space="preserve" font-family="Lora-Bold" font-weight="bold" font-size="24.0" fill="#000000" transform="matrix(1.00, 0.00, -0.00, -1.00, 91.3, 263.0)">t</text><text xml:space="preserve" font-family="Lora-Bold" font-weight="bold" font-size="24.0" fill="#000000" transform="matrix(1.00, 0.00, -0.00, -1.00, 101.3, 263.0)"> </text><text xml:space="preserve" font-family="Lora-Bold" font-weight="bold" font-size="24.0" fill="#000000" transform="matrix(1.00, 0.00, -0.00, -1.00, 107.6, 263.0)">I</text><text xml:space="preserve" font-family="Lora-Bold" font-weight="bold" font-size="24.0" fill="#000000" transform="matrix(1.00, 0.00, -0.00, -1.00, 116.9, 263.0)"> </text><text xml:space="preserve" font-family="Lora-Bold" font-weight="bold" font-size="24.0" fill="#000000" transform="matrix(1.00, 0.00, -0.00, -1.00, 123.2, 263.0)">l</text><text xml:space="preserve" font-family="Lora-Bold" font-weight="bold" font-size="24.0" fill="#000000" transform="matrix(1.00, 0.00, -0.00, -1.00, 130.7, 263.0)">e</text><text xml:space="preserve" font-family="Lora-Bold" font-weight="bold" font-size="24.0" fill="#000000" transform="matrix(1.00, 0.00, -0.00, -1.00, 143.6, 263.0)">a</text><text xml:space="preserve" font-family="Lora-Bold" font-weight="bold" font-size="24.0" fill="#000000" transform="matrix(1.00, 0.00, -0.00, -1.00, 156.2, 263.0)">r</text><text xml:space="preserve" font-family="Lora-Bold" font-weight="bold" font-size="24.0" fill="#000000" transform="matrix(1.00, 0.00, -0.00, -1.00, 167.7, 263.0)">n</text><text xml:space="preserve" font-family="Lora-Bold" font-weight="bold" font-size="24.0" fill="#000000" transform="matrix(1.00, 0.00, -0.00, -1.00, 183.0, 263.0)">e</text><text xml:space="preserve" font-family="Lora-Bold" font-weight="bold" font-size="24.0" fill="#000000" transform="matrix(1.00, 0.00, -0.00, -1.00, 195.9, 263.0)">d</text><text xml:space="preserve" font-family="Lora-Bold" font-weight="bold" font-size="24.0" fill="#000000" transform="matrix(1.00, 0.00, -0.00, -1.00, 210.2, 263.0)">:</text><text xml:space="preserve" font-family="Lora-Bold" font-weight="bold" font-size="24.0" fill="#000000" transform="matrix(1.00, 0.00, -0.00, -1.00, 216.1, 263.0)"> </text><text xml:space="preserve" font-family="Lora-Regular" font-size="24.0" fill="#000000" transform="matrix(1.00, 0.00, -0.00, -1.00, 39.0, 233.0)">I</text><text xml:space="preserve" font-family="Lora-Regular" font-size="24.0" fill="#000000" transform="matrix(1.00, 0.00, -0.00, -1.00, 47.0, 233.0)"> </text><text xml:space="preserve" font-family="Lora-Regular" font-size="24.0" fill="#000000" transform="matrix(1.00, 0.00, -0.00, -1.00, 53.4, 233.0)">l</text><text xml:space="preserve" font-family="Lora-Regular" font-size="24.0" fill="#000000" transform="matrix(1.00, 0.00, -0.00, -1.00, 59.9, 233.0)">e</text><text xml:space="preserve" font-family="Lora-Regular" font-size="24.0" fill="#000000" transform="matrix(1.00, 0.00, -0.00, -1.00, 72.8, 233.0)">a</text><text xml:space="preserve" font-family="Lora-Regular" font-size="24.0" fill="#000000" transform="matrix(1.00, 0.00, -0.00, -1.00, 85.2, 233.0)">r</text><text xml:space="preserve" font-family="Lora-Regular" font-size="24.0" fill="#000000" transform="matrix(1.00, 0.00, -0.00, -1.00, 95.6, 233.0)">n</text><text xml:space="preserve" font-family="Lora-Regular" font-size="24.0" fill="#000000" transform="matrix(1.00, 0.00, -0.00, -1.00, 110.2, 233.0)">e</text><text xml:space="preserve" font-family="Lora-Regular" font-size="24.0" fill="#000000" transform="matrix(1.00, 0.00, -0.00, -1.00, 123.1, 233.0)">d</text><text xml:space="preserve" font-family="Lora-Regular" font-size="24.0" fill="#000000" transform="matrix(1.00, 0.00, -0.00, -1.00, 137.4, 233.0)"> </text><text xml:space="preserve" font-family="Lora-Regular" font-size="24.0" fill="#000000" transform="matrix(1.00, 0.00, -0.00, -1.00, 143.8, 233.0)">h</text><text xml:space="preserve" font-family="Lora-Regular" font-size="24.0" fill="#000000" transform="matrix(1.00, 0.00, -0.00, -1.00, 158.1, 233.0)">o</text><text xml:space="preserve" font-family="Lora-Regular" font-size="24.0" fill="#000000" transform="matrix(1.00, 0.00, -0.00, -1.00, 171.9, 233.0)">w</text><text xml:space="preserve" font-family="Lora-Regular" font-size="24.0" fill="#000000" transform="matrix(1.00, 0.00, -0.00, -1.00, 191.2, 233.0)"> </text><text xml:space="preserve" font-family="Lora-Regular" font-size="24.0" fill="#000000" transform="matrix(1.00, 0.00, -0.00, -1.00, 197.5, 233.0)">t</text><text xml:space="preserve" font-family="Lora-Regular" font-size="24.0" fill="#000000" transform="matrix(1.00, 0.00, -0.00, -1.00, 206.8, 233.0)">o</text><text xml:space="preserve" font-family="Lora-Regular" font-size="24.0" fill="#000000" transform="matrix(1.00, 0.00, -0.00, -1.00, 220.8, 233.0)"> </text><text xml:space="preserve" font-family="Lora-Regular" font-size="24.0" fill="#000000" transform="matrix(1.00, 0.00, -0.00, -1.00, 227.1, 233.0)">w</text><text xml:space="preserve" font-family="Lora-Regular" font-size="24.0" fill="#000000" transform="matrix(1.00, 0.00, -0.00, -1.00, 246.1, 233.0)">o</text><text xml:space="preserve" font-family="Lora-Regular" font-size="24.0" fill="#000000" transform="matrix(1.00, 0.00, -0.00, -1.00, 260.1, 233.0)">r</text><text xml:space="preserve" font-family="Lora-Regular" font-size="24.0" fill="#000000" transform="matrix(1.00, 0.00, -0.00, -1.00, 270.4, 233.0)">k</text><text xml:space="preserve" font-family="Lora-Regular" font-size="24.0" fill="#000000" transform="matrix(1.00, 0.00, -0.00, -1.00, 283.3, 233.0)"> </text><text xml:space="preserve" font-family="Lora-Regular" font-size="24.0" fill="#000000" transform="matrix(1.00, 0.00, -0.00, -1.00, 289.6, 233.0)">w</text><text xml:space="preserve" font-family="Lora-Regular" font-size="24.0" fill="#000000" transform="matrix(1.00, 0.00, -0.00, -1.00, 308.8, 233.0)">i</text><text xml:space="preserve" font-family="Lora-Regular" font-size="24.0" fill="#000000" transform="matrix(1.00, 0.00, -0.00, -1.00, 315.5, 233.0)">t</text><text xml:space="preserve" font-family="Lora-Regular" font-size="24.0" fill="#000000" transform="matrix(1.00, 0.00, -0.00, -1.00, 324.8, 233.0)">h</text><text xml:space="preserve" font-family="Lora-Regular" font-size="24.0" fill="#000000" transform="matrix(1.00, 0.00, -0.00, -1.00, 339.1, 233.0)"> </text><text xml:space="preserve" font-family="Lora-Regular" font-size="24.0" fill="#000000" transform="matrix(1.00, 0.00, -0.00, -1.00, 345.5, 233.0)">a</text><text xml:space="preserve" font-family="Lora-Regular" font-size="24.0" fill="#000000" transform="matrix(1.00, 0.00, -0.00, -1.00, 357.9, 233.0)"> </text><text xml:space="preserve" font-family="Lora-Regular" font-size="24.0" fill="#000000" transform="matrix(1.00, 0.00, -0.00, -1.00, 364.2, 233.0)">t</text><text xml:space="preserve" font-family="Lora-Regular" font-size="24.0" fill="#000000" transform="matrix(1.00, 0.00, -0.00, -1.00, 373.5, 233.0)">i</text><text xml:space="preserve" font-family="Lora-Regular" font-size="24.0" fill="#000000" transform="matrix(1.00, 0.00, -0.00, -1.00, 380.2, 233.0)">g</text><text xml:space="preserve" font-family="Lora-Regular" font-size="24.0" fill="#000000" transform="matrix(1.00, 0.00, -0.00, -1.00, 394.1, 233.0)">h</text><text xml:space="preserve" font-family="Lora-Regular" font-size="24.0" fill="#000000" transform="matrix(1.00, 0.00, -0.00, -1.00, 408.2, 233.0)">t</text><text xml:space="preserve" font-family="Lora-Regular" font-size="24.0" fill="#000000" transform="matrix(1.00, 0.00, -0.00, -1.00, 417.5, 233.0)">,</text><text xml:space="preserve" font-family="Lora-Regular" font-size="24.0" fill="#000000" transform="matrix(1.00, 0.00, -0.00, -1.00, 423.6, 233.0)"> </text><text xml:space="preserve" font-family="Lora-Regular" font-size="24.0" fill="#000000" transform="matrix(1.00, 0.00, -0.00, -1.00, 429.9, 233.0)">w</text><text xml:space="preserve" font-family="Lora-Regular" font-size="24.0" fill="#000000" transform="matrix(1.00, 0.00, -0.00, -1.00, 448.9, 233.0)">e</text><text xml:space="preserve" font-family="Lora-Regular" font-size="24.0" fill="#000000" transform="matrix(1.00, 0.00, -0.00, -1.00, 461.7, 233.0)">e</text><text xml:space="preserve" font-family="Lora-Regular" font-size="24.0" fill="#000000" transform="matrix(1.00, 0.00, -0.00, -1.00, 474.8, 233.0)">k</text><text xml:space="preserve" font-family="Lora-Regular" font-size="24.0" fill="#000000" transform="matrix(1.00, 0.00, -0.00, -1.00, 487.6, 233.0)">l</text><text xml:space="preserve" font-family="Lora-Regular" font-size="24.0" fill="#000000" transform="matrix(1.00, 0.00, -0.00, -1.00, 494.1, 233.0)">y</text><text xml:space="preserve" font-family="Lora-Regular" font-size="24.0" fill="#000000" transform="matrix(1.00, 0.00, -0.00, -1.00, 506.7, 233.0)"> </text><text xml:space="preserve" font-family="Lora-Regular" font-size="24.0" fill="#000000" transform="matrix(1.00, 0.00, -0.00, -1.00, 513.0, 233.0)">d</text><text xml:space="preserve" font-family="Lora-Regular" font-size="24.0" fill="#000000" transform="matrix(1.00, 0.00, -0.00, -1.00, 527.4, 233.0)">e</text><text xml:space="preserve" font-family="Lora-Regular" font-size="24.0" fill="#000000" transform="matrix(1.00, 0.00, -0.00, -1.00, 540.3, 233.0)">a</text><text xml:space="preserve" font-family="Lora-Regular" font-size="24.0" fill="#000000" transform="matrix(1.00, 0.00, -0.00, -1.00, 552.7, 233.0)">d</text><text xml:space="preserve" font-family="Lora-Regular" font-size="24.0" fill="#000000" transform="matrix(1.00, 0.00, -0.00, -1.00, 567.1, 233.0)">l</text><text xml:space="preserve" font-family="Lora-Regular" font-size="24.0" fill="#000000" transform="matrix(1.00, 0.00, -0.00, -1.00, 573.6, 233.0)">i</text><text xml:space="preserve" font-family="Lora-Regular" font-size="24.0" fill="#000000" transform="matrix(1.00, 0.00, -0.00, -1.00, 580.4, 233.0)">n</text><text xml:space="preserve" font-family="Lora-Regular" font-size="24.0" fill="#000000" transform="matrix(1.00, 0.00, -0.00, -1.00, 594.9, 233.0)">e</text><text xml:space="preserve" font-family="Lora-Regular" font-size="24.0" fill="#000000" transform="matrix(1.00, 0.00, -0.00, -1.00, 607.9, 233.0)"> </text><text xml:space="preserve" font-family="Lora-Regular" font-size="24.0" fill="#000000" transform="matrix(1.00, 0.00, -0.00, -1.00, 614.2, 233.0)">a</text><text xml:space="preserve" font-family="Lora-Regular" font-size="24.0" fill="#000000" transform="matrix(1.00, 0.00, -0.00, -1.00, 626.6, 233.0)">n</text><text xml:space="preserve" font-family="Lora-Regular" font-size="24.0" fill="#000000" transform="matrix(1.00, 0.00, -0.00, -1.00, 641.2, 233.0)">d</text><text xml:space="preserve" font-family="Lora-Regular" font-size="24.0" fill="#000000" transform="matrix(1.00, 0.00, -0.00, -1.00, 655.6, 233.0)"> </text><text xml:space="preserve" font-family="Lora-Regular" font-size="24.0" fill="#000000" transform="matrix(1.00, 0.00, -0.00, -1.00, 661.9, 233.0)">w</text><text xml:space="preserve" font-family="Lora-Regular" font-size="24.0" fill="#000000" transform="matrix(1.00, 0.00, -0.00, -1.00, 681.1, 233.0)">h</text><text xml:space="preserve" font-family="Lora-Regular" font-size="24.0" fill="#000000" transform="matrix(1.00, 0.00, -0.00, -1.00, 695.5, 233.0)">a</text><text xml:space="preserve" font-family="Lora-Regular" font-size="24.0" fill="#000000" transform="matrix(1.00, 0.00, -0.00, -1.00, 707.7, 233.0)">t</text><text xml:space="preserve" font-family="Lora-Regular" font-size="24.0" fill="#000000" transform="matrix(1.00, 0.00, -0.00, -1.00, 717.0, 233.0)"> </text><text xml:space="preserve" font-family="Lora-Regular" font-size="24.0" fill="#000000" transform="matrix(1.00, 0.00, -0.00, -1.00, 723.3, 233.0)">p</text><text xml:space="preserve" font-family="Lora-Regular" font-size="24.0" fill="#000000" transform="matrix(1.00, 0.00, -0.00, -1.00, 737.6, 233.0)">r</text><text xml:space="preserve" font-family="Lora-Regular" font-size="24.0" fill="#000000" transform="matrix(1.00, 0.00, -0.00, -1.00, 747.9, 233.0)">o</text><text xml:space="preserve" font-family="Lora-Regular" font-size="24.0" fill="#000000" transform="matrix(1.00, 0.00, -0.00, -1.00, 761.9, 233.0)">d</text><text xml:space="preserve" font-family="Lora-Regular" font-size="24.0" fill="#000000" transform="matrix(1.00, 0.00, -0.00, -1.00, 776.3, 233.0)">u</text><text xml:space="preserve" font-family="Lora-Regular" font-size="24.0" fill="#000000" transform="matrix(1.00, 0.00, -0.00, -1.00, 790.6, 233.0)">c</text><text xml:space="preserve" font-family="Lora-Regular" font-size="24.0" fill="#000000" transform="matrix(1.00, 0.00, -0.00, -1.00, 803.3, 233.0)">t</text><text xml:space="preserve" font-family="Lora-Regular" font-size="24.0" fill="#000000" transform="matrix(1.00, 0.00, -0.00, -1.00, 812.6, 233.0)">s</text><text xml:space="preserve" font-family="Lora-Regular" font-size="24.0" fill="#000000" transform="matrix(1.00, 0.00, -0.00, -1.00, 823.7, 233.0)"> </text><text xml:space="preserve" font-family="Lora-Regular" font-size="24.0" fill="#000000" transform="matrix(1.00, 0.00, -0.00, -1.00, 830.0, 233.0)">t</text><text xml:space="preserve" font-family="Lora-Regular" font-size="24.0" fill="#000000" transform="matrix(1.00, 0.00, -0.00, -1.00, 839.3, 233.0)">h</text><text xml:space="preserve" font-family="Lora-Regular" font-size="24.0" fill="#000000" transform="matrix(1.00, 0.00, -0.00, -1.00, 853.7, 233.0)">e</text><text xml:space="preserve" font-family="Lora-Regular" font-size="24.0" fill="#000000" transform="matrix(1.00, 0.00, -0.00, -1.00, 866.7, 233.0)"> </text><text xml:space="preserve" font-family="Lora-Regular" font-size="24.0" fill="#000000" transform="matrix(1.00, 0.00, -0.00, -1.00, 873.0, 233.0)">l</text><text xml:space="preserve" font-family="Lora-Regular" font-size="24.0" fill="#000000" transform="matrix(1.00, 0.00, -0.00, -1.00, 879.5, 233.0)">i</text><text xml:space="preserve" font-family="Lora-Regular" font-size="24.0" fill="#000000" transform="matrix(1.00, 0.00, -0.00, -1.00, 886.3, 233.0)">s</text><text xml:space="preserve" font-family="Lora-Regular" font-size="24.0" fill="#000000" transform="matrix(1.00, 0.00, -0.00, -1.00, 897.4, 233.0)">t</text><text xml:space="preserve" font-family="Lora-Regular" font-size="24.0" fill="#000000" transform="matrix(1.00, 0.00, -0.00, -1.00, 906.7, 233.0)">e</text><text xml:space="preserve" font-family="Lora-Regular" font-size="24.0" fill="#000000" transform="matrix(1.00, 0.00, -0.00, -1.00, 919.7, 233.0)">n</text><text xml:space="preserve" font-family="Lora-Regular" font-size="24.0" fill="#000000" transform="matrix(1.00, 0.00, -0.00, -1.00, 934.2, 233.0)">e</text><text xml:space="preserve" font-family="Lora-Regular" font-size="24.0" fill="#000000" transform="matrix(1.00, 0.00, -0.00, -1.00, 947.2, 233.0)">r</text><text xml:space="preserve" font-family="Lora-Regular" font-size="24.0" fill="#000000" transform="matrix(1.00, 0.00, -0.00, -1.00, 957.6, 233.0)">s</text><text xml:space="preserve" font-family="Lora-Regular" font-size="24.0" fill="#000000" transform="matrix(1.00, 0.00, -0.00, -1.00, 968.7, 233.0)"> </text><text xml:space="preserve" font-family="Lora-Regular" font-size="24.0" fill="#000000" transform="matrix(1.00, 0.00, -0.00, -1.00, 39.0, 204.0)">a</text><text xml:space="preserve" font-family="Lora-Regular" font-size="24.0" fill="#000000" transform="matrix(1.00, 0.00, -0.00, -1.00, 51.4, 204.0)">r</text><text xml:space="preserve" font-family="Lora-Regular" font-size="24.0" fill="#000000" transform="matrix(1.00, 0.00, -0.00, -1.00, 61.6, 204.0)">e</text><text xml:space="preserve" font-family="Lora-Regular" font-size="24.0" fill="#000000" transform="matrix(1.00, 0.00, -0.00, -1.00, 74.6, 204.0)"> </text><text xml:space="preserve" font-family="Lora-Regular" font-size="24.0" fill="#000000" transform="matrix(1.00, 0.00, -0.00, -1.00, 80.9, 204.0)">m</text><text xml:space="preserve" font-family="Lora-Regular" font-size="24.0" fill="#000000" transform="matrix(1.00, 0.00, -0.00, -1.00, 102.4, 204.0)">o</text><text xml:space="preserve" font-family="Lora-Regular" font-size="24.0" fill="#000000" transform="matrix(1.00, 0.00, -0.00, -1.00, 116.4, 204.0)">r</text><text xml:space="preserve" font-family="Lora-Regular" font-size="24.0" fill="#000000" transform="matrix(1.00, 0.00, -0.00, -1.00, 126.7, 204.0)">e</text><text xml:space="preserve" font-family="Lora-Regular" font-size="24.0" fill="#000000" transform="matrix(1.00, 0.00, -0.00, -1.00, 139.7, 204.0)"> </text><text xml:space="preserve" font-family="Lora-Regular" font-size="24.0" fill="#000000" transform="matrix(1.00, 0.00, -0.00, -1.00, 146.0, 204.0)">i</text><text xml:space="preserve" font-family="Lora-Regular" font-size="24.0" fill="#000000" transform="matrix(1.00, 0.00, -0.00, -1.00, 152.7, 204.0)">n</text><text xml:space="preserve" font-family="Lora-Regular" font-size="24.0" fill="#000000" transform="matrix(1.00, 0.00, -0.00, -1.00, 167.3, 204.0)">c</text><text xml:space="preserve" font-family="Lora-Regular" font-size="24.0" fill="#000000" transform="matrix(1.00, 0.00, -0.00, -1.00, 180.1, 204.0)">l</text><text xml:space="preserve" font-family="Lora-Regular" font-size="24.0" fill="#000000" transform="matrix(1.00, 0.00, -0.00, -1.00, 186.6, 204.0)">i</text><text xml:space="preserve" font-family="Lora-Regular" font-size="24.0" fill="#000000" transform="matrix(1.00, 0.00, -0.00, -1.00, 193.3, 204.0)">n</text><text xml:space="preserve" font-family="Lora-Regular" font-size="24.0" fill="#000000" transform="matrix(1.00, 0.00, -0.00, -1.00, 207.9, 204.0)">e</text><text xml:space="preserve" font-family="Lora-Regular" font-size="24.0" fill="#000000" transform="matrix(1.00, 0.00, -0.00, -1.00, 220.8, 204.0)">d</text><text xml:space="preserve" font-family="Lora-Regular" font-size="24.0" fill="#000000" transform="matrix(1.00, 0.00, -0.00, -1.00, 235.1, 204.0)"> </text><text xml:space="preserve" font-family="Lora-Regular" font-size="24.0" fill="#000000" transform="matrix(1.00, 0.00, -0.00, -1.00, 241.5, 204.0)">t</text><text xml:space="preserve" font-family="Lora-Regular" font-size="24.0" fill="#000000" transform="matrix(1.00, 0.00, -0.00, -1.00, 250.8, 204.0)">o</text><text xml:space="preserve" font-family="Lora-Regular" font-size="24.0" fill="#000000" transform="matrix(1.00, 0.00, -0.00, -1.00, 264.8, 204.0)"> </text><text xml:space="preserve" font-family="Lora-Regular" font-size="24.0" fill="#000000" transform="matrix(1.00, 0.00, -0.00, -1.00, 271.1, 204.0)">f</text><text xml:space="preserve" font-family="Lora-Regular" font-size="24.0" fill="#000000" transform="matrix(1.00, 0.00, -0.00, -1.00, 279.2, 204.0)">u</text><text xml:space="preserve" font-family="Lora-Regular" font-size="24.0" fill="#000000" transform="matrix(1.00, 0.00, -0.00, -1.00, 293.6, 204.0)">r</text><text xml:space="preserve" font-family="Lora-Regular" font-size="24.0" fill="#000000" transform="matrix(1.00, 0.00, -0.00, -1.00, 304.1, 204.0)">t</text><text xml:space="preserve" font-family="Lora-Regular" font-size="24.0" fill="#000000" transform="matrix(1.00, 0.00, -0.00, -1.00, 313.4, 204.0)">h</text><text xml:space="preserve" font-family="Lora-Regular" font-size="24.0" fill="#000000" transform="matrix(1.00, 0.00, -0.00, -1.00, 327.8, 204.0)">e</text><text xml:space="preserve" font-family="Lora-Regular" font-size="24.0" fill="#000000" transform="matrix(1.00, 0.00, -0.00, -1.00, 340.8, 204.0)">r</text><text xml:space="preserve" font-family="Lora-Regular" font-size="24.0" fill="#000000" transform="matrix(1.00, 0.00, -0.00, -1.00, 351.2, 204.0)"> </text><text xml:space="preserve" font-family="Lora-Regular" font-size="24.0" fill="#000000" transform="matrix(1.00, 0.00, -0.00, -1.00, 357.5, 204.0)">e</text><text xml:space="preserve" font-family="Lora-Regular" font-size="24.0" fill="#000000" transform="matrix(1.00, 0.00, -0.00, -1.00, 370.4, 204.0)">x</text><text xml:space="preserve" font-family="Lora-Regular" font-size="24.0" fill="#000000" transform="matrix(1.00, 0.00, -0.00, -1.00, 383.1, 204.0)">p</text><text xml:space="preserve" font-family="Lora-Regular" font-size="24.0" fill="#000000" transform="matrix(1.00, 0.00, -0.00, -1.00, 397.5, 204.0)">l</text><text xml:space="preserve" font-family="Lora-Regular" font-size="24.0" fill="#000000" transform="matrix(1.00, 0.00, -0.00, -1.00, 404.0, 204.0)">o</text><text xml:space="preserve" font-family="Lora-Regular" font-size="24.0" fill="#000000" transform="matrix(1.00, 0.00, -0.00, -1.00, 418.0, 204.0)">r</text><text xml:space="preserve" font-family="Lora-Regular" font-size="24.0" fill="#000000" transform="matrix(1.00, 0.00, -0.00, -1.00, 428.3, 204.0)">e</text><text xml:space="preserve" font-family="Lora-Regular" font-size="24.0" fill="#000000" transform="matrix(1.00, 0.00, -0.00, -1.00, 441.3, 204.0)">.</text></g></svg>