<?xml version="1.0" encoding="UTF-8" standalone="no"?><svg xmlns="http://www.w3.org/2000/svg" xmlns:xlink="http://www.w3.org/1999/xlink" clip-rule="evenodd" stroke-miterlimit="4.00" viewBox="0 0 1024 768"><desc>SVG generated by Keynote</desc><defs><linearGradient id="gradSh1.0" x1="0.0" y1="0.0" x2="100.0" y2="0.0" gradientUnits="userSpaceOnUse" gradientTransform="matrix(0.00, -7.70, -10.26, 0.00, 512.0, 769.0)"><stop offset="0.00000" stop-color="#F6AFDD"></stop><stop offset="0.01466" stop-color="#F5AFDD"></stop><stop offset="1.00000" stop-color="#D3A5F6"></stop></linearGradient></defs><g transform="matrix(1.00, 0.00, -0.00, -1.00, 0.0, 768.0)"><g><clipPath id="clip-0"><path d="M 0.0 768.0 L 1024.0 768.0 L 1024.0 0.0 L 0.0 0.0 Z M 0.0 768.0 "></path></clipPath><g clip-path="url(#clip-0)"><path d="M 0.0 768.0 L 1024.0 768.0 L 1024.0 0.0 L 0.0 0.0 Z M 0.0 768.0 " fill="url(#gradSh1.0)"></path></g></g><g><clipPath id="clip-1"><path d="M -96.0 771.0 L 751.0 771.0 L 751.0 -272.0 L -96.0 -272.0 Z M -96.1 771.1 "></path></clipPath><g clip-path="url(#clip-1)"><image xlink:href="292C013CE2C9337C19BEF75A083CD495.jpeg" width="614.00" height="768.00" transform="matrix(1.38, 0.00, -0.00, -1.38, -96.0, 786.0)"></image></g></g><path d="M 705.6 943.6 L 1459.1 586.5 L 997.2 -388.1 L 243.7 -31.0 Z M 705.6 943.6 " fill="#FEFFFF"></path><text xml:space="preserve" font-family="BebasNeueRegular" font-size="80.0" fill="#000000" transform="matrix(1.00, 0.00, -0.00, -1.00, 361.0, 618.0)">G</text><text xml:space="preserve" font-family="BebasNeueRegular" font-size="80.0" fill="#000000" transform="matrix(1.00, 0.00, -0.00, -1.00, 391.6, 618.0)">e</text><text xml:space="preserve" font-family="BebasNeueRegular" font-size="80.0" fill="#000000" transform="matrix(1.00, 0.00, -0.00, -1.00, 420.4, 618.0)">t</text><text xml:space="preserve" font-family="BebasNeueRegular" font-size="80.0" fill="#000000" transform="matrix(1.00, 0.00, -0.00, -1.00, 449.2, 618.0)"> </text><text xml:space="preserve" font-family="BebasNeueRegular" font-size="80.0" fill="#000000" transform="matrix(1.00, 0.00, -0.00, -1.00, 461.6, 618.0)">F</text><text xml:space="preserve" font-family="BebasNeueRegular" font-size="80.0" fill="#000000" transform="matrix(1.00, 0.00, -0.00, -1.00, 488.8, 618.0)">i</text><text xml:space="preserve" font-family="BebasNeueRegular" font-size="80.0" fill="#000000" transform="matrix(1.00, 0.00, -0.00, -1.00, 501.5, 618.0)">t</text><text xml:space="preserve" font-family="BebasNeueRegular" font-size="80.0" fill="#000000" transform="matrix(1.00, 0.00, -0.00, -1.00, 530.3, 618.0)"> </text><text xml:space="preserve" font-family="BebasNeueRegular" font-size="80.0" fill="#000000" transform="matrix(1.00, 0.00, -0.00, -1.00, 542.7, 618.0)">W</text><text xml:space="preserve" font-family="BebasNeueRegular" font-size="80.0" fill="#000000" transform="matrix(1.00, 0.00, -0.00, -1.00, 589.3, 618.0)">I</text><text xml:space="preserve" font-family="BebasNeueRegular" font-size="80.0" fill="#000000" transform="matrix(1.00, 0.00, -0.00, -1.00, 602.0, 618.0)">T</text><text xml:space="preserve" font-family="BebasNeueRegular" font-size="80.0" fill="#000000" transform="matrix(1.00, 0.00, -0.00, -1.00, 631.0, 618.0)">H</text><text xml:space="preserve" font-family="BebasNeueRegular" font-size="80.0" fill="#000000" transform="matrix(1.00, 0.00, -0.00, -1.00, 663.6, 618.0)"> </text><text xml:space="preserve" font-family="BebasNeueRegular" font-size="80.0" fill="#000000" transform="matrix(1.00, 0.00, -0.00, -1.00, 676.0, 618.0)"> </text><text xml:space="preserve" font-family="BebasNeueRegular" font-size="80.0" fill="#000000" transform="matrix(1.00, 0.00, -0.00, -1.00, 438.0, 522.0)">M</text><text xml:space="preserve" font-family="BebasNeueRegular" font-size="80.0" fill="#000000" transform="matrix(1.00, 0.00, -0.00, -1.00, 479.8, 522.0)">A</text><text xml:space="preserve" font-family="BebasNeueRegular" font-size="80.0" fill="#000000" transform="matrix(1.00, 0.00, -0.00, -1.00, 513.6, 522.0)">S</text><text xml:space="preserve" font-family="BebasNeueRegular" font-size="80.0" fill="#000000" transform="matrix(1.00, 0.00, -0.00, -1.00, 543.4, 522.0)">S</text><text xml:space="preserve" font-family="BebasNeueRegular" font-size="80.0" fill="#000000" transform="matrix(1.00, 0.00, -0.00, -1.00, 573.1, 522.0)">I</text><text xml:space="preserve" font-family="Lora-Bold" font-weight="bold" font-size="24.0" fill="#000000" transform="matrix(1.00, 0.00, -0.00, -1.00, 544.0, 400.0)">P</text><text xml:space="preserve" font-family="Lora-Bold" font-weight="bold" font-size="24.0" fill="#000000" transform="matrix(1.00, 0.00, -0.00, -1.00, 559.3, 400.0)">r</text><text xml:space="preserve" font-family="Lora-Bold" font-weight="bold" font-size="24.0" fill="#000000" transform="matrix(1.00, 0.00, -0.00, -1.00, 570.7, 400.0)">o</text><text xml:space="preserve" font-family="Lora-Bold" font-weight="bold" font-size="24.0" fill="#000000" transform="matrix(1.00, 0.00, -0.00, -1.00, 584.3, 400.0)">j</text><text xml:space="preserve" font-family="Lora-Bold" font-weight="bold" font-size="24.0" fill="#000000" transform="matrix(1.00, 0.00, -0.00, -1.00, 591.3, 400.0)">e</text><text xml:space="preserve" font-family="Lora-Bold" font-weight="bold" font-size="24.0" fill="#000000" transform="matrix(1.00, 0.00, -0.00, -1.00, 604.2, 400.0)">c</text><text xml:space="preserve" font-family="Lora-Bold" font-weight="bold" font-size="24.0" fill="#000000" transform="matrix(1.00, 0.00, -0.00, -1.00, 616.7, 400.0)">t</text><text xml:space="preserve" font-family="Lora-Bold" font-weight="bold" font-size="24.0" fill="#000000" transform="matrix(1.00, 0.00, -0.00, -1.00, 626.6, 400.0)">:</text><text xml:space="preserve" font-family="Lora-Bold" font-weight="bold" font-size="24.0" fill="#000000" transform="matrix(1.00, 0.00, -0.00, -1.00, 632.5, 400.0)"> </text><text xml:space="preserve" font-family="Lora-Bold" font-weight="bold" font-size="24.0" fill="#000000" transform="matrix(1.00, 0.00, -0.00, -1.00, 638.8, 400.0)"> </text><text xml:space="preserve" font-family="Lora-Bold" font-weight="bold" font-size="24.0" fill="#000000" transform="matrix(1.00, 0.00, -0.00, -1.00, 645.2, 400.0)"> </text><text xml:space="preserve" font-family="Lora-Regular" font-size="24.0" fill="#000000" transform="matrix(1.00, 0.00, -0.00, -1.00, 544.0, 370.0)">C</text><text xml:space="preserve" font-family="Lora-Regular" font-size="24.0" fill="#000000" transform="matrix(1.00, 0.00, -0.00, -1.00, 560.8, 370.0)">r</text><text xml:space="preserve" font-family="Lora-Regular" font-size="24.0" fill="#000000" transform="matrix(1.00, 0.00, -0.00, -1.00, 571.0, 370.0)">e</text><text xml:space="preserve" font-family="Lora-Regular" font-size="24.0" fill="#000000" transform="matrix(1.00, 0.00, -0.00, -1.00, 584.0, 370.0)">a</text><text xml:space="preserve" font-family="Lora-Regular" font-size="24.0" fill="#000000" transform="matrix(1.00, 0.00, -0.00, -1.00, 596.2, 370.0)">t</text><text xml:space="preserve" font-family="Lora-Regular" font-size="24.0" fill="#000000" transform="matrix(1.00, 0.00, -0.00, -1.00, 605.5, 370.0)">e</text><text xml:space="preserve" font-family="Lora-Regular" font-size="24.0" fill="#000000" transform="matrix(1.00, 0.00, -0.00, -1.00, 618.5, 370.0)"> </text><text xml:space="preserve" font-family="Lora-Regular" font-size="24.0" fill="#000000" transform="matrix(1.00, 0.00, -0.00, -1.00, 624.8, 370.0)">a</text><text xml:space="preserve" font-family="Lora-Regular" font-size="24.0" fill="#000000" transform="matrix(1.00, 0.00, -0.00, -1.00, 637.2, 370.0)"> </text><text xml:space="preserve" font-family="Lora-Regular" font-size="24.0" fill="#000000" transform="matrix(1.00, 0.00, -0.00, -1.00, 643.5, 370.0)">w</text><text xml:space="preserve" font-family="Lora-Regular" font-size="24.0" fill="#000000" transform="matrix(1.00, 0.00, -0.00, -1.00, 662.4, 370.0)">e</text><text xml:space="preserve" font-family="Lora-Regular" font-size="24.0" fill="#000000" transform="matrix(1.00, 0.00, -0.00, -1.00, 675.4, 370.0)">b</text><text xml:space="preserve" font-family="Lora-Regular" font-size="24.0" fill="#000000" transform="matrix(1.00, 0.00, -0.00, -1.00, 689.4, 370.0)">s</text><text xml:space="preserve" font-family="Lora-Regular" font-size="24.0" fill="#000000" transform="matrix(1.00, 0.00, -0.00, -1.00, 700.5, 370.0)">i</text><text xml:space="preserve" font-family="Lora-Regular" font-size="24.0" fill="#000000" transform="matrix(1.00, 0.00, -0.00, -1.00, 707.2, 370.0)">t</text><text xml:space="preserve" font-family="Lora-Regular" font-size="24.0" fill="#000000" transform="matrix(1.00, 0.00, -0.00, -1.00, 716.5, 370.0)">e</text><text xml:space="preserve" font-family="Lora-Regular" font-size="24.0" fill="#000000" transform="matrix(1.00, 0.00, -0.00, -1.00, 729.5, 370.0)"> </text><text xml:space="preserve" font-family="Lora-Regular" font-size="24.0" fill="#000000" transform="matrix(1.00, 0.00, -0.00, -1.00, 735.8, 370.0)">f</text><text xml:space="preserve" font-family="Lora-Regular" font-size="24.0" fill="#000000" transform="matrix(1.00, 0.00, -0.00, -1.00, 743.8, 370.0)">o</text><text xml:space="preserve" font-family="Lora-Regular" font-size="24.0" fill="#000000" transform="matrix(1.00, 0.00, -0.00, -1.00, 757.8, 370.0)">r</text><text xml:space="preserve" font-family="Lora-Regular" font-size="24.0" fill="#000000" transform="matrix(1.00, 0.00, -0.00, -1.00, 768.2, 370.0)"> </text><text xml:space="preserve" font-family="Lora-Regular" font-size="24.0" fill="#000000" transform="matrix(1.00, 0.00, -0.00, -1.00, 774.5, 370.0)">M</text><text xml:space="preserve" font-family="Lora-Regular" font-size="24.0" fill="#000000" transform="matrix(1.00, 0.00, -0.00, -1.00, 796.6, 370.0)">a</text><text xml:space="preserve" font-family="Lora-Regular" font-size="24.0" fill="#000000" transform="matrix(1.00, 0.00, -0.00, -1.00, 808.9, 370.0)">s</text><text xml:space="preserve" font-family="Lora-Regular" font-size="24.0" fill="#000000" transform="matrix(1.00, 0.00, -0.00, -1.00, 820.1, 370.0)">i</text><text xml:space="preserve" font-family="Lora-Regular" font-size="24.0" fill="#000000" transform="matrix(1.00, 0.00, -0.00, -1.00, 826.8, 370.0)">e</text><text xml:space="preserve" font-family="Lora-Regular" font-size="24.0" fill="#000000" transform="matrix(1.00, 0.00, -0.00, -1.00, 839.8, 370.0)">l</text><text xml:space="preserve" font-family="Lora-Regular" font-size="24.0" fill="#000000" transform="matrix(1.00, 0.00, -0.00, -1.00, 846.3, 370.0)">,</text><text xml:space="preserve" font-family="Lora-Regular" font-size="24.0" fill="#000000" transform="matrix(1.00, 0.00, -0.00, -1.00, 852.4, 370.0)"> </text><text xml:space="preserve" font-family="Lora-Regular" font-size="24.0" fill="#000000" transform="matrix(1.00, 0.00, -0.00, -1.00, 858.7, 370.0)">a</text><text xml:space="preserve" font-family="Lora-Regular" font-size="24.0" fill="#000000" transform="matrix(1.00, 0.00, -0.00, -1.00, 871.1, 370.0)"> </text><text xml:space="preserve" font-family="Lora-Regular" font-size="24.0" fill="#000000" transform="matrix(1.00, 0.00, -0.00, -1.00, 877.4, 370.0)">c</text><text xml:space="preserve" font-family="Lora-Regular" font-size="24.0" fill="#000000" transform="matrix(1.00, 0.00, -0.00, -1.00, 890.1, 370.0)">e</text><text xml:space="preserve" font-family="Lora-Regular" font-size="24.0" fill="#000000" transform="matrix(1.00, 0.00, -0.00, -1.00, 903.1, 370.0)">r</text><text xml:space="preserve" font-family="Lora-Regular" font-size="24.0" fill="#000000" transform="matrix(1.00, 0.00, -0.00, -1.00, 913.7, 370.0)">t</text><text xml:space="preserve" font-family="Lora-Regular" font-size="24.0" fill="#000000" transform="matrix(1.00, 0.00, -0.00, -1.00, 923.0, 370.0)">i</text><text xml:space="preserve" font-family="Lora-Regular" font-size="24.0" fill="#000000" transform="matrix(1.00, 0.00, -0.00, -1.00, 929.7, 370.0)">f</text><text xml:space="preserve" font-family="Lora-Regular" font-size="24.0" fill="#000000" transform="matrix(1.00, 0.00, -0.00, -1.00, 938.5, 370.0)">i</text><text xml:space="preserve" font-family="Lora-Regular" font-size="24.0" fill="#000000" transform="matrix(1.00, 0.00, -0.00, -1.00, 945.3, 370.0)">e</text><text xml:space="preserve" font-family="Lora-Regular" font-size="24.0" fill="#000000" transform="matrix(1.00, 0.00, -0.00, -1.00, 958.2, 370.0)">d</text><text xml:space="preserve" font-family="Lora-Regular" font-size="24.0" fill="#000000" transform="matrix(1.00, 0.00, -0.00, -1.00, 972.5, 370.0)"> </text><text xml:space="preserve" font-family="Lora-Regular" font-size="24.0" fill="#000000" transform="matrix(1.00, 0.00, -0.00, -1.00, 544.0, 341.0)">p</text><text xml:space="preserve" font-family="Lora-Regular" font-size="24.0" fill="#000000" transform="matrix(1.00, 0.00, -0.00, -1.00, 558.3, 341.0)">e</text><text xml:space="preserve" font-family="Lora-Regular" font-size="24.0" fill="#000000" transform="matrix(1.00, 0.00, -0.00, -1.00, 571.3, 341.0)">r</text><text xml:space="preserve" font-family="Lora-Regular" font-size="24.0" fill="#000000" transform="matrix(1.00, 0.00, -0.00, -1.00, 581.7, 341.0)">s</text><text xml:space="preserve" font-family="Lora-Regular" font-size="24.0" fill="#000000" transform="matrix(1.00, 0.00, -0.00, -1.00, 592.8, 341.0)">o</text><text xml:space="preserve" font-family="Lora-Regular" font-size="24.0" fill="#000000" transform="matrix(1.00, 0.00, -0.00, -1.00, 606.9, 341.0)">n</text><text xml:space="preserve" font-family="Lora-Regular" font-size="24.0" fill="#000000" transform="matrix(1.00, 0.00, -0.00, -1.00, 621.5, 341.0)">a</text><text xml:space="preserve" font-family="Lora-Regular" font-size="24.0" fill="#000000" transform="matrix(1.00, 0.00, -0.00, -1.00, 633.8, 341.0)">l</text><text xml:space="preserve" font-family="Lora-Regular" font-size="24.0" fill="#000000" transform="matrix(1.00, 0.00, -0.00, -1.00, 640.4, 341.0)"> </text><text xml:space="preserve" font-family="Lora-Regular" font-size="24.0" fill="#000000" transform="matrix(1.00, 0.00, -0.00, -1.00, 646.7, 341.0)">t</text><text xml:space="preserve" font-family="Lora-Regular" font-size="24.0" fill="#000000" transform="matrix(1.00, 0.00, -0.00, -1.00, 656.0, 341.0)">r</text><text xml:space="preserve" font-family="Lora-Regular" font-size="24.0" fill="#000000" transform="matrix(1.00, 0.00, -0.00, -1.00, 666.2, 341.0)">a</text><text xml:space="preserve" font-family="Lora-Regular" font-size="24.0" fill="#000000" transform="matrix(1.00, 0.00, -0.00, -1.00, 678.6, 341.0)">i</text><text xml:space="preserve" font-family="Lora-Regular" font-size="24.0" fill="#000000" transform="matrix(1.00, 0.00, -0.00, -1.00, 685.3, 341.0)">n</text><text xml:space="preserve" font-family="Lora-Regular" font-size="24.0" fill="#000000" transform="matrix(1.00, 0.00, -0.00, -1.00, 699.9, 341.0)">e</text><text xml:space="preserve" font-family="Lora-Regular" font-size="24.0" fill="#000000" transform="matrix(1.00, 0.00, -0.00, -1.00, 712.9, 341.0)">r</text><text xml:space="preserve" font-family="Lora-Regular" font-size="24.0" fill="#000000" transform="matrix(1.00, 0.00, -0.00, -1.00, 722.3, 341.0)">.</text><text xml:space="preserve" font-family="Lora-Regular" font-size="24.0" fill="#000000" transform="matrix(1.00, 0.00, -0.00, -1.00, 728.2, 341.0)"> </text><text xml:space="preserve" font-family="Lora-Bold" font-weight="bold" font-size="24.0" fill="#000000" transform="matrix(1.00, 0.00, -0.00, -1.00, 544.0, 280.0)">T</text><text xml:space="preserve" font-family="Lora-Bold" font-weight="bold" font-size="24.0" fill="#000000" transform="matrix(1.00, 0.00, -0.00, -1.00, 559.5, 280.0)">i</text><text xml:space="preserve" font-family="Lora-Bold" font-weight="bold" font-size="24.0" fill="#000000" transform="matrix(1.00, 0.00, -0.00, -1.00, 567.4, 280.0)">m</text><text xml:space="preserve" font-family="Lora-Bold" font-weight="bold" font-size="24.0" fill="#000000" transform="matrix(1.00, 0.00, -0.00, -1.00, 589.4, 280.0)">e</text><text xml:space="preserve" font-family="Lora-Bold" font-weight="bold" font-size="24.0" fill="#000000" transform="matrix(1.00, 0.00, -0.00, -1.00, 602.4, 280.0)">f</text><text xml:space="preserve" font-family="Lora-Bold" font-weight="bold" font-size="24.0" fill="#000000" transform="matrix(1.00, 0.00, -0.00, -1.00, 611.2, 280.0)">r</text><text xml:space="preserve" font-family="Lora-Bold" font-weight="bold" font-size="24.0" fill="#000000" transform="matrix(1.00, 0.00, -0.00, -1.00, 622.6, 280.0)">a</text><text xml:space="preserve" font-family="Lora-Bold" font-weight="bold" font-size="24.0" fill="#000000" transform="matrix(1.00, 0.00, -0.00, -1.00, 635.2, 280.0)">m</text><text xml:space="preserve" font-family="Lora-Bold" font-weight="bold" font-size="24.0" fill="#000000" transform="matrix(1.00, 0.00, -0.00, -1.00, 657.3, 280.0)">e</text><text xml:space="preserve" font-family="Lora-Bold" font-weight="bold" font-size="24.0" fill="#000000" transform="matrix(1.00, 0.00, -0.00, -1.00, 670.2, 280.0)">:</text><text xml:space="preserve" font-family="Lora-Bold" font-weight="bold" font-size="24.0" fill="#000000" transform="matrix(1.00, 0.00, -0.00, -1.00, 676.2, 280.0)"> </text><text xml:space="preserve" font-family="Lora-Regular" font-size="24.0" fill="#000000" transform="matrix(1.00, 0.00, -0.00, -1.00, 544.0, 250.0)">6</text><text xml:space="preserve" font-family="Lora-Regular" font-size="24.0" fill="#000000" transform="matrix(1.00, 0.00, -0.00, -1.00, 557.9, 250.0)"> </text><text xml:space="preserve" font-family="Lora-Regular" font-size="24.0" fill="#000000" transform="matrix(1.00, 0.00, -0.00, -1.00, 564.2, 250.0)">m</text><text xml:space="preserve" font-family="Lora-Regular" font-size="24.0" fill="#000000" transform="matrix(1.00, 0.00, -0.00, -1.00, 585.7, 250.0)">o</text><text xml:space="preserve" font-family="Lora-Regular" font-size="24.0" fill="#000000" transform="matrix(1.00, 0.00, -0.00, -1.00, 599.7, 250.0)">n</text><text xml:space="preserve" font-family="Lora-Regular" font-size="24.0" fill="#000000" transform="matrix(1.00, 0.00, -0.00, -1.00, 614.0, 250.0)">t</text><text xml:space="preserve" font-family="Lora-Regular" font-size="24.0" fill="#000000" transform="matrix(1.00, 0.00, -0.00, -1.00, 623.3, 250.0)">h</text><text xml:space="preserve" font-family="Lora-Regular" font-size="24.0" fill="#000000" transform="matrix(1.00, 0.00, -0.00, -1.00, 637.7, 250.0)">s</text><text xml:space="preserve" font-family="Lora-Bold" font-weight="bold" font-size="24.0" fill="#000000" transform="matrix(1.00, 0.00, -0.00, -1.00, 648.8, 250.0)"> </text><text xml:space="preserve" font-family="Lora-Bold" font-weight="bold" font-size="24.0" fill="#000000" transform="matrix(1.00, 0.00, -0.00, -1.00, 544.0, 189.0)">T</text><text xml:space="preserve" font-family="Lora-Bold" font-weight="bold" font-size="24.0" fill="#000000" transform="matrix(1.00, 0.00, -0.00, -1.00, 558.4, 189.0)">e</text><text xml:space="preserve" font-family="Lora-Bold" font-weight="bold" font-size="24.0" fill="#000000" transform="matrix(1.00, 0.00, -0.00, -1.00, 571.3, 189.0)">a</text><text xml:space="preserve" font-family="Lora-Bold" font-weight="bold" font-size="24.0" fill="#000000" transform="matrix(1.00, 0.00, -0.00, -1.00, 583.9, 189.0)">m</text><text xml:space="preserve" font-family="Lora-Bold" font-weight="bold" font-size="24.0" fill="#000000" transform="matrix(1.00, 0.00, -0.00, -1.00, 606.0, 189.0)">:</text><text xml:space="preserve" font-family="Lora-Bold" font-weight="bold" font-size="24.0" fill="#000000" transform="matrix(1.00, 0.00, -0.00, -1.00, 611.9, 189.0)"> </text><text xml:space="preserve" font-family="Lora-Regular" font-size="24.0" fill="#000000" transform="matrix(1.00, 0.00, -0.00, -1.00, 544.0, 159.0)">S</text><text xml:space="preserve" font-family="Lora-Regular" font-size="24.0" fill="#000000" transform="matrix(1.00, 0.00, -0.00, -1.00, 557.6, 159.0)">o</text><text xml:space="preserve" font-family="Lora-Regular" font-size="24.0" fill="#000000" transform="matrix(1.00, 0.00, -0.00, -1.00, 571.6, 159.0)">l</text><text xml:space="preserve" font-family="Lora-Regular" font-size="24.0" fill="#000000" transform="matrix(1.00, 0.00, -0.00, -1.00, 578.2, 159.0)">o</text><text xml:space="preserve" font-family="Lora-Bold" font-weight="bold" font-size="24.0" fill="#000000" transform="matrix(1.00, 0.00, -0.00, -1.00, 592.2, 159.0)"> </text><text xml:space="preserve" font-family="Lora-Bold" font-weight="bold" font-size="24.0" fill="#000000" transform="matrix(1.00, 0.00, -0.00, -1.00, 544.0, 98.0)">R</text><text xml:space="preserve" font-family="Lora-Bold" font-weight="bold" font-size="24.0" fill="#000000" transform="matrix(1.00, 0.00, -0.00, -1.00, 560.1, 98.0)">e</text><text xml:space="preserve" font-family="Lora-Bold" font-weight="bold" font-size="24.0" fill="#000000" transform="matrix(1.00, 0.00, -0.00, -1.00, 573.0, 98.0)">s</text><text xml:space="preserve" font-family="Lora-Bold" font-weight="bold" font-size="24.0" fill="#000000" transform="matrix(1.00, 0.00, -0.00, -1.00, 584.7, 98.0)">p</text><text xml:space="preserve" font-family="Lora-Bold" font-weight="bold" font-size="24.0" fill="#000000" transform="matrix(1.00, 0.00, -0.00, -1.00, 599.1, 98.0)">o</text><text xml:space="preserve" font-family="Lora-Bold" font-weight="bold" font-size="24.0" fill="#000000" transform="matrix(1.00, 0.00, -0.00, -1.00, 612.7, 98.0)">n</text><text xml:space="preserve" font-family="Lora-Bold" font-weight="bold" font-size="24.0" fill="#000000" transform="matrix(1.00, 0.00, -0.00, -1.00, 627.9, 98.0)">s</text><text xml:space="preserve" font-family="Lora-Bold" font-weight="bold" font-size="24.0" fill="#000000" transform="matrix(1.00, 0.00, -0.00, -1.00, 639.6, 98.0)">i</text><text xml:space="preserve" font-family="Lora-Bold" font-weight="bold" font-size="24.0" fill="#000000" transform="matrix(1.00, 0.00, -0.00, -1.00, 647.4, 98.0)">b</text><text xml:space="preserve" font-family="Lora-Bold" font-weight="bold" font-size="24.0" fill="#000000" transform="matrix(1.00, 0.00, -0.00, -1.00, 661.2, 98.0)">i</text><text xml:space="preserve" font-family="Lora-Bold" font-weight="bold" font-size="24.0" fill="#000000" transform="matrix(1.00, 0.00, -0.00, -1.00, 669.0, 98.0)">l</text><text xml:space="preserve" font-family="Lora-Bold" font-weight="bold" font-size="24.0" fill="#000000" transform="matrix(1.00, 0.00, -0.00, -1.00, 676.5, 98.0)">i</text><text xml:space="preserve" font-family="Lora-Bold" font-weight="bold" font-size="24.0" fill="#000000" transform="matrix(1.00, 0.00, -0.00, -1.00, 684.3, 98.0)">t</text><text xml:space="preserve" font-family="Lora-Bold" font-weight="bold" font-size="24.0" fill="#000000" transform="matrix(1.00, 0.00, -0.00, -1.00, 694.2, 98.0)">i</text><text xml:space="preserve" font-family="Lora-Bold" font-weight="bold" font-size="24.0" fill="#000000" transform="matrix(1.00, 0.00, -0.00, -1.00, 702.0, 98.0)">e</text><text xml:space="preserve" font-family="Lora-Bold" font-weight="bold" font-size="24.0" fill="#000000" transform="matrix(1.00, 0.00, -0.00, -1.00, 715.0, 98.0)">s</text><text xml:space="preserve" font-family="Lora-Bold" font-weight="bold" font-size="24.0" fill="#000000" transform="matrix(1.00, 0.00, -0.00, -1.00, 726.6, 98.0)">:</text><text xml:space="preserve" font-family="Lora-Bold" font-weight="bold" font-size="24.0" fill="#000000" transform="matrix(1.00, 0.00, -0.00, -1.00, 732.5, 98.0)"> </text><text xml:space="preserve" font-family="Lora-Regular" font-size="24.0" fill="#000000" transform="matrix(1.00, 0.00, -0.00, -1.00, 544.0, 68.0)">W</text><text xml:space="preserve" font-family="Lora-Regular" font-size="24.0" fill="#000000" transform="matrix(1.00, 0.00, -0.00, -1.00, 566.9, 68.0)">e</text><text xml:space="preserve" font-family="Lora-Regular" font-size="24.0" fill="#000000" transform="matrix(1.00, 0.00, -0.00, -1.00, 580.0, 68.0)">b</text><text xml:space="preserve" font-family="Lora-Regular" font-size="24.0" fill="#000000" transform="matrix(1.00, 0.00, -0.00, -1.00, 593.9, 68.0)"> </text><text xml:space="preserve" font-family="Lora-Regular" font-size="24.0" fill="#000000" transform="matrix(1.00, 0.00, -0.00, -1.00, 600.2, 68.0)">D</text><text xml:space="preserve" font-family="Lora-Regular" font-size="24.0" fill="#000000" transform="matrix(1.00, 0.00, -0.00, -1.00, 618.1, 68.0)">e</text><text xml:space="preserve" font-family="Lora-Regular" font-size="24.0" fill="#000000" transform="matrix(1.00, 0.00, -0.00, -1.00, 631.1, 68.0)">s</text><text xml:space="preserve" font-family="Lora-Regular" font-size="24.0" fill="#000000" transform="matrix(1.00, 0.00, -0.00, -1.00, 642.2, 68.0)">i</text><text xml:space="preserve" font-family="Lora-Regular" font-size="24.0" fill="#000000" transform="matrix(1.00, 0.00, -0.00, -1.00, 649.0, 68.0)">g</text><text xml:space="preserve" font-family="Lora-Regular" font-size="24.0" fill="#000000" transform="matrix(1.00, 0.00, -0.00, -1.00, 662.3, 68.0)">n</text><text xml:space="preserve" font-family="Lora-Regular" font-size="24.0" fill="#000000" transform="matrix(1.00, 0.00, -0.00, -1.00, 676.8, 68.0)"> </text><text xml:space="preserve" font-family="Lora-Regular" font-size="24.0" fill="#000000" transform="matrix(1.00, 0.00, -0.00, -1.00, 683.1, 68.0)">&amp;</text><text xml:space="preserve" font-family="Lora-Regular" font-size="24.0" fill="#000000" transform="matrix(1.00, 0.00, -0.00, -1.00, 699.8, 68.0)"> </text><text xml:space="preserve" font-family="Lora-Regular" font-size="24.0" fill="#000000" transform="matrix(1.00, 0.00, -0.00, -1.00, 706.1, 68.0)">D</text><text xml:space="preserve" font-family="Lora-Regular" font-size="24.0" fill="#000000" transform="matrix(1.00, 0.00, -0.00, -1.00, 724.0, 68.0)">e</text><text xml:space="preserve" font-family="Lora-Regular" font-size="24.0" fill="#000000" transform="matrix(1.00, 0.00, -0.00, -1.00, 736.9, 68.0)">v</text><text xml:space="preserve" font-family="Lora-Regular" font-size="24.0" fill="#000000" transform="matrix(1.00, 0.00, -0.00, -1.00, 748.9, 68.0)">e</text><text xml:space="preserve" font-family="Lora-Regular" font-size="24.0" fill="#000000" transform="matrix(1.00, 0.00, -0.00, -1.00, 761.9, 68.0)">l</text><text xml:space="preserve" font-family="Lora-Regular" font-size="24.0" fill="#000000" transform="matrix(1.00, 0.00, -0.00, -1.00, 768.4, 68.0)">o</text><text xml:space="preserve" font-family="Lora-Regular" font-size="24.0" fill="#000000" transform="matrix(1.00, 0.00, -0.00, -1.00, 782.5, 68.0)">p</text><text xml:space="preserve" font-family="Lora-Regular" font-size="24.0" fill="#000000" transform="matrix(1.00, 0.00, -0.00, -1.00, 796.8, 68.0)">m</text><text xml:space="preserve" font-family="Lora-Regular" font-size="24.0" fill="#000000" transform="matrix(1.00, 0.00, -0.00, -1.00, 818.3, 68.0)">e</text><text xml:space="preserve" font-family="Lora-Regular" font-size="24.0" fill="#000000" transform="matrix(1.00, 0.00, -0.00, -1.00, 831.3, 68.0)">n</text><text xml:space="preserve" font-family="Lora-Regular" font-size="24.0" fill="#000000" transform="matrix(1.00, 0.00, -0.00, -1.00, 845.6, 68.0)">t</text><text xml:space="preserve" font-family="Lora-Regular" font-size="24.0" fill="#000000" transform="matrix(1.00, 0.00, -0.00, -1.00, 854.9, 68.0)">,</text><text xml:space="preserve" font-family="Lora-Regular" font-size="24.0" fill="#000000" transform="matrix(1.00, 0.00, -0.00, -1.00, 861.0, 68.0)"> </text><text xml:space="preserve" font-family="Lora-Regular" font-size="24.0" fill="#000000" transform="matrix(1.00, 0.00, -0.00, -1.00, 867.3, 68.0)">M</text><text xml:space="preserve" font-family="Lora-Regular" font-size="24.0" fill="#000000" transform="matrix(1.00, 0.00, -0.00, -1.00, 889.4, 68.0)">a</text><text xml:space="preserve" font-family="Lora-Regular" font-size="24.0" fill="#000000" transform="matrix(1.00, 0.00, -0.00, -1.00, 901.7, 68.0)">i</text><text xml:space="preserve" font-family="Lora-Regular" font-size="24.0" fill="#000000" transform="matrix(1.00, 0.00, -0.00, -1.00, 908.5, 68.0)">l</text><text xml:space="preserve" font-family="Lora-Regular" font-size="24.0" fill="#000000" transform="matrix(1.00, 0.00, -0.00, -1.00, 915.0, 68.0)">c</text><text xml:space="preserve" font-family="Lora-Regular" font-size="24.0" fill="#000000" transform="matrix(1.00, 0.00, -0.00, -1.00, 927.8, 68.0)">h</text><text xml:space="preserve" font-family="Lora-Regular" font-size="24.0" fill="#000000" transform="matrix(1.00, 0.00, -0.00, -1.00, 942.2, 68.0)">i</text><text xml:space="preserve" font-family="Lora-Regular" font-size="24.0" fill="#000000" transform="matrix(1.00, 0.00, -0.00, -1.00, 948.9, 68.0)">m</text><text xml:space="preserve" font-family="Lora-Regular" font-size="24.0" fill="#000000" transform="matrix(1.00, 0.00, -0.00, -1.00, 970.4, 68.0)">p</text><text xml:space="preserve" font-family="Lora-Regular" font-size="24.0" fill="#000000" transform="matrix(1.00, 0.00, -0.00, -1.00, 984.7, 68.0)"> </text><text xml:space="preserve" font-family="Lora-Regular" font-size="24.0" fill="#000000" transform="matrix(1.00, 0.00, -0.00, -1.00, 544.0, 39.0)">s</text><text xml:space="preserve" font-family="Lora-Regular" font-size="24.0" fill="#000000" transform="matrix(1.00, 0.00, -0.00, -1.00, 555.1, 39.0)">e</text><text xml:space="preserve" font-family="Lora-Regular" font-size="24.0" fill="#000000" transform="matrix(1.00, 0.00, -0.00, -1.00, 567.9, 39.0)">t</text><text xml:space="preserve" font-family="Lora-Regular" font-size="24.0" fill="#000000" transform="matrix(1.00, 0.00, -0.00, -1.00, 577.2, 39.0)">u</text><text xml:space="preserve" font-family="Lora-Regular" font-size="24.0" fill="#000000" transform="matrix(1.00, 0.00, -0.00, -1.00, 591.6, 39.0)">p</text><text xml:space="preserve" font-family="Lora-Regular" font-size="24.0" fill="#000000" transform="matrix(1.00, 0.00, -0.00, -1.00, 605.9, 39.0)">,</text><text xml:space="preserve" font-family="Lora-Regular" font-size="24.0" fill="#000000" transform="matrix(1.00, 0.00, -0.00, -1.00, 612.0, 39.0)"> </text><text xml:space="preserve" font-family="Lora-Regular" font-size="24.0" fill="#000000" transform="matrix(1.00, 0.00, -0.00, -1.00, 618.3, 39.0)">A</text><text xml:space="preserve" font-family="Lora-Regular" font-size="24.0" fill="#000000" transform="matrix(1.00, 0.00, -0.00, -1.00, 633.3, 39.0)">n</text><text xml:space="preserve" font-family="Lora-Regular" font-size="24.0" fill="#000000" transform="matrix(1.00, 0.00, -0.00, -1.00, 647.9, 39.0)">a</text><text xml:space="preserve" font-family="Lora-Regular" font-size="24.0" fill="#000000" transform="matrix(1.00, 0.00, -0.00, -1.00, 660.3, 39.0)">l</text><text xml:space="preserve" font-family="Lora-Regular" font-size="24.0" fill="#000000" transform="matrix(1.00, 0.00, -0.00, -1.00, 666.7, 39.0)">y</text><text xml:space="preserve" font-family="Lora-Regular" font-size="24.0" fill="#000000" transform="matrix(1.00, 0.00, -0.00, -1.00, 679.5, 39.0)">t</text><text xml:space="preserve" font-family="Lora-Regular" font-size="24.0" fill="#000000" transform="matrix(1.00, 0.00, -0.00, -1.00, 688.8, 39.0)">i</text><text xml:space="preserve" font-family="Lora-Regular" font-size="24.0" fill="#000000" transform="matrix(1.00, 0.00, -0.00, -1.00, 695.5, 39.0)">c</text><text xml:space="preserve" font-family="Lora-Regular" font-size="24.0" fill="#000000" transform="matrix(1.00, 0.00, -0.00, -1.00, 708.3, 39.0)">s</text><text xml:space="preserve" font-family="Lora-Regular" font-size="24.0" fill="#000000" transform="matrix(1.00, 0.00, -0.00, -1.00, 719.4, 39.0)">.</text></g></svg>