<?xml version="1.0" encoding="UTF-8" standalone="no"?><svg xmlns="http://www.w3.org/2000/svg" xmlns:xlink="http://www.w3.org/1999/xlink" clip-rule="evenodd" stroke-miterlimit="4.00" viewBox="0 0 1024 768"><desc>SVG generated by Keynote</desc><defs></defs><g transform="matrix(1.00, 0.00, -0.00, -1.00, 0.0, 768.0)"><path d="M 0.0 768.0 L 1024.0 768.0 L 1024.0 0.0 L 0.0 0.0 Z M 0.0 768.0 " fill="#FEFFFF"></path><image xlink:href="514D241789081B3ABD745C3955C5A679.jpeg" width="1365.00" height="755.00" transform="matrix(1.03, 0.00, -0.00, -1.03, -12.0, 774.0)"></image><path d="M -113.1 1164.9 L 640.4 807.8 L 178.5 -166.7 L -574.9 190.4 Z M -113.1 1164.9 " fill="#FEFFFF"></path><text xml:space="preserve" font-family="BebasNeueRegular" font-size="80.0" fill="#000000" transform="matrix(1.00, 0.00, -0.00, -1.00, 39.0, 631.0)">y</text><text xml:space="preserve" font-family="BebasNeueRegular" font-size="80.0" fill="#000000" transform="matrix(1.00, 0.00, -0.00, -1.00, 71.5, 631.0)">e</text><text xml:space="preserve" font-family="BebasNeueRegular" font-size="80.0" fill="#000000" transform="matrix(1.00, 0.00, -0.00, -1.00, 100.3, 631.0)">s</text><text xml:space="preserve" font-family="BebasNeueRegular" font-size="80.0" fill="#000000" transform="matrix(1.00, 0.00, -0.00, -1.00, 130.0, 631.0)">e</text><text xml:space="preserve" font-family="BebasNeueRegular" font-size="80.0" fill="#000000" transform="matrix(1.00, 0.00, -0.00, -1.00, 158.8, 631.0)">n</text><text xml:space="preserve" font-family="BebasNeueRegular" font-size="80.0" fill="#000000" transform="matrix(1.00, 0.00, -0.00, -1.00, 191.6, 631.0)">i</text><text xml:space="preserve" font-family="BebasNeueRegular" font-size="80.0" fill="#000000" transform="matrix(1.00, 0.00, -0.00, -1.00, 204.2, 631.0)">a</text><text xml:space="preserve" font-family="BebasNeueRegular" font-size="80.0" fill="#000000" transform="matrix(1.00, 0.00, -0.00, -1.00, 238.0, 631.0)"> </text><text xml:space="preserve" font-family="BebasNeueRegular" font-size="80.0" fill="#000000" transform="matrix(1.00, 0.00, -0.00, -1.00, 250.4, 631.0)">d</text><text xml:space="preserve" font-family="BebasNeueRegular" font-size="80.0" fill="#000000" transform="matrix(1.00, 0.00, -0.00, -1.00, 282.0, 631.0)">e</text><text xml:space="preserve" font-family="BebasNeueRegular" font-size="80.0" fill="#000000" transform="matrix(1.00, 0.00, -0.00, -1.00, 310.8, 631.0)"> </text><text xml:space="preserve" font-family="BebasNeueRegular" font-size="80.0" fill="#000000" transform="matrix(1.00, 0.00, -0.00, -1.00, 323.2, 631.0)">l</text><text xml:space="preserve" font-family="BebasNeueRegular" font-size="80.0" fill="#000000" transform="matrix(1.00, 0.00, -0.00, -1.00, 350.2, 631.0)">e</text><text xml:space="preserve" font-family="BebasNeueRegular" font-size="80.0" fill="#000000" transform="matrix(1.00, 0.00, -0.00, -1.00, 379.0, 631.0)">รณ</text><text xml:space="preserve" font-family="BebasNeueRegular" font-size="80.0" fill="#000000" transform="matrix(1.00, 0.00, -0.00, -1.00, 410.1, 631.0)">n</text><image xlink:href="754D1D70DB2F468649C607F381FD3362.png" width="67.00" height="22.00" transform="matrix(0.99, 0.00, -0.00, -1.00, 905.7, 327.3)" opacity="0.50"></image><path d="M 908.7 326.3 L 969.3 326.3 L 969.3 310.3 L 908.7 310.3 Z M 908.7 326.3 " fill="#22222A"></path></g></svg>