<?xml version="1.0" encoding="UTF-8" standalone="no"?><svg xmlns="http://www.w3.org/2000/svg" xmlns:xlink="http://www.w3.org/1999/xlink" clip-rule="evenodd" stroke-miterlimit="4.00" viewBox="0 0 1024 768"><desc>SVG generated by Keynote</desc><defs><linearGradient id="gradSh1.2" x1="0.0" y1="0.0" x2="100.0" y2="0.0" gradientUnits="userSpaceOnUse" gradientTransform="matrix(0.00, -7.70, -10.26, 0.00, 512.0, 769.0)"><stop offset="0.00000" stop-color="#F6AFDD"></stop><stop offset="0.01466" stop-color="#F5AFDD"></stop><stop offset="1.00000" stop-color="#D3A5F6"></stop></linearGradient></defs><g transform="matrix(1.00, 0.00, -0.00, -1.00, 0.0, 768.0)"><g><clipPath id="clip-4"><path d="M 0.0 768.0 L 1024.0 768.0 L 1024.0 0.0 L 0.0 0.0 Z M 0.0 768.0 "></path></clipPath><g clip-path="url(#clip-4)"><path d="M 0.0 768.0 L 1024.0 768.0 L 1024.0 0.0 L 0.0 0.0 Z M 0.0 768.0 " fill="url(#gradSh1.2)"></path></g></g><path d="M 714.9 963.9 L 1468.4 606.8 L 1006.5 -367.7 L 253.1 -10.6 Z M 714.9 963.9 " fill="#FEFFFF"></path><text xml:space="preserve" font-family="BebasNeueRegular" font-size="80.0" fill="#000000" transform="matrix(1.00, 0.00, -0.00, -1.00, 370.0, 618.0)">G</text><text xml:space="preserve" font-family="BebasNeueRegular" font-size="80.0" fill="#000000" transform="matrix(1.00, 0.00, -0.00, -1.00, 400.6, 618.0)">l</text><text xml:space="preserve" font-family="BebasNeueRegular" font-size="80.0" fill="#000000" transform="matrix(1.00, 0.00, -0.00, -1.00, 427.6, 618.0)">o</text><text xml:space="preserve" font-family="BebasNeueRegular" font-size="80.0" fill="#000000" transform="matrix(1.00, 0.00, -0.00, -1.00, 458.7, 618.0)">w</text><text xml:space="preserve" font-family="BebasNeueRegular" font-size="80.0" fill="#000000" transform="matrix(1.00, 0.00, -0.00, -1.00, 505.4, 618.0)">i</text><text xml:space="preserve" font-family="BebasNeueRegular" font-size="80.0" fill="#000000" transform="matrix(1.00, 0.00, -0.00, -1.00, 518.0, 618.0)">n</text><text xml:space="preserve" font-family="BebasNeueRegular" font-size="80.0" fill="#000000" transform="matrix(1.00, 0.00, -0.00, -1.00, 550.7, 618.0)">g</text><text xml:space="preserve" font-family="BebasNeueRegular" font-size="80.0" fill="#000000" transform="matrix(1.00, 0.00, -0.00, -1.00, 581.4, 618.0)"> </text><text xml:space="preserve" font-family="BebasNeueRegular" font-size="80.0" fill="#000000" transform="matrix(1.00, 0.00, -0.00, -1.00, 593.8, 618.0)">u</text><text xml:space="preserve" font-family="BebasNeueRegular" font-size="80.0" fill="#000000" transform="matrix(1.00, 0.00, -0.00, -1.00, 624.7, 618.0)">p</text><text xml:space="preserve" font-family="BebasNeueRegular" font-size="80.0" fill="#000000" transform="matrix(1.00, 0.00, -0.00, -1.00, 654.4, 618.0)"> </text><text xml:space="preserve" font-family="BebasNeueRegular" font-size="80.0" fill="#000000" transform="matrix(1.00, 0.00, -0.00, -1.00, 666.8, 618.0)"> </text><text xml:space="preserve" font-family="BebasNeueRegular" font-size="80.0" fill="#000000" transform="matrix(1.00, 0.00, -0.00, -1.00, 404.0, 522.0)">p</text><text xml:space="preserve" font-family="BebasNeueRegular" font-size="80.0" fill="#000000" transform="matrix(1.00, 0.00, -0.00, -1.00, 433.7, 522.0)">o</text><text xml:space="preserve" font-family="BebasNeueRegular" font-size="80.0" fill="#000000" transform="matrix(1.00, 0.00, -0.00, -1.00, 464.8, 522.0)">d</text><text xml:space="preserve" font-family="BebasNeueRegular" font-size="80.0" fill="#000000" transform="matrix(1.00, 0.00, -0.00, -1.00, 496.5, 522.0)">c</text><text xml:space="preserve" font-family="BebasNeueRegular" font-size="80.0" fill="#000000" transform="matrix(1.00, 0.00, -0.00, -1.00, 526.9, 522.0)">a</text><text xml:space="preserve" font-family="BebasNeueRegular" font-size="80.0" fill="#000000" transform="matrix(1.00, 0.00, -0.00, -1.00, 560.6, 522.0)">s</text><text xml:space="preserve" font-family="BebasNeueRegular" font-size="80.0" fill="#000000" transform="matrix(1.00, 0.00, -0.00, -1.00, 590.4, 522.0)">t</text><text xml:space="preserve" font-family="Lora-Bold" font-weight="bold" font-size="24.0" fill="#000000" transform="matrix(1.00, 0.00, -0.00, -1.00, 544.0, 400.0)">P</text><text xml:space="preserve" font-family="Lora-Bold" font-weight="bold" font-size="24.0" fill="#000000" transform="matrix(1.00, 0.00, -0.00, -1.00, 559.3, 400.0)">r</text><text xml:space="preserve" font-family="Lora-Bold" font-weight="bold" font-size="24.0" fill="#000000" transform="matrix(1.00, 0.00, -0.00, -1.00, 570.7, 400.0)">o</text><text xml:space="preserve" font-family="Lora-Bold" font-weight="bold" font-size="24.0" fill="#000000" transform="matrix(1.00, 0.00, -0.00, -1.00, 584.3, 400.0)">j</text><text xml:space="preserve" font-family="Lora-Bold" font-weight="bold" font-size="24.0" fill="#000000" transform="matrix(1.00, 0.00, -0.00, -1.00, 591.3, 400.0)">e</text><text xml:space="preserve" font-family="Lora-Bold" font-weight="bold" font-size="24.0" fill="#000000" transform="matrix(1.00, 0.00, -0.00, -1.00, 604.2, 400.0)">c</text><text xml:space="preserve" font-family="Lora-Bold" font-weight="bold" font-size="24.0" fill="#000000" transform="matrix(1.00, 0.00, -0.00, -1.00, 616.7, 400.0)">t</text><text xml:space="preserve" font-family="Lora-Bold" font-weight="bold" font-size="24.0" fill="#000000" transform="matrix(1.00, 0.00, -0.00, -1.00, 626.6, 400.0)">:</text><text xml:space="preserve" font-family="Lora-Bold" font-weight="bold" font-size="24.0" fill="#000000" transform="matrix(1.00, 0.00, -0.00, -1.00, 632.5, 400.0)"> </text><text xml:space="preserve" font-family="Lora-Regular" font-size="24.0" fill="#000000" transform="matrix(1.00, 0.00, -0.00, -1.00, 638.8, 400.0)"> </text><text xml:space="preserve" font-family="Lora-Regular" font-size="24.0" fill="#000000" transform="matrix(1.00, 0.00, -0.00, -1.00, 645.1, 400.0)"> </text><text xml:space="preserve" font-family="Lora-Regular" font-size="24.0" fill="#000000" transform="matrix(1.00, 0.00, -0.00, -1.00, 544.0, 371.0)">C</text><text xml:space="preserve" font-family="Lora-Regular" font-size="24.0" fill="#000000" transform="matrix(1.00, 0.00, -0.00, -1.00, 560.8, 371.0)">r</text><text xml:space="preserve" font-family="Lora-Regular" font-size="24.0" fill="#000000" transform="matrix(1.00, 0.00, -0.00, -1.00, 571.0, 371.0)">e</text><text xml:space="preserve" font-family="Lora-Regular" font-size="24.0" fill="#000000" transform="matrix(1.00, 0.00, -0.00, -1.00, 584.0, 371.0)">a</text><text xml:space="preserve" font-family="Lora-Regular" font-size="24.0" fill="#000000" transform="matrix(1.00, 0.00, -0.00, -1.00, 596.2, 371.0)">t</text><text xml:space="preserve" font-family="Lora-Regular" font-size="24.0" fill="#000000" transform="matrix(1.00, 0.00, -0.00, -1.00, 605.5, 371.0)">e</text><text xml:space="preserve" font-family="Lora-Regular" font-size="24.0" fill="#000000" transform="matrix(1.00, 0.00, -0.00, -1.00, 618.5, 371.0)"> </text><text xml:space="preserve" font-family="Lora-Regular" font-size="24.0" fill="#000000" transform="matrix(1.00, 0.00, -0.00, -1.00, 624.8, 371.0)">e</text><text xml:space="preserve" font-family="Lora-Regular" font-size="24.0" fill="#000000" transform="matrix(1.00, 0.00, -0.00, -1.00, 637.8, 371.0)">p</text><text xml:space="preserve" font-family="Lora-Regular" font-size="24.0" fill="#000000" transform="matrix(1.00, 0.00, -0.00, -1.00, 652.1, 371.0)">i</text><text xml:space="preserve" font-family="Lora-Regular" font-size="24.0" fill="#000000" transform="matrix(1.00, 0.00, -0.00, -1.00, 658.9, 371.0)">s</text><text xml:space="preserve" font-family="Lora-Regular" font-size="24.0" fill="#000000" transform="matrix(1.00, 0.00, -0.00, -1.00, 670.0, 371.0)">o</text><text xml:space="preserve" font-family="Lora-Regular" font-size="24.0" fill="#000000" transform="matrix(1.00, 0.00, -0.00, -1.00, 684.0, 371.0)">d</text><text xml:space="preserve" font-family="Lora-Regular" font-size="24.0" fill="#000000" transform="matrix(1.00, 0.00, -0.00, -1.00, 698.4, 371.0)">e</text><text xml:space="preserve" font-family="Lora-Regular" font-size="24.0" fill="#000000" transform="matrix(1.00, 0.00, -0.00, -1.00, 711.4, 371.0)"> </text><text xml:space="preserve" font-family="Lora-Regular" font-size="24.0" fill="#000000" transform="matrix(1.00, 0.00, -0.00, -1.00, 717.7, 371.0)">g</text><text xml:space="preserve" font-family="Lora-Regular" font-size="24.0" fill="#000000" transform="matrix(1.00, 0.00, -0.00, -1.00, 731.0, 371.0)">u</text><text xml:space="preserve" font-family="Lora-Regular" font-size="24.0" fill="#000000" transform="matrix(1.00, 0.00, -0.00, -1.00, 745.3, 371.0)">i</text><text xml:space="preserve" font-family="Lora-Regular" font-size="24.0" fill="#000000" transform="matrix(1.00, 0.00, -0.00, -1.00, 752.1, 371.0)">d</text><text xml:space="preserve" font-family="Lora-Regular" font-size="24.0" fill="#000000" transform="matrix(1.00, 0.00, -0.00, -1.00, 766.4, 371.0)">e</text><text xml:space="preserve" font-family="Lora-Regular" font-size="24.0" fill="#000000" transform="matrix(1.00, 0.00, -0.00, -1.00, 779.4, 371.0)">s</text><text xml:space="preserve" font-family="Lora-Regular" font-size="24.0" fill="#000000" transform="matrix(1.00, 0.00, -0.00, -1.00, 790.5, 371.0)"> </text><text xml:space="preserve" font-family="Lora-Regular" font-size="24.0" fill="#000000" transform="matrix(1.00, 0.00, -0.00, -1.00, 796.9, 371.0)">o</text><text xml:space="preserve" font-family="Lora-Regular" font-size="24.0" fill="#000000" transform="matrix(1.00, 0.00, -0.00, -1.00, 810.8, 371.0)">f</text><text xml:space="preserve" font-family="Lora-Regular" font-size="24.0" fill="#000000" transform="matrix(1.00, 0.00, -0.00, -1.00, 818.9, 371.0)"> </text><text xml:space="preserve" font-family="Lora-Regular" font-size="24.0" fill="#000000" transform="matrix(1.00, 0.00, -0.00, -1.00, 825.2, 371.0)">a</text><text xml:space="preserve" font-family="Lora-Regular" font-size="24.0" fill="#000000" transform="matrix(1.00, 0.00, -0.00, -1.00, 837.6, 371.0)">l</text><text xml:space="preserve" font-family="Lora-Regular" font-size="24.0" fill="#000000" transform="matrix(1.00, 0.00, -0.00, -1.00, 844.1, 371.0)">l</text><text xml:space="preserve" font-family="Lora-Regular" font-size="24.0" fill="#000000" transform="matrix(1.00, 0.00, -0.00, -1.00, 850.6, 371.0)"> </text><text xml:space="preserve" font-family="Lora-Regular" font-size="24.0" fill="#000000" transform="matrix(1.00, 0.00, -0.00, -1.00, 857.0, 371.0)">t</text><text xml:space="preserve" font-family="Lora-Regular" font-size="24.0" fill="#000000" transform="matrix(1.00, 0.00, -0.00, -1.00, 866.3, 371.0)">h</text><text xml:space="preserve" font-family="Lora-Regular" font-size="24.0" fill="#000000" transform="matrix(1.00, 0.00, -0.00, -1.00, 880.6, 371.0)">e</text><text xml:space="preserve" font-family="Lora-Regular" font-size="24.0" fill="#000000" transform="matrix(1.00, 0.00, -0.00, -1.00, 893.7, 371.0)"> </text><text xml:space="preserve" font-family="Lora-Regular" font-size="24.0" fill="#000000" transform="matrix(1.00, 0.00, -0.00, -1.00, 544.0, 342.0)">p</text><text xml:space="preserve" font-family="Lora-Regular" font-size="24.0" fill="#000000" transform="matrix(1.00, 0.00, -0.00, -1.00, 558.3, 342.0)">r</text><text xml:space="preserve" font-family="Lora-Regular" font-size="24.0" fill="#000000" transform="matrix(1.00, 0.00, -0.00, -1.00, 568.6, 342.0)">o</text><text xml:space="preserve" font-family="Lora-Regular" font-size="24.0" fill="#000000" transform="matrix(1.00, 0.00, -0.00, -1.00, 582.6, 342.0)">d</text><text xml:space="preserve" font-family="Lora-Regular" font-size="24.0" fill="#000000" transform="matrix(1.00, 0.00, -0.00, -1.00, 597.0, 342.0)">u</text><text xml:space="preserve" font-family="Lora-Regular" font-size="24.0" fill="#000000" transform="matrix(1.00, 0.00, -0.00, -1.00, 611.3, 342.0)">c</text><text xml:space="preserve" font-family="Lora-Regular" font-size="24.0" fill="#000000" transform="matrix(1.00, 0.00, -0.00, -1.00, 624.0, 342.0)">t</text><text xml:space="preserve" font-family="Lora-Regular" font-size="24.0" fill="#000000" transform="matrix(1.00, 0.00, -0.00, -1.00, 633.3, 342.0)">s</text><text xml:space="preserve" font-family="Lora-Regular" font-size="24.0" fill="#000000" transform="matrix(1.00, 0.00, -0.00, -1.00, 644.4, 342.0)"> </text><text xml:space="preserve" font-family="Lora-Regular" font-size="24.0" fill="#000000" transform="matrix(1.00, 0.00, -0.00, -1.00, 650.7, 342.0)">m</text><text xml:space="preserve" font-family="Lora-Regular" font-size="24.0" fill="#000000" transform="matrix(1.00, 0.00, -0.00, -1.00, 672.1, 342.0)">e</text><text xml:space="preserve" font-family="Lora-Regular" font-size="24.0" fill="#000000" transform="matrix(1.00, 0.00, -0.00, -1.00, 685.1, 342.0)">n</text><text xml:space="preserve" font-family="Lora-Regular" font-size="24.0" fill="#000000" transform="matrix(1.00, 0.00, -0.00, -1.00, 699.5, 342.0)">t</text><text xml:space="preserve" font-family="Lora-Regular" font-size="24.0" fill="#000000" transform="matrix(1.00, 0.00, -0.00, -1.00, 708.8, 342.0)">i</text><text xml:space="preserve" font-family="Lora-Regular" font-size="24.0" fill="#000000" transform="matrix(1.00, 0.00, -0.00, -1.00, 715.5, 342.0)">o</text><text xml:space="preserve" font-family="Lora-Regular" font-size="24.0" fill="#000000" transform="matrix(1.00, 0.00, -0.00, -1.00, 729.6, 342.0)">n</text><text xml:space="preserve" font-family="Lora-Regular" font-size="24.0" fill="#000000" transform="matrix(1.00, 0.00, -0.00, -1.00, 744.1, 342.0)">e</text><text xml:space="preserve" font-family="Lora-Regular" font-size="24.0" fill="#000000" transform="matrix(1.00, 0.00, -0.00, -1.00, 757.0, 342.0)">d</text><text xml:space="preserve" font-family="Lora-Regular" font-size="24.0" fill="#000000" transform="matrix(1.00, 0.00, -0.00, -1.00, 771.4, 342.0)"> </text><text xml:space="preserve" font-family="Lora-Regular" font-size="24.0" fill="#000000" transform="matrix(1.00, 0.00, -0.00, -1.00, 777.7, 342.0)">i</text><text xml:space="preserve" font-family="Lora-Regular" font-size="24.0" fill="#000000" transform="matrix(1.00, 0.00, -0.00, -1.00, 784.4, 342.0)">n</text><text xml:space="preserve" font-family="Lora-Regular" font-size="24.0" fill="#000000" transform="matrix(1.00, 0.00, -0.00, -1.00, 799.0, 342.0)"> </text><text xml:space="preserve" font-family="Lora-Regular" font-size="24.0" fill="#000000" transform="matrix(1.00, 0.00, -0.00, -1.00, 805.3, 342.0)">t</text><text xml:space="preserve" font-family="Lora-Regular" font-size="24.0" fill="#000000" transform="matrix(1.00, 0.00, -0.00, -1.00, 814.6, 342.0)">h</text><text xml:space="preserve" font-family="Lora-Regular" font-size="24.0" fill="#000000" transform="matrix(1.00, 0.00, -0.00, -1.00, 829.0, 342.0)">e</text><text xml:space="preserve" font-family="Lora-Regular" font-size="24.0" fill="#000000" transform="matrix(1.00, 0.00, -0.00, -1.00, 842.0, 342.0)"> </text><text xml:space="preserve" font-family="Lora-Regular" font-size="24.0" fill="#000000" transform="matrix(1.00, 0.00, -0.00, -1.00, 848.3, 342.0)">p</text><text xml:space="preserve" font-family="Lora-Regular" font-size="24.0" fill="#000000" transform="matrix(1.00, 0.00, -0.00, -1.00, 862.7, 342.0)">o</text><text xml:space="preserve" font-family="Lora-Regular" font-size="24.0" fill="#000000" transform="matrix(1.00, 0.00, -0.00, -1.00, 876.7, 342.0)">d</text><text xml:space="preserve" font-family="Lora-Regular" font-size="24.0" fill="#000000" transform="matrix(1.00, 0.00, -0.00, -1.00, 891.1, 342.0)">c</text><text xml:space="preserve" font-family="Lora-Regular" font-size="24.0" fill="#000000" transform="matrix(1.00, 0.00, -0.00, -1.00, 903.8, 342.0)">a</text><text xml:space="preserve" font-family="Lora-Regular" font-size="24.0" fill="#000000" transform="matrix(1.00, 0.00, -0.00, -1.00, 916.2, 342.0)">s</text><text xml:space="preserve" font-family="Lora-Regular" font-size="24.0" fill="#000000" transform="matrix(1.00, 0.00, -0.00, -1.00, 927.3, 342.0)">t</text><text xml:space="preserve" font-family="Lora-Regular" font-size="24.0" fill="#000000" transform="matrix(1.00, 0.00, -0.00, -1.00, 936.6, 342.0)">.</text><text xml:space="preserve" font-family="Lora-Regular" font-size="24.0" fill="#000000" transform="matrix(1.00, 0.00, -0.00, -1.00, 942.5, 342.0)"> </text><text xml:space="preserve" font-family="Lora-Bold" font-weight="bold" font-size="24.0" fill="#000000" transform="matrix(1.00, 0.00, -0.00, -1.00, 544.0, 282.0)">T</text><text xml:space="preserve" font-family="Lora-Bold" font-weight="bold" font-size="24.0" fill="#000000" transform="matrix(1.00, 0.00, -0.00, -1.00, 559.5, 282.0)">i</text><text xml:space="preserve" font-family="Lora-Bold" font-weight="bold" font-size="24.0" fill="#000000" transform="matrix(1.00, 0.00, -0.00, -1.00, 567.4, 282.0)">m</text><text xml:space="preserve" font-family="Lora-Bold" font-weight="bold" font-size="24.0" fill="#000000" transform="matrix(1.00, 0.00, -0.00, -1.00, 589.4, 282.0)">e</text><text xml:space="preserve" font-family="Lora-Bold" font-weight="bold" font-size="24.0" fill="#000000" transform="matrix(1.00, 0.00, -0.00, -1.00, 602.4, 282.0)">f</text><text xml:space="preserve" font-family="Lora-Bold" font-weight="bold" font-size="24.0" fill="#000000" transform="matrix(1.00, 0.00, -0.00, -1.00, 611.2, 282.0)">r</text><text xml:space="preserve" font-family="Lora-Bold" font-weight="bold" font-size="24.0" fill="#000000" transform="matrix(1.00, 0.00, -0.00, -1.00, 622.6, 282.0)">a</text><text xml:space="preserve" font-family="Lora-Bold" font-weight="bold" font-size="24.0" fill="#000000" transform="matrix(1.00, 0.00, -0.00, -1.00, 635.2, 282.0)">m</text><text xml:space="preserve" font-family="Lora-Bold" font-weight="bold" font-size="24.0" fill="#000000" transform="matrix(1.00, 0.00, -0.00, -1.00, 657.3, 282.0)">e</text><text xml:space="preserve" font-family="Lora-Bold" font-weight="bold" font-size="24.0" fill="#000000" transform="matrix(1.00, 0.00, -0.00, -1.00, 670.2, 282.0)">:</text><text xml:space="preserve" font-family="Lora-Bold" font-weight="bold" font-size="24.0" fill="#000000" transform="matrix(1.00, 0.00, -0.00, -1.00, 676.2, 282.0)"> </text><text xml:space="preserve" font-family="Lora-Regular" font-size="24.0" fill="#000000" transform="matrix(1.00, 0.00, -0.00, -1.00, 544.0, 253.0)">W</text><text xml:space="preserve" font-family="Lora-Regular" font-size="24.0" fill="#000000" transform="matrix(1.00, 0.00, -0.00, -1.00, 566.9, 253.0)">e</text><text xml:space="preserve" font-family="Lora-Regular" font-size="24.0" fill="#000000" transform="matrix(1.00, 0.00, -0.00, -1.00, 579.8, 253.0)">e</text><text xml:space="preserve" font-family="Lora-Regular" font-size="24.0" fill="#000000" transform="matrix(1.00, 0.00, -0.00, -1.00, 592.8, 253.0)">k</text><text xml:space="preserve" font-family="Lora-Regular" font-size="24.0" fill="#000000" transform="matrix(1.00, 0.00, -0.00, -1.00, 605.7, 253.0)">l</text><text xml:space="preserve" font-family="Lora-Regular" font-size="24.0" fill="#000000" transform="matrix(1.00, 0.00, -0.00, -1.00, 612.2, 253.0)">y</text><text xml:space="preserve" font-family="Lora-Regular" font-size="24.0" fill="#000000" transform="matrix(1.00, 0.00, -0.00, -1.00, 624.8, 253.0)"> </text><text xml:space="preserve" font-family="Lora-Regular" font-size="24.0" fill="#000000" transform="matrix(1.00, 0.00, -0.00, -1.00, 631.1, 253.0)">(</text><text xml:space="preserve" font-family="Lora-Regular" font-size="24.0" fill="#000000" transform="matrix(1.00, 0.00, -0.00, -1.00, 637.6, 253.0)">O</text><text xml:space="preserve" font-family="Lora-Regular" font-size="24.0" fill="#000000" transform="matrix(1.00, 0.00, -0.00, -1.00, 656.7, 253.0)">n</text><text xml:space="preserve" font-family="Lora-Regular" font-size="24.0" fill="#000000" transform="matrix(1.00, 0.00, -0.00, -1.00, 671.3, 253.0)">g</text><text xml:space="preserve" font-family="Lora-Regular" font-size="24.0" fill="#000000" transform="matrix(1.00, 0.00, -0.00, -1.00, 684.5, 253.0)">o</text><text xml:space="preserve" font-family="Lora-Regular" font-size="24.0" fill="#000000" transform="matrix(1.00, 0.00, -0.00, -1.00, 698.6, 253.0)">i</text><text xml:space="preserve" font-family="Lora-Regular" font-size="24.0" fill="#000000" transform="matrix(1.00, 0.00, -0.00, -1.00, 705.3, 253.0)">n</text><text xml:space="preserve" font-family="Lora-Regular" font-size="24.0" fill="#000000" transform="matrix(1.00, 0.00, -0.00, -1.00, 719.9, 253.0)">g</text><text xml:space="preserve" font-family="Lora-Regular" font-size="24.0" fill="#000000" transform="matrix(1.00, 0.00, -0.00, -1.00, 733.2, 253.0)">)</text><text xml:space="preserve" font-family="Lora-Regular" font-size="24.0" fill="#000000" transform="matrix(1.00, 0.00, -0.00, -1.00, 740.5, 253.0)"> </text><text xml:space="preserve" font-family="Lora-Bold" font-weight="bold" font-size="24.0" fill="#000000" transform="matrix(1.00, 0.00, -0.00, -1.00, 544.0, 193.0)">T</text><text xml:space="preserve" font-family="Lora-Bold" font-weight="bold" font-size="24.0" fill="#000000" transform="matrix(1.00, 0.00, -0.00, -1.00, 558.4, 193.0)">e</text><text xml:space="preserve" font-family="Lora-Bold" font-weight="bold" font-size="24.0" fill="#000000" transform="matrix(1.00, 0.00, -0.00, -1.00, 571.3, 193.0)">a</text><text xml:space="preserve" font-family="Lora-Bold" font-weight="bold" font-size="24.0" fill="#000000" transform="matrix(1.00, 0.00, -0.00, -1.00, 583.9, 193.0)">m</text><text xml:space="preserve" font-family="Lora-Bold" font-weight="bold" font-size="24.0" fill="#000000" transform="matrix(1.00, 0.00, -0.00, -1.00, 606.0, 193.0)">:</text><text xml:space="preserve" font-family="Lora-Bold" font-weight="bold" font-size="24.0" fill="#000000" transform="matrix(1.00, 0.00, -0.00, -1.00, 611.9, 193.0)"> </text><text xml:space="preserve" font-family="Lora-Regular" font-size="24.0" fill="#000000" transform="matrix(1.00, 0.00, -0.00, -1.00, 544.0, 164.0)">S</text><text xml:space="preserve" font-family="Lora-Regular" font-size="24.0" fill="#000000" transform="matrix(1.00, 0.00, -0.00, -1.00, 557.6, 164.0)">o</text><text xml:space="preserve" font-family="Lora-Regular" font-size="24.0" fill="#000000" transform="matrix(1.00, 0.00, -0.00, -1.00, 571.6, 164.0)">l</text><text xml:space="preserve" font-family="Lora-Regular" font-size="24.0" fill="#000000" transform="matrix(1.00, 0.00, -0.00, -1.00, 578.2, 164.0)">o</text><text xml:space="preserve" font-family="Lora-Regular" font-size="24.0" fill="#000000" transform="matrix(1.00, 0.00, -0.00, -1.00, 592.2, 164.0)"> </text><text xml:space="preserve" font-family="Lora-Regular" font-size="24.0" fill="#000000" transform="matrix(1.00, 0.00, -0.00, -1.00, 598.5, 164.0)"> </text><text xml:space="preserve" font-family="Lora-Bold" font-weight="bold" font-size="24.0" fill="#000000" transform="matrix(1.00, 0.00, -0.00, -1.00, 544.0, 104.0)">R</text><text xml:space="preserve" font-family="Lora-Bold" font-weight="bold" font-size="24.0" fill="#000000" transform="matrix(1.00, 0.00, -0.00, -1.00, 560.1, 104.0)">e</text><text xml:space="preserve" font-family="Lora-Bold" font-weight="bold" font-size="24.0" fill="#000000" transform="matrix(1.00, 0.00, -0.00, -1.00, 573.0, 104.0)">s</text><text xml:space="preserve" font-family="Lora-Bold" font-weight="bold" font-size="24.0" fill="#000000" transform="matrix(1.00, 0.00, -0.00, -1.00, 584.7, 104.0)">p</text><text xml:space="preserve" font-family="Lora-Bold" font-weight="bold" font-size="24.0" fill="#000000" transform="matrix(1.00, 0.00, -0.00, -1.00, 599.1, 104.0)">o</text><text xml:space="preserve" font-family="Lora-Bold" font-weight="bold" font-size="24.0" fill="#000000" transform="matrix(1.00, 0.00, -0.00, -1.00, 612.7, 104.0)">n</text><text xml:space="preserve" font-family="Lora-Bold" font-weight="bold" font-size="24.0" fill="#000000" transform="matrix(1.00, 0.00, -0.00, -1.00, 627.9, 104.0)">s</text><text xml:space="preserve" font-family="Lora-Bold" font-weight="bold" font-size="24.0" fill="#000000" transform="matrix(1.00, 0.00, -0.00, -1.00, 639.6, 104.0)">i</text><text xml:space="preserve" font-family="Lora-Bold" font-weight="bold" font-size="24.0" fill="#000000" transform="matrix(1.00, 0.00, -0.00, -1.00, 647.4, 104.0)">b</text><text xml:space="preserve" font-family="Lora-Bold" font-weight="bold" font-size="24.0" fill="#000000" transform="matrix(1.00, 0.00, -0.00, -1.00, 661.2, 104.0)">i</text><text xml:space="preserve" font-family="Lora-Bold" font-weight="bold" font-size="24.0" fill="#000000" transform="matrix(1.00, 0.00, -0.00, -1.00, 669.0, 104.0)">l</text><text xml:space="preserve" font-family="Lora-Bold" font-weight="bold" font-size="24.0" fill="#000000" transform="matrix(1.00, 0.00, -0.00, -1.00, 676.5, 104.0)">i</text><text xml:space="preserve" font-family="Lora-Bold" font-weight="bold" font-size="24.0" fill="#000000" transform="matrix(1.00, 0.00, -0.00, -1.00, 684.3, 104.0)">t</text><text xml:space="preserve" font-family="Lora-Bold" font-weight="bold" font-size="24.0" fill="#000000" transform="matrix(1.00, 0.00, -0.00, -1.00, 694.2, 104.0)">i</text><text xml:space="preserve" font-family="Lora-Bold" font-weight="bold" font-size="24.0" fill="#000000" transform="matrix(1.00, 0.00, -0.00, -1.00, 702.0, 104.0)">e</text><text xml:space="preserve" font-family="Lora-Bold" font-weight="bold" font-size="24.0" fill="#000000" transform="matrix(1.00, 0.00, -0.00, -1.00, 715.0, 104.0)">s</text><text xml:space="preserve" font-family="Lora-Regular" font-size="24.0" fill="#000000" transform="matrix(1.00, 0.00, -0.00, -1.00, 726.6, 104.0)">:</text><text xml:space="preserve" font-family="Lora-Regular" font-size="24.0" fill="#000000" transform="matrix(1.00, 0.00, -0.00, -1.00, 732.6, 104.0)"> </text><text xml:space="preserve" font-family="Lora-Regular" font-size="24.0" fill="#000000" transform="matrix(1.00, 0.00, -0.00, -1.00, 544.0, 75.0)">D</text><text xml:space="preserve" font-family="Lora-Regular" font-size="24.0" fill="#000000" transform="matrix(1.00, 0.00, -0.00, -1.00, 561.9, 75.0)">e</text><text xml:space="preserve" font-family="Lora-Regular" font-size="24.0" fill="#000000" transform="matrix(1.00, 0.00, -0.00, -1.00, 574.9, 75.0)">s</text><text xml:space="preserve" font-family="Lora-Regular" font-size="24.0" fill="#000000" transform="matrix(1.00, 0.00, -0.00, -1.00, 586.0, 75.0)">i</text><text xml:space="preserve" font-family="Lora-Regular" font-size="24.0" fill="#000000" transform="matrix(1.00, 0.00, -0.00, -1.00, 592.7, 75.0)">g</text><text xml:space="preserve" font-family="Lora-Regular" font-size="24.0" fill="#000000" transform="matrix(1.00, 0.00, -0.00, -1.00, 606.0, 75.0)">n</text><text xml:space="preserve" font-family="Lora-Regular" font-size="24.0" fill="#000000" transform="matrix(1.00, 0.00, -0.00, -1.00, 620.6, 75.0)"> </text></g></svg>