<?xml version="1.0" encoding="UTF-8" standalone="no"?><svg xmlns="http://www.w3.org/2000/svg" xmlns:xlink="http://www.w3.org/1999/xlink" clip-rule="evenodd" stroke-miterlimit="4.00" viewBox="0 0 1024 768"><desc>SVG generated by Keynote</desc><defs></defs><g transform="matrix(1.00, 0.00, -0.00, -1.00, 0.0, 768.0)"><path d="M 0.0 768.0 L 1024.0 768.0 L 1024.0 0.0 L 0.0 0.0 Z M 0.0 768.0 " fill="#FEFFFF"></path><text xml:space="preserve" font-family="Lora-Regular" font-size="24.0" fill="#424142" transform="matrix(1.00, 0.00, -0.00, -1.00, 43.0, 382.0)">T</text><text xml:space="preserve" font-family="Lora-Regular" font-size="24.0" fill="#424142" transform="matrix(1.00, 0.00, -0.00, -1.00, 58.4, 382.0)">h</text><text xml:space="preserve" font-family="Lora-Regular" font-size="24.0" fill="#424142" transform="matrix(1.00, 0.00, -0.00, -1.00, 72.7, 382.0)">e</text><text xml:space="preserve" font-family="Lora-Regular" font-size="24.0" fill="#424142" transform="matrix(1.00, 0.00, -0.00, -1.00, 85.8, 382.0)">r</text><text xml:space="preserve" font-family="Lora-Regular" font-size="24.0" fill="#424142" transform="matrix(1.00, 0.00, -0.00, -1.00, 96.0, 382.0)">e</text><text xml:space="preserve" font-family="Lora-Regular" font-size="24.0" fill="#424142" transform="matrix(1.00, 0.00, -0.00, -1.00, 108.5, 382.0)">’</text><text xml:space="preserve" font-family="Lora-Regular" font-size="24.0" fill="#424142" transform="matrix(1.00, 0.00, -0.00, -1.00, 112.2, 382.0)">s</text><text xml:space="preserve" font-family="Lora-Regular" font-size="24.0" fill="#424142" transform="matrix(1.00, 0.00, -0.00, -1.00, 123.3, 382.0)"> </text><text xml:space="preserve" font-family="Lora-Regular" font-size="24.0" fill="#424142" transform="matrix(1.00, 0.00, -0.00, -1.00, 129.7, 382.0)">p</text><text xml:space="preserve" font-family="Lora-Regular" font-size="24.0" fill="#424142" transform="matrix(1.00, 0.00, -0.00, -1.00, 144.0, 382.0)">l</text><text xml:space="preserve" font-family="Lora-Regular" font-size="24.0" fill="#424142" transform="matrix(1.00, 0.00, -0.00, -1.00, 150.5, 382.0)">e</text><text xml:space="preserve" font-family="Lora-Regular" font-size="24.0" fill="#424142" transform="matrix(1.00, 0.00, -0.00, -1.00, 163.5, 382.0)">n</text><text xml:space="preserve" font-family="Lora-Regular" font-size="24.0" fill="#424142" transform="matrix(1.00, 0.00, -0.00, -1.00, 177.9, 382.0)">t</text><text xml:space="preserve" font-family="Lora-Regular" font-size="24.0" fill="#424142" transform="matrix(1.00, 0.00, -0.00, -1.00, 187.2, 382.0)">y</text><text xml:space="preserve" font-family="Lora-Regular" font-size="24.0" fill="#424142" transform="matrix(1.00, 0.00, -0.00, -1.00, 199.9, 382.0)"> </text><text xml:space="preserve" font-family="Lora-Regular" font-size="24.0" fill="#424142" transform="matrix(1.00, 0.00, -0.00, -1.00, 206.2, 382.0)">m</text><text xml:space="preserve" font-family="Lora-Regular" font-size="24.0" fill="#424142" transform="matrix(1.00, 0.00, -0.00, -1.00, 227.7, 382.0)">o</text><text xml:space="preserve" font-family="Lora-Regular" font-size="24.0" fill="#424142" transform="matrix(1.00, 0.00, -0.00, -1.00, 241.7, 382.0)">r</text><text xml:space="preserve" font-family="Lora-Regular" font-size="24.0" fill="#424142" transform="matrix(1.00, 0.00, -0.00, -1.00, 251.9, 382.0)">e</text><text xml:space="preserve" font-family="Lora-Regular" font-size="24.0" fill="#424142" transform="matrix(1.00, 0.00, -0.00, -1.00, 265.0, 382.0)"> </text><text xml:space="preserve" font-family="Lora-Regular" font-size="24.0" fill="#424142" transform="matrix(1.00, 0.00, -0.00, -1.00, 271.3, 382.0)">t</text><text xml:space="preserve" font-family="Lora-Regular" font-size="24.0" fill="#424142" transform="matrix(1.00, 0.00, -0.00, -1.00, 280.6, 382.0)">o</text><text xml:space="preserve" font-family="Lora-Regular" font-size="24.0" fill="#424142" transform="matrix(1.00, 0.00, -0.00, -1.00, 294.6, 382.0)"> </text><text xml:space="preserve" font-family="Lora-Regular" font-size="24.0" fill="#424142" transform="matrix(1.00, 0.00, -0.00, -1.00, 300.9, 382.0)">s</text><text xml:space="preserve" font-family="Lora-Regular" font-size="24.0" fill="#424142" transform="matrix(1.00, 0.00, -0.00, -1.00, 312.0, 382.0)">e</text><text xml:space="preserve" font-family="Lora-Regular" font-size="24.0" fill="#424142" transform="matrix(1.00, 0.00, -0.00, -1.00, 324.9, 382.0)">e</text><text xml:space="preserve" font-family="Lora-Regular" font-size="24.0" fill="#424142" transform="matrix(1.00, 0.00, -0.00, -1.00, 337.9, 382.0)">.</text><text xml:space="preserve" font-family="Lora-Regular" font-size="24.0" fill="#424142" transform="matrix(1.00, 0.00, -0.00, -1.00, 343.9, 382.0)"> </text><text xml:space="preserve" font-family="Lora-Regular" font-size="24.0" fill="#424142" transform="matrix(1.00, 0.00, -0.00, -1.00, 350.2, 382.0)">C</text><text xml:space="preserve" font-family="Lora-Regular" font-size="24.0" fill="#424142" transform="matrix(1.00, 0.00, -0.00, -1.00, 367.0, 382.0)">o</text><text xml:space="preserve" font-family="Lora-Regular" font-size="24.0" fill="#424142" transform="matrix(1.00, 0.00, -0.00, -1.00, 381.0, 382.0)">n</text><text xml:space="preserve" font-family="Lora-Regular" font-size="24.0" fill="#424142" transform="matrix(1.00, 0.00, -0.00, -1.00, 395.3, 382.0)">t</text><text xml:space="preserve" font-family="Lora-Regular" font-size="24.0" fill="#424142" transform="matrix(1.00, 0.00, -0.00, -1.00, 404.6, 382.0)">a</text><text xml:space="preserve" font-family="Lora-Regular" font-size="24.0" fill="#424142" transform="matrix(1.00, 0.00, -0.00, -1.00, 417.0, 382.0)">c</text><text xml:space="preserve" font-family="Lora-Regular" font-size="24.0" fill="#424142" transform="matrix(1.00, 0.00, -0.00, -1.00, 429.7, 382.0)">t</text><text xml:space="preserve" font-family="Lora-Regular" font-size="24.0" fill="#424142" transform="matrix(1.00, 0.00, -0.00, -1.00, 439.0, 382.0)"> </text><text xml:space="preserve" font-family="Lora-Regular" font-size="24.0" fill="#424142" transform="matrix(1.00, 0.00, -0.00, -1.00, 445.3, 382.0)">m</text><text xml:space="preserve" font-family="Lora-Regular" font-size="24.0" fill="#424142" transform="matrix(1.00, 0.00, -0.00, -1.00, 466.8, 382.0)">e</text><text xml:space="preserve" font-family="Lora-Regular" font-size="24.0" fill="#424142" transform="matrix(1.00, 0.00, -0.00, -1.00, 479.8, 382.0)"> </text><text xml:space="preserve" font-family="Lora-Regular" font-size="24.0" fill="#424142" transform="matrix(1.00, 0.00, -0.00, -1.00, 486.1, 382.0)">a</text><text xml:space="preserve" font-family="Lora-Regular" font-size="24.0" fill="#424142" transform="matrix(1.00, 0.00, -0.00, -1.00, 498.3, 382.0)">t</text><text xml:space="preserve" font-family="Lora-Regular" font-size="24.0" fill="#424142" transform="matrix(1.00, 0.00, -0.00, -1.00, 507.6, 382.0)"> </text><text xml:space="preserve" font-family="Lora-Bold" font-weight="bold" font-size="24.0" fill="#424142" transform="matrix(1.00, 0.00, -0.00, -1.00, 513.9, 382.0)">y</text><text xml:space="preserve" font-family="Lora-Bold" font-weight="bold" font-size="24.0" fill="#424142" transform="matrix(1.00, 0.00, -0.00, -1.00, 526.9, 382.0)">e</text><text xml:space="preserve" font-family="Lora-Bold" font-weight="bold" font-size="24.0" fill="#424142" transform="matrix(1.00, 0.00, -0.00, -1.00, 539.8, 382.0)">s</text><text xml:space="preserve" font-family="Lora-Bold" font-weight="bold" font-size="24.0" fill="#424142" transform="matrix(1.00, 0.00, -0.00, -1.00, 551.4, 382.0)">e</text><text xml:space="preserve" font-family="Lora-Bold" font-weight="bold" font-size="24.0" fill="#424142" transform="matrix(1.00, 0.00, -0.00, -1.00, 564.3, 382.0)">n</text><text xml:space="preserve" font-family="Lora-Bold" font-weight="bold" font-size="24.0" fill="#424142" transform="matrix(1.00, 0.00, -0.00, -1.00, 579.6, 382.0)">i</text><text xml:space="preserve" font-family="Lora-Bold" font-weight="bold" font-size="24.0" fill="#424142" transform="matrix(1.00, 0.00, -0.00, -1.00, 587.5, 382.0)">a</text><text xml:space="preserve" font-family="Lora-Bold" font-weight="bold" font-size="24.0" fill="#424142" transform="matrix(1.00, 0.00, -0.00, -1.00, 600.1, 382.0)">.</text><text xml:space="preserve" font-family="Lora-Bold" font-weight="bold" font-size="24.0" fill="#424142" transform="matrix(1.00, 0.00, -0.00, -1.00, 605.5, 382.0)">j</text><text xml:space="preserve" font-family="Lora-Bold" font-weight="bold" font-size="24.0" fill="#424142" transform="matrix(1.00, 0.00, -0.00, -1.00, 612.5, 382.0)">.</text><text xml:space="preserve" font-family="Lora-Bold" font-weight="bold" font-size="24.0" fill="#424142" transform="matrix(1.00, 0.00, -0.00, -1.00, 618.1, 382.0)">d</text><text xml:space="preserve" font-family="Lora-Bold" font-weight="bold" font-size="24.0" fill="#424142" transform="matrix(1.00, 0.00, -0.00, -1.00, 632.5, 382.0)">e</text><text xml:space="preserve" font-family="Lora-Bold" font-weight="bold" font-size="24.0" fill="#424142" transform="matrix(1.00, 0.00, -0.00, -1.00, 645.4, 382.0)">l</text><text xml:space="preserve" font-family="Lora-Bold" font-weight="bold" font-size="24.0" fill="#424142" transform="matrix(1.00, 0.00, -0.00, -1.00, 652.9, 382.0)">e</text><text xml:space="preserve" font-family="Lora-Bold" font-weight="bold" font-size="24.0" fill="#424142" transform="matrix(1.00, 0.00, -0.00, -1.00, 665.8, 382.0)">o</text><text xml:space="preserve" font-family="Lora-Bold" font-weight="bold" font-size="24.0" fill="#424142" transform="matrix(1.00, 0.00, -0.00, -1.00, 679.4, 382.0)">n</text><text xml:space="preserve" font-family="Lora-Bold" font-weight="bold" font-size="24.0" fill="#424142" transform="matrix(1.00, 0.00, -0.00, -1.00, 694.6, 382.0)">@</text><text xml:space="preserve" font-family="Lora-Bold" font-weight="bold" font-size="24.0" fill="#424142" transform="matrix(1.00, 0.00, -0.00, -1.00, 713.7, 382.0)">g</text><text xml:space="preserve" font-family="Lora-Bold" font-weight="bold" font-size="24.0" fill="#424142" transform="matrix(1.00, 0.00, -0.00, -1.00, 727.0, 382.0)">m</text><text xml:space="preserve" font-family="Lora-Bold" font-weight="bold" font-size="24.0" fill="#424142" transform="matrix(1.00, 0.00, -0.00, -1.00, 749.1, 382.0)">a</text><text xml:space="preserve" font-family="Lora-Bold" font-weight="bold" font-size="24.0" fill="#424142" transform="matrix(1.00, 0.00, -0.00, -1.00, 761.7, 382.0)">i</text><text xml:space="preserve" font-family="Lora-Bold" font-weight="bold" font-size="24.0" fill="#424142" transform="matrix(1.00, 0.00, -0.00, -1.00, 769.6, 382.0)">l</text><text xml:space="preserve" font-family="Lora-Bold" font-weight="bold" font-size="24.0" fill="#424142" transform="matrix(1.00, 0.00, -0.00, -1.00, 777.0, 382.0)">.</text><text xml:space="preserve" font-family="Lora-Bold" font-weight="bold" font-size="24.0" fill="#424142" transform="matrix(1.00, 0.00, -0.00, -1.00, 782.7, 382.0)">c</text><text xml:space="preserve" font-family="Lora-Bold" font-weight="bold" font-size="24.0" fill="#424142" transform="matrix(1.00, 0.00, -0.00, -1.00, 795.1, 382.0)">o</text><text xml:space="preserve" font-family="Lora-Bold" font-weight="bold" font-size="24.0" fill="#424142" transform="matrix(1.00, 0.00, -0.00, -1.00, 808.7, 382.0)">m</text><text xml:space="preserve" font-family="Lora-Regular" font-size="24.0" fill="#424142" transform="matrix(1.00, 0.00, -0.00, -1.00, 830.7, 382.0)"> </text><text xml:space="preserve" font-family="Lora-Regular" font-size="24.0" fill="#424142" transform="matrix(1.00, 0.00, -0.00, -1.00, 837.0, 382.0)">t</text><text xml:space="preserve" font-family="Lora-Regular" font-size="24.0" fill="#424142" transform="matrix(1.00, 0.00, -0.00, -1.00, 846.3, 382.0)">o</text><text xml:space="preserve" font-family="Lora-Regular" font-size="24.0" fill="#424142" transform="matrix(1.00, 0.00, -0.00, -1.00, 860.3, 382.0)"> </text><text xml:space="preserve" font-family="Lora-Regular" font-size="24.0" fill="#424142" transform="matrix(1.00, 0.00, -0.00, -1.00, 866.7, 382.0)">s</text><text xml:space="preserve" font-family="Lora-Regular" font-size="24.0" fill="#424142" transform="matrix(1.00, 0.00, -0.00, -1.00, 877.8, 382.0)">e</text><text xml:space="preserve" font-family="Lora-Regular" font-size="24.0" fill="#424142" transform="matrix(1.00, 0.00, -0.00, -1.00, 890.6, 382.0)">t</text><text xml:space="preserve" font-family="Lora-Regular" font-size="24.0" fill="#424142" transform="matrix(1.00, 0.00, -0.00, -1.00, 899.9, 382.0)"> </text><text xml:space="preserve" font-family="Lora-Regular" font-size="24.0" fill="#424142" transform="matrix(1.00, 0.00, -0.00, -1.00, 906.2, 382.0)">u</text><text xml:space="preserve" font-family="Lora-Regular" font-size="24.0" fill="#424142" transform="matrix(1.00, 0.00, -0.00, -1.00, 920.6, 382.0)">p</text><text xml:space="preserve" font-family="Lora-Regular" font-size="24.0" fill="#424142" transform="matrix(1.00, 0.00, -0.00, -1.00, 934.9, 382.0)"> </text><text xml:space="preserve" font-family="Lora-Regular" font-size="24.0" fill="#424142" transform="matrix(1.00, 0.00, -0.00, -1.00, 43.0, 353.0)">s</text><text xml:space="preserve" font-family="Lora-Regular" font-size="24.0" fill="#424142" transform="matrix(1.00, 0.00, -0.00, -1.00, 54.1, 353.0)">o</text><text xml:space="preserve" font-family="Lora-Regular" font-size="24.0" fill="#424142" transform="matrix(1.00, 0.00, -0.00, -1.00, 68.1, 353.0)">m</text><text xml:space="preserve" font-family="Lora-Regular" font-size="24.0" fill="#424142" transform="matrix(1.00, 0.00, -0.00, -1.00, 89.6, 353.0)">e</text><text xml:space="preserve" font-family="Lora-Regular" font-size="24.0" fill="#424142" transform="matrix(1.00, 0.00, -0.00, -1.00, 102.6, 353.0)"> </text><text xml:space="preserve" font-family="Lora-Regular" font-size="24.0" fill="#424142" transform="matrix(1.00, 0.00, -0.00, -1.00, 108.9, 353.0)">t</text><text xml:space="preserve" font-family="Lora-Regular" font-size="24.0" fill="#424142" transform="matrix(1.00, 0.00, -0.00, -1.00, 118.2, 353.0)">i</text><text xml:space="preserve" font-family="Lora-Regular" font-size="24.0" fill="#424142" transform="matrix(1.00, 0.00, -0.00, -1.00, 125.0, 353.0)">m</text><text xml:space="preserve" font-family="Lora-Regular" font-size="24.0" fill="#424142" transform="matrix(1.00, 0.00, -0.00, -1.00, 146.4, 353.0)">e</text><text xml:space="preserve" font-family="Lora-Regular" font-size="24.0" fill="#424142" transform="matrix(1.00, 0.00, -0.00, -1.00, 159.4, 353.0)"> </text><text xml:space="preserve" font-family="Lora-Regular" font-size="24.0" fill="#424142" transform="matrix(1.00, 0.00, -0.00, -1.00, 165.7, 353.0)">t</text><text xml:space="preserve" font-family="Lora-Regular" font-size="24.0" fill="#424142" transform="matrix(1.00, 0.00, -0.00, -1.00, 175.0, 353.0)">o</text><text xml:space="preserve" font-family="Lora-Regular" font-size="24.0" fill="#424142" transform="matrix(1.00, 0.00, -0.00, -1.00, 189.1, 353.0)"> </text><text xml:space="preserve" font-family="Lora-Regular" font-size="24.0" fill="#424142" transform="matrix(1.00, 0.00, -0.00, -1.00, 195.4, 353.0)">l</text><text xml:space="preserve" font-family="Lora-Regular" font-size="24.0" fill="#424142" transform="matrix(1.00, 0.00, -0.00, -1.00, 201.9, 353.0)">o</text><text xml:space="preserve" font-family="Lora-Regular" font-size="24.0" fill="#424142" transform="matrix(1.00, 0.00, -0.00, -1.00, 216.0, 353.0)">o</text><text xml:space="preserve" font-family="Lora-Regular" font-size="24.0" fill="#424142" transform="matrix(1.00, 0.00, -0.00, -1.00, 230.0, 353.0)">k</text><text xml:space="preserve" font-family="Lora-Regular" font-size="24.0" fill="#424142" transform="matrix(1.00, 0.00, -0.00, -1.00, 242.9, 353.0)"> </text><text xml:space="preserve" font-family="Lora-Regular" font-size="24.0" fill="#424142" transform="matrix(1.00, 0.00, -0.00, -1.00, 249.2, 353.0)">a</text><text xml:space="preserve" font-family="Lora-Regular" font-size="24.0" fill="#424142" transform="matrix(1.00, 0.00, -0.00, -1.00, 261.4, 353.0)">t</text><text xml:space="preserve" font-family="Lora-Regular" font-size="24.0" fill="#424142" transform="matrix(1.00, 0.00, -0.00, -1.00, 270.7, 353.0)"> </text><text xml:space="preserve" font-family="Lora-Regular" font-size="24.0" fill="#424142" transform="matrix(1.00, 0.00, -0.00, -1.00, 277.0, 353.0)">t</text><text xml:space="preserve" font-family="Lora-Regular" font-size="24.0" fill="#424142" transform="matrix(1.00, 0.00, -0.00, -1.00, 286.3, 353.0)">h</text><text xml:space="preserve" font-family="Lora-Regular" font-size="24.0" fill="#424142" transform="matrix(1.00, 0.00, -0.00, -1.00, 300.7, 353.0)">e</text><text xml:space="preserve" font-family="Lora-Regular" font-size="24.0" fill="#424142" transform="matrix(1.00, 0.00, -0.00, -1.00, 313.7, 353.0)"> </text><text xml:space="preserve" font-family="Lora-Regular" font-size="24.0" fill="#424142" transform="matrix(1.00, 0.00, -0.00, -1.00, 320.1, 353.0)">r</text><text xml:space="preserve" font-family="Lora-Regular" font-size="24.0" fill="#424142" transform="matrix(1.00, 0.00, -0.00, -1.00, 330.3, 353.0)">e</text><text xml:space="preserve" font-family="Lora-Regular" font-size="24.0" fill="#424142" transform="matrix(1.00, 0.00, -0.00, -1.00, 343.3, 353.0)">s</text><text xml:space="preserve" font-family="Lora-Regular" font-size="24.0" fill="#424142" transform="matrix(1.00, 0.00, -0.00, -1.00, 354.4, 353.0)">t</text><text xml:space="preserve" font-family="Lora-Regular" font-size="24.0" fill="#424142" transform="matrix(1.00, 0.00, -0.00, -1.00, 363.7, 353.0)"> </text><text xml:space="preserve" font-family="Lora-Regular" font-size="24.0" fill="#424142" transform="matrix(1.00, 0.00, -0.00, -1.00, 370.0, 353.0)">o</text><text xml:space="preserve" font-family="Lora-Regular" font-size="24.0" fill="#424142" transform="matrix(1.00, 0.00, -0.00, -1.00, 383.9, 353.0)">f</text><text xml:space="preserve" font-family="Lora-Regular" font-size="24.0" fill="#424142" transform="matrix(1.00, 0.00, -0.00, -1.00, 392.0, 353.0)"> </text><text xml:space="preserve" font-family="Lora-Regular" font-size="24.0" fill="#424142" transform="matrix(1.00, 0.00, -0.00, -1.00, 398.4, 353.0)">m</text><text xml:space="preserve" font-family="Lora-Regular" font-size="24.0" fill="#424142" transform="matrix(1.00, 0.00, -0.00, -1.00, 419.6, 353.0)">y</text><text xml:space="preserve" font-family="Lora-Regular" font-size="24.0" fill="#424142" transform="matrix(1.00, 0.00, -0.00, -1.00, 432.3, 353.0)"> </text><text xml:space="preserve" font-family="Lora-Regular" font-size="24.0" fill="#424142" transform="matrix(1.00, 0.00, -0.00, -1.00, 438.6, 353.0)">w</text><text xml:space="preserve" font-family="Lora-Regular" font-size="24.0" fill="#424142" transform="matrix(1.00, 0.00, -0.00, -1.00, 457.5, 353.0)">o</text><text xml:space="preserve" font-family="Lora-Regular" font-size="24.0" fill="#424142" transform="matrix(1.00, 0.00, -0.00, -1.00, 471.6, 353.0)">r</text><text xml:space="preserve" font-family="Lora-Regular" font-size="24.0" fill="#424142" transform="matrix(1.00, 0.00, -0.00, -1.00, 481.9, 353.0)">k</text><text xml:space="preserve" font-family="Lora-Regular" font-size="24.0" fill="#424142" transform="matrix(1.00, 0.00, -0.00, -1.00, 494.8, 353.0)">.</text><text xml:space="preserve" font-family="Lora-Regular" font-size="24.0" fill="#424142" transform="matrix(1.00, 0.00, -0.00, -1.00, 500.7, 353.0)"> </text><text xml:space="preserve" font-family="BebasNeueRegular" font-size="80.0" fill="#000000" transform="matrix(1.00, 0.00, -0.00, -1.00, 38.0, 618.0)">w</text><text xml:space="preserve" font-family="BebasNeueRegular" font-size="80.0" fill="#000000" transform="matrix(1.00, 0.00, -0.00, -1.00, 83.4, 618.0)">A</text><text xml:space="preserve" font-family="BebasNeueRegular" font-size="80.0" fill="#000000" transform="matrix(1.00, 0.00, -0.00, -1.00, 117.2, 618.0)">I</text><text xml:space="preserve" font-family="BebasNeueRegular" font-size="80.0" fill="#000000" transform="matrix(1.00, 0.00, -0.00, -1.00, 129.8, 618.0)">T</text><text xml:space="preserve" font-family="BebasNeueRegular" font-size="80.0" fill="#000000" transform="matrix(1.00, 0.00, -0.00, -1.00, 154.1, 618.0)">,</text><text xml:space="preserve" font-family="BebasNeueRegular" font-size="80.0" fill="#000000" transform="matrix(1.00, 0.00, -0.00, -1.00, 166.9, 618.0)"> </text><text xml:space="preserve" font-family="BebasNeueRegular" font-size="80.0" fill="#000000" transform="matrix(1.00, 0.00, -0.00, -1.00, 179.3, 618.0)">T</text><text xml:space="preserve" font-family="BebasNeueRegular" font-size="80.0" fill="#000000" transform="matrix(1.00, 0.00, -0.00, -1.00, 208.3, 618.0)">H</text><text xml:space="preserve" font-family="BebasNeueRegular" font-size="80.0" fill="#000000" transform="matrix(1.00, 0.00, -0.00, -1.00, 241.0, 618.0)">A</text><text xml:space="preserve" font-family="BebasNeueRegular" font-size="80.0" fill="#000000" transform="matrix(1.00, 0.00, -0.00, -1.00, 274.7, 618.0)">T</text><text xml:space="preserve" font-family="BebasNeueRegular" font-size="80.0" fill="#000000" transform="matrix(1.00, 0.00, -0.00, -1.00, 303.8, 618.0)">S</text><text xml:space="preserve" font-family="BebasNeueRegular" font-size="80.0" fill="#000000" transform="matrix(1.00, 0.00, -0.00, -1.00, 333.5, 618.0)"> </text><text xml:space="preserve" font-family="BebasNeueRegular" font-size="80.0" fill="#000000" transform="matrix(1.00, 0.00, -0.00, -1.00, 345.9, 618.0)">I</text><text xml:space="preserve" font-family="BebasNeueRegular" font-size="80.0" fill="#000000" transform="matrix(1.00, 0.00, -0.00, -1.00, 358.6, 618.0)">T</text><text xml:space="preserve" font-family="BebasNeueRegular" font-size="80.0" fill="#000000" transform="matrix(1.00, 0.00, -0.00, -1.00, 387.6, 618.0)">?</text></g></svg>