<?xml version="1.0" encoding="UTF-8" standalone="no"?><svg xmlns="http://www.w3.org/2000/svg" xmlns:xlink="http://www.w3.org/1999/xlink" clip-rule="evenodd" stroke-miterlimit="4.00" viewBox="0 0 1024 768"><desc>SVG generated by Keynote</desc><defs><linearGradient id="gradSh3.9" x1="705.0" y1="0.0" x2="705.0" y2="940.0" gradientUnits="userSpaceOnUse" gradientTransform="matrix(0.82, 0.00, 0.00, -0.82, -66.7, 770.4)"><stop offset="0.00000" stop-color="#FFB7E5"></stop><stop offset="0.01320" stop-color="#FEB7E5"></stop><stop offset="1.00000" stop-color="#D8ABFA"></stop></linearGradient><linearGradient id="gradSh1.10" x1="0.0" y1="0.0" x2="0.0" y2="1024.0" gradientUnits="userSpaceOnUse" gradientTransform="matrix(0.82, 0.00, 0.00, -0.82, 113.6, 770.4)"><stop offset="0.00000" stop-color="#FFB7E5"></stop><stop offset="0.01320" stop-color="#FEB7E5"></stop><stop offset="1.00000" stop-color="#D8ABFA"></stop></linearGradient><linearGradient id="gradSh2.11" x1="470.0" y1="0.0" x2="470.0" y2="940.0" gradientUnits="userSpaceOnUse" gradientTransform="matrix(0.82, 0.00, 0.00, -0.82, 113.6, 770.4)"><stop offset="0.00000" stop-color="#FFB7E5"></stop><stop offset="0.01320" stop-color="#FEB7E5"></stop><stop offset="1.00000" stop-color="#D8ABFA"></stop></linearGradient></defs><g transform="matrix(1.00, 0.00, -0.00, -1.00, 0.0, 768.0)"><image xlink:href="../../137D154B-BF5E-40C8-99D0-B86DC5C22734/assets/D524D94BC2B0EAA5236D0DA9A7456393.png" width="1040.00" height="776.00" transform="matrix(1.00, 0.00, -0.00, -1.00, -8.0, 772.0)"></image><g><clipPath id="clip-26"><path d="M -70.0 -4.0 L 1092.0 -4.0 L 1092.0 772.0 L -70.0 772.0 Z M -70.0 -4.0 "></path></clipPath><g clip-path="url(#clip-26)"><g><g><clipPath id="clip-27"><path d="M -66.7 770.4 L 1088.7 770.4 L 1088.7 0.9 L -66.7 0.9 L -66.7 770.4 Z M -66.7 770.4 "></path></clipPath><g clip-path="url(#clip-27)"><g><clipPath id="clip-28"><path d="M -4.0 0.9 L 1028.0 0.9 L 1028.0 770.4 L -4.0 770.4 Z M -4.0 0.9 "></path></clipPath><g clip-path="url(#clip-28)"><path d="M -4.0 0.9 L 1028.0 0.9 L 1028.0 770.4 L -4.0 770.4 Z M -4.0 0.9 " fill="url(#gradSh3.9)"></path></g></g></g></g></g></g></g><g><clipPath id="clip-29"><path d="M 113.6 770.4 L 883.9 770.4 L 883.9 0.9 L 113.6 0.9 L 113.6 770.4 Z M 113.6 770.4 "></path></clipPath><g clip-path="url(#clip-29)"><g><clipPath id="clip-30"><path d="M -70.0 -4.0 L 1092.0 -4.0 L 1092.0 772.0 L -70.0 772.0 Z M -70.0 -4.0 "></path></clipPath><g clip-path="url(#clip-30)"><path d="M -70.0 -4.0 L 1092.0 -4.0 L 1092.0 772.0 L -70.0 772.0 Z M -70.0 -4.0 " fill="url(#gradSh1.10)"></path><path d="M -70.0 -4.0 L 1092.0 -4.0 L 1092.0 772.0 L -70.0 772.0 Z M -70.0 -4.0 " fill="url(#gradSh2.11)"></path></g></g></g></g><g><clipPath id="clip-31"><path d="M -70.0 -4.0 L 1092.0 -4.0 L 1092.0 772.0 L -70.0 772.0 Z M -70.0 -4.0 "></path></clipPath><g clip-path="url(#clip-31)"><text xml:space="preserve" font-family="Futura-Medium" font-size="64.0" fill="#FEFFFF" transform="matrix(0.82, 0.00, -0.00, -0.82, 185.2, 280.0)">6</text><text xml:space="preserve" font-family="Futura-Medium" font-size="64.0" fill="#FEFFFF" transform="matrix(0.82, 0.00, -0.00, -0.82, 217.5, 280.0)">.</text><image xlink:href="../../E34A7F74-70C2-414E-AACF-0D613011D1AB/assets/17F757144839032C2DCC2E3C8EF6A39E.png" width="533.00" height="900.00" transform="matrix(0.64, 0.00, -0.00, -0.64, 166.0, 925.1)"></image><image xlink:href="../../E34A7F74-70C2-414E-AACF-0D613011D1AB/assets/0842C5478B3325DF3D742DA177A2F215.png" width="533.00" height="900.00" transform="matrix(0.65, 0.00, -0.00, -0.65, 279.1, 928.3)"></image><image xlink:href="../../E34A7F74-70C2-414E-AACF-0D613011D1AB/assets/CB6645CED869459CA01E816C8CF711C4.png" width="533.00" height="900.00" transform="matrix(0.65, 0.00, -0.00, -0.64, 396.3, 928.3)"></image><image xlink:href="../../E34A7F74-70C2-414E-AACF-0D613011D1AB/assets/BDE2FF21A154EB0A996080A5F0474F88.png" width="533.00" height="900.00" transform="matrix(0.62, 0.00, -0.00, -0.62, 518.4, 906.2)"></image><image xlink:href="../../E34A7F74-70C2-414E-AACF-0D613011D1AB/assets/BA032F53632D534520D41093059C1F79.png" width="270.00" height="624.00" transform="matrix(0.65, 0.00, -0.00, -0.63, 642.9, 740.1)"></image><image xlink:href="../../E34A7F74-70C2-414E-AACF-0D613011D1AB/assets/814E195A58B2F6A0D3ED77E488580854.png" width="548.00" height="1214.00" transform="matrix(0.28, 0.00, -0.00, -0.25, 174.2, 325.9)"></image><image xlink:href="../../E34A7F74-70C2-414E-AACF-0D613011D1AB/assets/B3003252C0F57EEC1F20053B672CDB0E.png" width="533.00" height="900.00" transform="matrix(0.52, 0.00, -0.00, -0.52, 279.1, 494.5)"></image><text xml:space="preserve" font-family="Futura-Medium" font-size="64.0" fill="#FEFFFF" transform="matrix(0.82, 0.00, -0.00, -0.82, 295.0, 303.0)">7</text><text xml:space="preserve" font-family="Futura-Medium" font-size="64.0" fill="#FEFFFF" transform="matrix(0.82, 0.00, -0.00, -0.82, 320.0, 303.0)">.</text><image xlink:href="../../E34A7F74-70C2-414E-AACF-0D613011D1AB/assets/8BAA90EDD9521850B78782259DB54593.png" width="533.00" height="900.00" transform="matrix(0.41, 0.00, -0.00, -0.41, 386.4, 393.8)"></image><text xml:space="preserve" font-family="Futura-Medium" font-size="64.0" fill="#FEFFFF" transform="matrix(0.82, 0.00, -0.00, -0.82, 429.4, 265.3)">8</text><text xml:space="preserve" font-family="Futura-Medium" font-size="64.0" fill="#FEFFFF" transform="matrix(0.82, 0.00, -0.00, -0.82, 461.7, 265.3)">.</text><image xlink:href="../../E34A7F74-70C2-414E-AACF-0D613011D1AB/assets/17FC04685230E20EEA3043183558E1F7.png" width="533.00" height="900.00" transform="matrix(0.43, 0.00, -0.00, -0.43, 581.5, 415.9)"></image><image xlink:href="../../E34A7F74-70C2-414E-AACF-0D613011D1AB/assets/B56845FDBA4BCBA1DDDCD7AC38709064.png" width="533.00" height="900.00" transform="matrix(0.48, 0.00, -0.00, -0.48, 653.6, 451.1)"></image><text xml:space="preserve" font-family="Futura-Medium" font-size="64.0" fill="#FEFFFF" transform="matrix(0.82, 0.00, -0.00, -0.82, 690.5, 304.6)">1</text><text xml:space="preserve" font-family="Futura-Medium" font-size="64.0" fill="#FEFFFF" transform="matrix(0.82, 0.00, -0.00, -0.82, 719.7, 304.6)">0</text><text xml:space="preserve" font-family="Futura-Medium" font-size="64.0" fill="#FEFFFF" transform="matrix(0.82, 0.00, -0.00, -0.82, 752.1, 304.6)">.</text><text xml:space="preserve" font-family="Futura-Medium" font-size="64.0" fill="#FEFFFF" transform="matrix(0.82, 0.00, -0.00, -0.82, 608.0, 269.4)">9</text><text xml:space="preserve" font-family="Futura-Medium" font-size="64.0" fill="#FEFFFF" transform="matrix(0.82, 0.00, -0.00, -0.82, 640.4, 269.4)">.</text><text xml:space="preserve" font-family="Futura-Medium" font-size="64.0" fill="#FEFFFF" transform="matrix(0.82, 0.00, -0.00, -0.82, 176.1, 658.2)">1</text><text xml:space="preserve" font-family="Futura-Medium" font-size="64.0" fill="#FEFFFF" transform="matrix(0.82, 0.00, -0.00, -0.82, 205.3, 658.2)">.</text><text xml:space="preserve" font-family="Futura-Medium" font-size="64.0" fill="#FEFFFF" transform="matrix(0.82, 0.00, -0.00, -0.82, 536.7, 656.6)">4</text><text xml:space="preserve" font-family="Futura-Medium" font-size="64.0" fill="#FEFFFF" transform="matrix(0.82, 0.00, -0.00, -0.82, 569.1, 656.6)">.</text><text xml:space="preserve" font-family="Futura-Medium" font-size="64.0" fill="#FEFFFF" transform="matrix(0.82, 0.00, -0.00, -0.82, 304.8, 657.4)">2</text><text xml:space="preserve" font-family="Futura-Medium" font-size="64.0" fill="#FEFFFF" transform="matrix(0.82, 0.00, -0.00, -0.82, 337.2, 657.4)">.</text><text xml:space="preserve" font-family="Futura-Medium" font-size="64.0" fill="#FEFFFF" transform="matrix(0.82, 0.00, -0.00, -0.82, 421.2, 657.4)">3</text><text xml:space="preserve" font-family="Futura-Medium" font-size="64.0" fill="#FEFFFF" transform="matrix(0.82, 0.00, -0.00, -0.82, 453.5, 657.4)">.</text><text xml:space="preserve" font-family="Futura-Medium" font-size="64.0" fill="#FEFFFF" transform="matrix(0.82, 0.00, -0.00, -0.82, 651.4, 656.6)">5</text><text xml:space="preserve" font-family="Futura-Medium" font-size="64.0" fill="#FEFFFF" transform="matrix(0.82, 0.00, -0.00, -0.82, 683.8, 656.6)">.</text></g></g></g></svg>