<?xml version="1.0" encoding="UTF-8" standalone="no"?><svg xmlns="http://www.w3.org/2000/svg" xmlns:xlink="http://www.w3.org/1999/xlink" clip-rule="evenodd" stroke-miterlimit="4.00" viewBox="0 0 1024 768"><desc>SVG generated by Keynote</desc><defs><linearGradient id="gradSh3.12" x1="705.0" y1="0.0" x2="705.0" y2="940.0" gradientUnits="userSpaceOnUse" gradientTransform="matrix(0.83, 0.00, 0.00, -0.83, -73.7, 776.3)"><stop offset="0.00000" stop-color="#FFB7E5"></stop><stop offset="0.01320" stop-color="#FEB7E5"></stop><stop offset="1.00000" stop-color="#D8ABFA"></stop></linearGradient><linearGradient id="gradSh1.13" x1="0.0" y1="0.0" x2="0.0" y2="1024.0" gradientUnits="userSpaceOnUse" gradientTransform="matrix(0.83, 0.00, 0.00, -0.83, 123.2, 771.4)"><stop offset="0.00000" stop-color="#FFB7E5"></stop><stop offset="0.01320" stop-color="#FEB7E5"></stop><stop offset="1.00000" stop-color="#D8ABFA"></stop></linearGradient><linearGradient id="gradSh2.14" x1="470.0" y1="0.0" x2="470.0" y2="940.0" gradientUnits="userSpaceOnUse" gradientTransform="matrix(0.83, 0.00, 0.00, -0.83, 123.2, 771.4)"><stop offset="0.00000" stop-color="#FFB7E5"></stop><stop offset="0.01320" stop-color="#FEB7E5"></stop><stop offset="1.00000" stop-color="#D8ABFA"></stop></linearGradient></defs><g transform="matrix(1.00, 0.00, -0.00, -1.00, 0.0, 768.0)"><image xlink:href="A79BFADF5329AD5484D60F7155147C94.png" width="1040.00" height="785.00" transform="matrix(1.00, 0.00, -0.00, -1.00, -8.0, 775.0)"></image><g><clipPath id="clip-32"><path d="M -77.0 -10.0 L 1101.0 -10.0 L 1101.0 778.0 L -77.0 778.0 Z M -77.0 -10.0 "></path></clipPath><g clip-path="url(#clip-32)"><g><g><clipPath id="clip-33"><path d="M -73.7 776.3 L 1097.7 776.3 L 1097.7 -5.0 L -73.7 -5.0 L -73.7 776.3 Z M -73.7 776.3 "></path></clipPath><g clip-path="url(#clip-33)"><g><clipPath id="clip-34"><path d="M -4.0 -5.0 L 1028.0 -5.0 L 1028.0 773.0 L -4.0 773.0 Z M -4.0 -5.0 "></path></clipPath><g clip-path="url(#clip-34)"><path d="M -4.0 -5.0 L 1028.0 -5.0 L 1028.0 773.0 L -4.0 773.0 Z M -4.0 -5.0 " fill="url(#gradSh3.12)"></path></g></g></g></g></g></g></g><g><clipPath id="clip-35"><path d="M 123.2 771.4 L 904.1 771.4 L 904.1 -10.0 L 123.2 -10.0 L 123.2 771.4 Z M 123.2 771.4 "></path></clipPath><g clip-path="url(#clip-35)"><g><clipPath id="clip-36"><path d="M -77.0 -10.0 L 1101.0 -10.0 L 1101.0 778.0 L -77.0 778.0 Z M -77.0 -10.0 "></path></clipPath><g clip-path="url(#clip-36)"><path d="M -77.0 -10.0 L 1101.0 -10.0 L 1101.0 778.0 L -77.0 778.0 Z M -77.0 -10.0 " fill="url(#gradSh1.13)"></path><path d="M -77.0 -10.0 L 1101.0 -10.0 L 1101.0 778.0 L -77.0 778.0 Z M -77.0 -10.0 " fill="url(#gradSh2.14)"></path></g></g></g></g><g><clipPath id="clip-37"><path d="M -77.0 -10.0 L 1101.0 -10.0 L 1101.0 778.0 L -77.0 778.0 Z M -77.0 -10.0 "></path></clipPath><g clip-path="url(#clip-37)"><text xml:space="preserve" font-family="Futura-Medium" font-size="64.0" fill="#FEFFFF" transform="matrix(0.83, 0.00, -0.00, -0.83, 793.7, 266.8)">2</text><text xml:space="preserve" font-family="Futura-Medium" font-size="64.0" fill="#FEFFFF" transform="matrix(0.83, 0.00, -0.00, -0.83, 826.6, 266.8)">0</text><text xml:space="preserve" font-family="Futura-Medium" font-size="64.0" fill="#FEFFFF" transform="matrix(0.83, 0.00, -0.00, -0.83, 859.4, 266.8)">.</text><text xml:space="preserve" font-family="Futura-Medium" font-size="64.0" fill="#FEFFFF" transform="matrix(0.83, 0.00, -0.00, -0.83, 263.7, 682.4)">1</text><text xml:space="preserve" font-family="Futura-Medium" font-size="64.0" fill="#FEFFFF" transform="matrix(0.83, 0.00, -0.00, -0.83, 292.4, 682.4)">2</text><text xml:space="preserve" font-family="Futura-Medium" font-size="64.0" fill="#FEFFFF" transform="matrix(0.83, 0.00, -0.00, -0.83, 325.2, 682.4)">.</text><text xml:space="preserve" font-family="Futura-Medium" font-size="64.0" fill="#FEFFFF" transform="matrix(0.83, 0.00, -0.00, -0.83, 363.6, 680.7)">1</text><text xml:space="preserve" font-family="Futura-Medium" font-size="64.0" fill="#FEFFFF" transform="matrix(0.83, 0.00, -0.00, -0.83, 392.7, 680.7)">3</text><text xml:space="preserve" font-family="Futura-Medium" font-size="64.0" fill="#FEFFFF" transform="matrix(0.83, 0.00, -0.00, -0.83, 425.5, 680.7)">.</text><text xml:space="preserve" font-family="Futura-Medium" font-size="64.0" fill="#FEFFFF" transform="matrix(0.83, 0.00, -0.00, -0.83, 457.3, 680.7)">1</text><text xml:space="preserve" font-family="Futura-Medium" font-size="64.0" fill="#FEFFFF" transform="matrix(0.83, 0.00, -0.00, -0.83, 485.9, 680.7)">4</text><text xml:space="preserve" font-family="Futura-Medium" font-size="64.0" fill="#FEFFFF" transform="matrix(0.83, 0.00, -0.00, -0.83, 518.7, 680.7)">.</text><text xml:space="preserve" font-family="Futura-Medium" font-size="64.0" fill="#FEFFFF" transform="matrix(0.83, 0.00, -0.00, -0.83, 567.8, 693.2)">1</text><text xml:space="preserve" font-family="Futura-Medium" font-size="64.0" fill="#FEFFFF" transform="matrix(0.83, 0.00, -0.00, -0.83, 596.4, 693.2)">5</text><text xml:space="preserve" font-family="Futura-Medium" font-size="64.0" fill="#FEFFFF" transform="matrix(0.83, 0.00, -0.00, -0.83, 629.2, 693.2)">.</text><text xml:space="preserve" font-family="Futura-Medium" font-size="64.0" fill="#FEFFFF" transform="matrix(0.83, 0.00, -0.00, -0.83, 142.7, 286.7)">1</text><text xml:space="preserve" font-family="Futura-Medium" font-size="64.0" fill="#FEFFFF" transform="matrix(0.83, 0.00, -0.00, -0.83, 170.8, 286.7)">6</text><text xml:space="preserve" font-family="Futura-Medium" font-size="64.0" fill="#FEFFFF" transform="matrix(0.83, 0.00, -0.00, -0.83, 203.7, 286.7)">.</text><text xml:space="preserve" font-family="Futura-Medium" font-size="64.0" fill="#FEFFFF" transform="matrix(0.83, 0.00, -0.00, -0.83, 431.5, 27.4)">1</text><text xml:space="preserve" font-family="Futura-Medium" font-size="64.0" fill="#FEFFFF" transform="matrix(0.83, 0.00, -0.00, -0.83, 459.4, 27.4)">7</text><text xml:space="preserve" font-family="Futura-Medium" font-size="64.0" fill="#FEFFFF" transform="matrix(0.83, 0.00, -0.00, -0.83, 484.7, 27.4)">.</text><text xml:space="preserve" font-family="Futura-Medium" font-size="64.0" fill="#FEFFFF" transform="matrix(0.83, 0.00, -0.00, -0.83, 620.9, 265.1)">1</text><text xml:space="preserve" font-family="Futura-Medium" font-size="64.0" fill="#FEFFFF" transform="matrix(0.83, 0.00, -0.00, -0.83, 649.7, 265.1)">8</text><text xml:space="preserve" font-family="Futura-Medium" font-size="64.0" fill="#FEFFFF" transform="matrix(0.83, 0.00, -0.00, -0.83, 682.5, 265.1)">.</text><text xml:space="preserve" font-family="Futura-Medium" font-size="64.0" fill="#FEFFFF" transform="matrix(0.83, 0.00, -0.00, -0.83, 704.1, 266.8)">1</text><text xml:space="preserve" font-family="Futura-Medium" font-size="64.0" fill="#FEFFFF" transform="matrix(0.83, 0.00, -0.00, -0.83, 732.6, 266.8)">9</text><text xml:space="preserve" font-family="Futura-Medium" font-size="64.0" fill="#FEFFFF" transform="matrix(0.83, 0.00, -0.00, -0.83, 765.4, 266.8)">.</text><image xlink:href="86A5C32320E1C4DDF003D69F0FD31542.png" width="337.00" height="499.00" transform="matrix(0.69, 0.00, -0.00, -0.69, 599.2, 678.3)"></image><image xlink:href="ECC8DB37793ACFD023A52B6570D433EB.png" width="200.00" height="602.00" transform="matrix(0.53, 0.00, -0.00, -0.53, 399.2, 667.6)"></image><image xlink:href="ACBA7C9D849B15CB62C2B0855AAAF39F.png" width="200.00" height="597.00" transform="matrix(0.55, 0.00, -0.00, -0.55, 500.3, 674.9)"></image><image xlink:href="DFCD369FD9ADE9A47C44F12237632832.png" width="533.00" height="900.00" transform="matrix(0.53, 0.00, -0.00, -0.53, 174.7, 823.7)"></image><text xml:space="preserve" font-family="Futura-Medium" font-size="64.0" fill="#FEFFFF" transform="matrix(0.83, 0.00, -0.00, -0.83, 169.1, 681.6)">1</text><text xml:space="preserve" font-family="Futura-Medium" font-size="64.0" fill="#FEFFFF" transform="matrix(0.83, 0.00, -0.00, -0.83, 194.1, 681.6)">1</text><text xml:space="preserve" font-family="Futura-Medium" font-size="64.0" fill="#FEFFFF" transform="matrix(0.83, 0.00, -0.00, -0.83, 223.8, 681.6)">.</text><image xlink:href="45E7347F8B754023CA77E5CBDF50DC06.png" width="437.00" height="587.00" transform="matrix(0.56, 0.00, -0.00, -0.56, 298.7, 674.9)"></image><image xlink:href="D90AB95550F96C5EE6647C7D1A832F3A.png" width="293.00" height="444.00" transform="matrix(0.71, 0.00, -0.00, -0.71, 223.7, 342.4)"></image><image xlink:href="289A8DF2531C863A55EE373EA9053D27.png" width="740.00" height="740.00" transform="matrix(0.49, 0.09, 0.09, -0.49, 339.5, 346.5)"></image><image xlink:href="E716DC67DC61EB22E3498EF94C680EDB.png" width="750.00" height="1334.00" transform="matrix(0.19, 0.03, 0.03, -0.19, 461.2, 308.9)"></image><image xlink:href="D6C31D1F6FC235440A0D71B9C3DCBA57.png" width="1024.00" height="659.00" transform="matrix(0.43, 0.00, -0.00, -0.43, 448.0, 275.9)"></image><image xlink:href="DEE116F51DCF886B3F761757F68CFB54.png" width="1024.00" height="659.00" transform="matrix(0.43, 0.00, -0.00, -0.43, 531.9, 276.8)"></image><image xlink:href="41101102213B4C7AFFA6DA237134E8F0.png" width="131.00" height="558.00" transform="matrix(0.43, 0.00, -0.00, -0.43, 804.2, 260.2)"></image></g></g><g><clipPath id="clip-38"><path d="M 480.8 219.9 L 615.7 243.7 L 617.2 235.5 L 482.2 211.7 L 480.8 219.9 Z M 480.8 219.9 "></path></clipPath><g clip-path="url(#clip-38)"><g><clipPath id="clip-39"><path d="M -77.0 -10.0 L 1101.0 -10.0 L 1101.0 778.0 L -77.0 778.0 Z M -77.0 -10.0 "></path></clipPath><g clip-path="url(#clip-39)"><path d="M 475.9 223.3 L 619.1 248.5 L 622.0 232.2 L 478.8 206.9 Z M 475.9 223.3 " fill="#FFFFFF"></path></g></g></g></g></g></svg>