<?xml version="1.0" encoding="UTF-8" standalone="no"?><svg xmlns="http://www.w3.org/2000/svg" xmlns:xlink="http://www.w3.org/1999/xlink" clip-rule="evenodd" stroke-miterlimit="4.00" viewBox="0 0 1024 768"><desc>SVG generated by Keynote</desc><defs></defs><g transform="matrix(1.00, 0.00, -0.00, -1.00, 0.0, 768.0)"><path d="M 0.0 768.0 L 1024.0 768.0 L 1024.0 0.0 L 0.0 0.0 Z M 0.0 768.0 " fill="#FEFFFF"></path><text xml:space="preserve" font-family="BebasNeueRegular" font-size="80.0" fill="#000000" transform="matrix(1.00, 0.00, -0.00, -1.00, 38.0, 618.0)">S</text><text xml:space="preserve" font-family="BebasNeueRegular" font-size="80.0" fill="#000000" transform="matrix(1.00, 0.00, -0.00, -1.00, 67.8, 618.0)">e</text><text xml:space="preserve" font-family="BebasNeueRegular" font-size="80.0" fill="#000000" transform="matrix(1.00, 0.00, -0.00, -1.00, 96.6, 618.0)">o</text><text xml:space="preserve" font-family="BebasNeueRegular" font-size="80.0" fill="#000000" transform="matrix(1.00, 0.00, -0.00, -1.00, 127.7, 618.0)">u</text><text xml:space="preserve" font-family="BebasNeueRegular" font-size="80.0" fill="#000000" transform="matrix(1.00, 0.00, -0.00, -1.00, 158.6, 618.0)">l</text><text xml:space="preserve" font-family="BebasNeueRegular" font-size="80.0" fill="#000000" transform="matrix(1.00, 0.00, -0.00, -1.00, 185.6, 618.0)"> </text><text xml:space="preserve" font-family="BebasNeueRegular" font-size="80.0" fill="#000000" transform="matrix(1.00, 0.00, -0.00, -1.00, 198.0, 618.0)">M</text><text xml:space="preserve" font-family="BebasNeueRegular" font-size="80.0" fill="#000000" transform="matrix(1.00, 0.00, -0.00, -1.00, 239.8, 618.0)">e</text><text xml:space="preserve" font-family="BebasNeueRegular" font-size="80.0" fill="#000000" transform="matrix(1.00, 0.00, -0.00, -1.00, 268.6, 618.0)">t</text><text xml:space="preserve" font-family="BebasNeueRegular" font-size="80.0" fill="#000000" transform="matrix(1.00, 0.00, -0.00, -1.00, 297.4, 618.0)">r</text><text xml:space="preserve" font-family="BebasNeueRegular" font-size="80.0" fill="#000000" transform="matrix(1.00, 0.00, -0.00, -1.00, 329.0, 618.0)">o</text><text xml:space="preserve" font-family="BebasNeueRegular" font-size="80.0" fill="#000000" transform="matrix(1.00, 0.00, -0.00, -1.00, 360.1, 618.0)">p</text><text xml:space="preserve" font-family="BebasNeueRegular" font-size="80.0" fill="#000000" transform="matrix(1.00, 0.00, -0.00, -1.00, 389.8, 618.0)">o</text><text xml:space="preserve" font-family="BebasNeueRegular" font-size="80.0" fill="#000000" transform="matrix(1.00, 0.00, -0.00, -1.00, 420.9, 618.0)">l</text><text xml:space="preserve" font-family="BebasNeueRegular" font-size="80.0" fill="#000000" transform="matrix(1.00, 0.00, -0.00, -1.00, 447.8, 618.0)">i</text><text xml:space="preserve" font-family="BebasNeueRegular" font-size="80.0" fill="#000000" transform="matrix(1.00, 0.00, -0.00, -1.00, 460.5, 618.0)">t</text><text xml:space="preserve" font-family="BebasNeueRegular" font-size="80.0" fill="#000000" transform="matrix(1.00, 0.00, -0.00, -1.00, 486.2, 618.0)">a</text><text xml:space="preserve" font-family="BebasNeueRegular" font-size="80.0" fill="#000000" transform="matrix(1.00, 0.00, -0.00, -1.00, 520.0, 618.0)">n</text><text xml:space="preserve" font-family="BebasNeueRegular" font-size="80.0" fill="#000000" transform="matrix(1.00, 0.00, -0.00, -1.00, 552.7, 618.0)"> </text><text xml:space="preserve" font-family="BebasNeueRegular" font-size="80.0" fill="#000000" transform="matrix(1.00, 0.00, -0.00, -1.00, 565.1, 618.0)">G</text><text xml:space="preserve" font-family="BebasNeueRegular" font-size="80.0" fill="#000000" transform="matrix(1.00, 0.00, -0.00, -1.00, 595.8, 618.0)">o</text><text xml:space="preserve" font-family="BebasNeueRegular" font-size="80.0" fill="#000000" transform="matrix(1.00, 0.00, -0.00, -1.00, 626.8, 618.0)">v</text><text xml:space="preserve" font-family="BebasNeueRegular" font-size="80.0" fill="#000000" transform="matrix(1.00, 0.00, -0.00, -1.00, 660.2, 618.0)">e</text><text xml:space="preserve" font-family="BebasNeueRegular" font-size="80.0" fill="#000000" transform="matrix(1.00, 0.00, -0.00, -1.00, 689.0, 618.0)">r</text><text xml:space="preserve" font-family="BebasNeueRegular" font-size="80.0" fill="#000000" transform="matrix(1.00, 0.00, -0.00, -1.00, 720.6, 618.0)">n</text><text xml:space="preserve" font-family="BebasNeueRegular" font-size="80.0" fill="#000000" transform="matrix(1.00, 0.00, -0.00, -1.00, 753.3, 618.0)">m</text><text xml:space="preserve" font-family="BebasNeueRegular" font-size="80.0" fill="#000000" transform="matrix(1.00, 0.00, -0.00, -1.00, 795.1, 618.0)">e</text><text xml:space="preserve" font-family="BebasNeueRegular" font-size="80.0" fill="#000000" transform="matrix(1.00, 0.00, -0.00, -1.00, 823.9, 618.0)">n</text><text xml:space="preserve" font-family="BebasNeueRegular" font-size="80.0" fill="#000000" transform="matrix(1.00, 0.00, -0.00, -1.00, 856.6, 618.0)">t</text><g><clipPath id="clip-54"><path d="M 949.0 84.0 L 1010.0 84.0 L 1010.0 24.0 L 949.0 24.0 Z M 948.6 84.4 "></path></clipPath><g clip-path="url(#clip-54)"><image xlink:href="../../768E9306-A5E9-4668-A570-00B23E4152A9/assets/E975E77F43164B38EE0389907D368263.png" width="452.00" height="452.00" transform="matrix(0.13, 0.00, -0.00, -0.13, 949.0, 84.0)"></image></g></g><text xml:space="preserve" font-family="Lora-Bold" font-weight="bold" font-size="24.0" fill="#000000" transform="matrix(1.00, 0.00, -0.00, -1.00, 39.0, 377.0)">W</text><text xml:space="preserve" font-family="Lora-Bold" font-weight="bold" font-size="24.0" fill="#000000" transform="matrix(1.00, 0.00, -0.00, -1.00, 64.0, 377.0)">h</text><text xml:space="preserve" font-family="Lora-Bold" font-weight="bold" font-size="24.0" fill="#000000" transform="matrix(1.00, 0.00, -0.00, -1.00, 78.8, 377.0)">a</text><text xml:space="preserve" font-family="Lora-Bold" font-weight="bold" font-size="24.0" fill="#000000" transform="matrix(1.00, 0.00, -0.00, -1.00, 91.3, 377.0)">t</text><text xml:space="preserve" font-family="Lora-Bold" font-weight="bold" font-size="24.0" fill="#000000" transform="matrix(1.00, 0.00, -0.00, -1.00, 101.3, 377.0)"> </text><text xml:space="preserve" font-family="Lora-Bold" font-weight="bold" font-size="24.0" fill="#000000" transform="matrix(1.00, 0.00, -0.00, -1.00, 107.6, 377.0)">I</text><text xml:space="preserve" font-family="Lora-Bold" font-weight="bold" font-size="24.0" fill="#000000" transform="matrix(1.00, 0.00, -0.00, -1.00, 116.9, 377.0)"> </text><text xml:space="preserve" font-family="Lora-Bold" font-weight="bold" font-size="24.0" fill="#000000" transform="matrix(1.00, 0.00, -0.00, -1.00, 123.2, 377.0)">l</text><text xml:space="preserve" font-family="Lora-Bold" font-weight="bold" font-size="24.0" fill="#000000" transform="matrix(1.00, 0.00, -0.00, -1.00, 130.7, 377.0)">e</text><text xml:space="preserve" font-family="Lora-Bold" font-weight="bold" font-size="24.0" fill="#000000" transform="matrix(1.00, 0.00, -0.00, -1.00, 143.6, 377.0)">a</text><text xml:space="preserve" font-family="Lora-Bold" font-weight="bold" font-size="24.0" fill="#000000" transform="matrix(1.00, 0.00, -0.00, -1.00, 156.2, 377.0)">r</text><text xml:space="preserve" font-family="Lora-Bold" font-weight="bold" font-size="24.0" fill="#000000" transform="matrix(1.00, 0.00, -0.00, -1.00, 167.7, 377.0)">n</text><text xml:space="preserve" font-family="Lora-Bold" font-weight="bold" font-size="24.0" fill="#000000" transform="matrix(1.00, 0.00, -0.00, -1.00, 183.0, 377.0)">e</text><text xml:space="preserve" font-family="Lora-Bold" font-weight="bold" font-size="24.0" fill="#000000" transform="matrix(1.00, 0.00, -0.00, -1.00, 195.9, 377.0)">d</text><text xml:space="preserve" font-family="Lora-Bold" font-weight="bold" font-size="24.0" fill="#000000" transform="matrix(1.00, 0.00, -0.00, -1.00, 210.2, 377.0)">:</text><text xml:space="preserve" font-family="Lora-Bold" font-weight="bold" font-size="24.0" fill="#000000" transform="matrix(1.00, 0.00, -0.00, -1.00, 216.1, 377.0)"> </text><text xml:space="preserve" font-family="Lora-Regular" font-size="24.0" fill="#000000" transform="matrix(1.00, 0.00, -0.00, -1.00, 39.0, 348.0)">W</text><text xml:space="preserve" font-family="Lora-Regular" font-size="24.0" fill="#000000" transform="matrix(1.00, 0.00, -0.00, -1.00, 61.9, 348.0)">o</text><text xml:space="preserve" font-family="Lora-Regular" font-size="24.0" fill="#000000" transform="matrix(1.00, 0.00, -0.00, -1.00, 76.0, 348.0)">r</text><text xml:space="preserve" font-family="Lora-Regular" font-size="24.0" fill="#000000" transform="matrix(1.00, 0.00, -0.00, -1.00, 86.3, 348.0)">k</text><text xml:space="preserve" font-family="Lora-Regular" font-size="24.0" fill="#000000" transform="matrix(1.00, 0.00, -0.00, -1.00, 99.2, 348.0)">i</text><text xml:space="preserve" font-family="Lora-Regular" font-size="24.0" fill="#000000" transform="matrix(1.00, 0.00, -0.00, -1.00, 105.9, 348.0)">n</text><text xml:space="preserve" font-family="Lora-Regular" font-size="24.0" fill="#000000" transform="matrix(1.00, 0.00, -0.00, -1.00, 120.5, 348.0)">g</text><text xml:space="preserve" font-family="Lora-Regular" font-size="24.0" fill="#000000" transform="matrix(1.00, 0.00, -0.00, -1.00, 133.8, 348.0)"> </text><text xml:space="preserve" font-family="Lora-Regular" font-size="24.0" fill="#000000" transform="matrix(1.00, 0.00, -0.00, -1.00, 140.1, 348.0)">w</text><text xml:space="preserve" font-family="Lora-Regular" font-size="24.0" fill="#000000" transform="matrix(1.00, 0.00, -0.00, -1.00, 159.3, 348.0)">i</text><text xml:space="preserve" font-family="Lora-Regular" font-size="24.0" fill="#000000" transform="matrix(1.00, 0.00, -0.00, -1.00, 165.9, 348.0)">t</text><text xml:space="preserve" font-family="Lora-Regular" font-size="24.0" fill="#000000" transform="matrix(1.00, 0.00, -0.00, -1.00, 175.2, 348.0)">h</text><text xml:space="preserve" font-family="Lora-Regular" font-size="24.0" fill="#000000" transform="matrix(1.00, 0.00, -0.00, -1.00, 189.6, 348.0)"> </text><text xml:space="preserve" font-family="Lora-Regular" font-size="24.0" fill="#000000" transform="matrix(1.00, 0.00, -0.00, -1.00, 195.9, 348.0)">p</text><text xml:space="preserve" font-family="Lora-Regular" font-size="24.0" fill="#000000" transform="matrix(1.00, 0.00, -0.00, -1.00, 210.3, 348.0)">a</text><text xml:space="preserve" font-family="Lora-Regular" font-size="24.0" fill="#000000" transform="matrix(1.00, 0.00, -0.00, -1.00, 222.7, 348.0)">p</text><text xml:space="preserve" font-family="Lora-Regular" font-size="24.0" fill="#000000" transform="matrix(1.00, 0.00, -0.00, -1.00, 237.0, 348.0)">e</text><text xml:space="preserve" font-family="Lora-Regular" font-size="24.0" fill="#000000" transform="matrix(1.00, 0.00, -0.00, -1.00, 250.0, 348.0)">r</text><text xml:space="preserve" font-family="Lora-Regular" font-size="24.0" fill="#000000" transform="matrix(1.00, 0.00, -0.00, -1.00, 260.2, 348.0)">-</text><text xml:space="preserve" font-family="Lora-Regular" font-size="24.0" fill="#000000" transform="matrix(1.00, 0.00, -0.00, -1.00, 271.9, 348.0)">c</text><text xml:space="preserve" font-family="Lora-Regular" font-size="24.0" fill="#000000" transform="matrix(1.00, 0.00, -0.00, -1.00, 284.7, 348.0)">r</text><text xml:space="preserve" font-family="Lora-Regular" font-size="24.0" fill="#000000" transform="matrix(1.00, 0.00, -0.00, -1.00, 294.9, 348.0)">a</text><text xml:space="preserve" font-family="Lora-Regular" font-size="24.0" fill="#000000" transform="matrix(1.00, 0.00, -0.00, -1.00, 307.3, 348.0)">f</text><text xml:space="preserve" font-family="Lora-Regular" font-size="24.0" fill="#000000" transform="matrix(1.00, 0.00, -0.00, -1.00, 315.7, 348.0)">t</text><text xml:space="preserve" font-family="Lora-Regular" font-size="24.0" fill="#000000" transform="matrix(1.00, 0.00, -0.00, -1.00, 325.0, 348.0)"> </text><text xml:space="preserve" font-family="Lora-Regular" font-size="24.0" fill="#000000" transform="matrix(1.00, 0.00, -0.00, -1.00, 331.3, 348.0)">w</text><text xml:space="preserve" font-family="Lora-Regular" font-size="24.0" fill="#000000" transform="matrix(1.00, 0.00, -0.00, -1.00, 350.3, 348.0)">a</text><text xml:space="preserve" font-family="Lora-Regular" font-size="24.0" fill="#000000" transform="matrix(1.00, 0.00, -0.00, -1.00, 362.7, 348.0)">s</text><text xml:space="preserve" font-family="Lora-Regular" font-size="24.0" fill="#000000" transform="matrix(1.00, 0.00, -0.00, -1.00, 373.8, 348.0)"> </text><text xml:space="preserve" font-family="Lora-Regular" font-size="24.0" fill="#000000" transform="matrix(1.00, 0.00, -0.00, -1.00, 380.1, 348.0)">a</text><text xml:space="preserve" font-family="Lora-Regular" font-size="24.0" fill="#000000" transform="matrix(1.00, 0.00, -0.00, -1.00, 392.5, 348.0)"> </text><text xml:space="preserve" font-family="Lora-Regular" font-size="24.0" fill="#000000" transform="matrix(1.00, 0.00, -0.00, -1.00, 398.8, 348.0)">l</text><text xml:space="preserve" font-family="Lora-Regular" font-size="24.0" fill="#000000" transform="matrix(1.00, 0.00, -0.00, -1.00, 405.4, 348.0)">o</text><text xml:space="preserve" font-family="Lora-Regular" font-size="24.0" fill="#000000" transform="matrix(1.00, 0.00, -0.00, -1.00, 419.4, 348.0)">t</text><text xml:space="preserve" font-family="Lora-Regular" font-size="24.0" fill="#000000" transform="matrix(1.00, 0.00, -0.00, -1.00, 428.7, 348.0)"> </text><text xml:space="preserve" font-family="Lora-Regular" font-size="24.0" fill="#000000" transform="matrix(1.00, 0.00, -0.00, -1.00, 435.0, 348.0)">o</text><text xml:space="preserve" font-family="Lora-Regular" font-size="24.0" fill="#000000" transform="matrix(1.00, 0.00, -0.00, -1.00, 448.9, 348.0)">f</text><text xml:space="preserve" font-family="Lora-Regular" font-size="24.0" fill="#000000" transform="matrix(1.00, 0.00, -0.00, -1.00, 457.0, 348.0)"> </text><text xml:space="preserve" font-family="Lora-Regular" font-size="24.0" fill="#000000" transform="matrix(1.00, 0.00, -0.00, -1.00, 463.4, 348.0)">f</text><text xml:space="preserve" font-family="Lora-Regular" font-size="24.0" fill="#000000" transform="matrix(1.00, 0.00, -0.00, -1.00, 471.5, 348.0)">u</text><text xml:space="preserve" font-family="Lora-Regular" font-size="24.0" fill="#000000" transform="matrix(1.00, 0.00, -0.00, -1.00, 485.8, 348.0)">n</text><text xml:space="preserve" font-family="Lora-Regular" font-size="24.0" fill="#000000" transform="matrix(1.00, 0.00, -0.00, -1.00, 500.4, 348.0)">.</text><text xml:space="preserve" font-family="Lora-Regular" font-size="24.0" fill="#000000" transform="matrix(1.00, 0.00, -0.00, -1.00, 506.3, 348.0)"> </text><text xml:space="preserve" font-family="Lora-Regular" font-size="24.0" fill="#000000" transform="matrix(1.00, 0.00, -0.00, -1.00, 512.6, 348.0)">I</text><text xml:space="preserve" font-family="Lora-Regular" font-size="24.0" fill="#000000" transform="matrix(1.00, 0.00, -0.00, -1.00, 520.6, 348.0)">’</text><text xml:space="preserve" font-family="Lora-Regular" font-size="24.0" fill="#000000" transform="matrix(1.00, 0.00, -0.00, -1.00, 524.4, 348.0)">m</text><text xml:space="preserve" font-family="Lora-Regular" font-size="24.0" fill="#000000" transform="matrix(1.00, 0.00, -0.00, -1.00, 545.9, 348.0)"> </text><text xml:space="preserve" font-family="Lora-Regular" font-size="24.0" fill="#000000" transform="matrix(1.00, 0.00, -0.00, -1.00, 552.2, 348.0)">p</text><text xml:space="preserve" font-family="Lora-Regular" font-size="24.0" fill="#000000" transform="matrix(1.00, 0.00, -0.00, -1.00, 566.6, 348.0)">r</text><text xml:space="preserve" font-family="Lora-Regular" font-size="24.0" fill="#000000" transform="matrix(1.00, 0.00, -0.00, -1.00, 576.8, 348.0)">o</text><text xml:space="preserve" font-family="Lora-Regular" font-size="24.0" fill="#000000" transform="matrix(1.00, 0.00, -0.00, -1.00, 590.8, 348.0)">u</text><text xml:space="preserve" font-family="Lora-Regular" font-size="24.0" fill="#000000" transform="matrix(1.00, 0.00, -0.00, -1.00, 605.2, 348.0)">d</text><text xml:space="preserve" font-family="Lora-Regular" font-size="24.0" fill="#000000" transform="matrix(1.00, 0.00, -0.00, -1.00, 619.5, 348.0)"> </text><text xml:space="preserve" font-family="Lora-Regular" font-size="24.0" fill="#000000" transform="matrix(1.00, 0.00, -0.00, -1.00, 625.8, 348.0)">o</text><text xml:space="preserve" font-family="Lora-Regular" font-size="24.0" fill="#000000" transform="matrix(1.00, 0.00, -0.00, -1.00, 639.8, 348.0)">f</text><text xml:space="preserve" font-family="Lora-Regular" font-size="24.0" fill="#000000" transform="matrix(1.00, 0.00, -0.00, -1.00, 647.9, 348.0)"> </text><text xml:space="preserve" font-family="Lora-Regular" font-size="24.0" fill="#000000" transform="matrix(1.00, 0.00, -0.00, -1.00, 654.2, 348.0)">t</text><text xml:space="preserve" font-family="Lora-Regular" font-size="24.0" fill="#000000" transform="matrix(1.00, 0.00, -0.00, -1.00, 663.5, 348.0)">h</text><text xml:space="preserve" font-family="Lora-Regular" font-size="24.0" fill="#000000" transform="matrix(1.00, 0.00, -0.00, -1.00, 677.9, 348.0)">e</text><text xml:space="preserve" font-family="Lora-Regular" font-size="24.0" fill="#000000" transform="matrix(1.00, 0.00, -0.00, -1.00, 690.9, 348.0)"> </text><text xml:space="preserve" font-family="Lora-Regular" font-size="24.0" fill="#000000" transform="matrix(1.00, 0.00, -0.00, -1.00, 697.2, 348.0)">w</text><text xml:space="preserve" font-family="Lora-Regular" font-size="24.0" fill="#000000" transform="matrix(1.00, 0.00, -0.00, -1.00, 716.1, 348.0)">o</text><text xml:space="preserve" font-family="Lora-Regular" font-size="24.0" fill="#000000" transform="matrix(1.00, 0.00, -0.00, -1.00, 730.1, 348.0)">r</text><text xml:space="preserve" font-family="Lora-Regular" font-size="24.0" fill="#000000" transform="matrix(1.00, 0.00, -0.00, -1.00, 740.5, 348.0)">k</text><text xml:space="preserve" font-family="Lora-Regular" font-size="24.0" fill="#000000" transform="matrix(1.00, 0.00, -0.00, -1.00, 753.3, 348.0)"> </text><text xml:space="preserve" font-family="Lora-Regular" font-size="24.0" fill="#000000" transform="matrix(1.00, 0.00, -0.00, -1.00, 759.7, 348.0)">I</text><text xml:space="preserve" font-family="Lora-Regular" font-size="24.0" fill="#000000" transform="matrix(1.00, 0.00, -0.00, -1.00, 767.7, 348.0)"> </text><text xml:space="preserve" font-family="Lora-Regular" font-size="24.0" fill="#000000" transform="matrix(1.00, 0.00, -0.00, -1.00, 774.0, 348.0)">d</text><text xml:space="preserve" font-family="Lora-Regular" font-size="24.0" fill="#000000" transform="matrix(1.00, 0.00, -0.00, -1.00, 788.4, 348.0)">i</text><text xml:space="preserve" font-family="Lora-Regular" font-size="24.0" fill="#000000" transform="matrix(1.00, 0.00, -0.00, -1.00, 795.1, 348.0)">d</text><text xml:space="preserve" font-family="Lora-Regular" font-size="24.0" fill="#000000" transform="matrix(1.00, 0.00, -0.00, -1.00, 809.5, 348.0)"> </text><text xml:space="preserve" font-family="Lora-Regular" font-size="24.0" fill="#000000" transform="matrix(1.00, 0.00, -0.00, -1.00, 815.8, 348.0)">s</text><text xml:space="preserve" font-family="Lora-Regular" font-size="24.0" fill="#000000" transform="matrix(1.00, 0.00, -0.00, -1.00, 826.9, 348.0)">i</text><text xml:space="preserve" font-family="Lora-Regular" font-size="24.0" fill="#000000" transform="matrix(1.00, 0.00, -0.00, -1.00, 833.6, 348.0)">n</text><text xml:space="preserve" font-family="Lora-Regular" font-size="24.0" fill="#000000" transform="matrix(1.00, 0.00, -0.00, -1.00, 848.2, 348.0)">c</text><text xml:space="preserve" font-family="Lora-Regular" font-size="24.0" fill="#000000" transform="matrix(1.00, 0.00, -0.00, -1.00, 860.9, 348.0)">e</text><text xml:space="preserve" font-family="Lora-Regular" font-size="24.0" fill="#000000" transform="matrix(1.00, 0.00, -0.00, -1.00, 873.9, 348.0)"> </text><text xml:space="preserve" font-family="Lora-Regular" font-size="24.0" fill="#000000" transform="matrix(1.00, 0.00, -0.00, -1.00, 880.2, 348.0)">i</text><text xml:space="preserve" font-family="Lora-Regular" font-size="24.0" fill="#000000" transform="matrix(1.00, 0.00, -0.00, -1.00, 886.8, 348.0)">t</text><text xml:space="preserve" font-family="Lora-Regular" font-size="24.0" fill="#000000" transform="matrix(1.00, 0.00, -0.00, -1.00, 896.1, 348.0)"> </text><text xml:space="preserve" font-family="Lora-Regular" font-size="24.0" fill="#000000" transform="matrix(1.00, 0.00, -0.00, -1.00, 39.0, 319.0)">r</text><text xml:space="preserve" font-family="Lora-Regular" font-size="24.0" fill="#000000" transform="matrix(1.00, 0.00, -0.00, -1.00, 49.2, 319.0)">e</text><text xml:space="preserve" font-family="Lora-Regular" font-size="24.0" fill="#000000" transform="matrix(1.00, 0.00, -0.00, -1.00, 62.1, 319.0)">q</text><text xml:space="preserve" font-family="Lora-Regular" font-size="24.0" fill="#000000" transform="matrix(1.00, 0.00, -0.00, -1.00, 75.9, 319.0)">u</text><text xml:space="preserve" font-family="Lora-Regular" font-size="24.0" fill="#000000" transform="matrix(1.00, 0.00, -0.00, -1.00, 90.3, 319.0)">i</text><text xml:space="preserve" font-family="Lora-Regular" font-size="24.0" fill="#000000" transform="matrix(1.00, 0.00, -0.00, -1.00, 97.0, 319.0)">r</text><text xml:space="preserve" font-family="Lora-Regular" font-size="24.0" fill="#000000" transform="matrix(1.00, 0.00, -0.00, -1.00, 107.2, 319.0)">e</text><text xml:space="preserve" font-family="Lora-Regular" font-size="24.0" fill="#000000" transform="matrix(1.00, 0.00, -0.00, -1.00, 120.1, 319.0)">d</text><text xml:space="preserve" font-family="Lora-Regular" font-size="24.0" fill="#000000" transform="matrix(1.00, 0.00, -0.00, -1.00, 134.5, 319.0)"> </text><text xml:space="preserve" font-family="Lora-Regular" font-size="24.0" fill="#000000" transform="matrix(1.00, 0.00, -0.00, -1.00, 140.8, 319.0)">m</text><text xml:space="preserve" font-family="Lora-Regular" font-size="24.0" fill="#000000" transform="matrix(1.00, 0.00, -0.00, -1.00, 162.3, 319.0)">e</text><text xml:space="preserve" font-family="Lora-Regular" font-size="24.0" fill="#000000" transform="matrix(1.00, 0.00, -0.00, -1.00, 175.3, 319.0)"> </text><text xml:space="preserve" font-family="Lora-Regular" font-size="24.0" fill="#000000" transform="matrix(1.00, 0.00, -0.00, -1.00, 181.6, 319.0)">t</text><text xml:space="preserve" font-family="Lora-Regular" font-size="24.0" fill="#000000" transform="matrix(1.00, 0.00, -0.00, -1.00, 190.9, 319.0)">o</text><text xml:space="preserve" font-family="Lora-Regular" font-size="24.0" fill="#000000" transform="matrix(1.00, 0.00, -0.00, -1.00, 204.9, 319.0)"> </text><text xml:space="preserve" font-family="Lora-Regular" font-size="24.0" fill="#000000" transform="matrix(1.00, 0.00, -0.00, -1.00, 211.3, 319.0)">b</text><text xml:space="preserve" font-family="Lora-Regular" font-size="24.0" fill="#000000" transform="matrix(1.00, 0.00, -0.00, -1.00, 225.2, 319.0)">e</text><text xml:space="preserve" font-family="Lora-Regular" font-size="24.0" fill="#000000" transform="matrix(1.00, 0.00, -0.00, -1.00, 238.2, 319.0)"> </text><text xml:space="preserve" font-family="Lora-Regular" font-size="24.0" fill="#000000" transform="matrix(1.00, 0.00, -0.00, -1.00, 244.5, 319.0)">b</text><text xml:space="preserve" font-family="Lora-Regular" font-size="24.0" fill="#000000" transform="matrix(1.00, 0.00, -0.00, -1.00, 258.5, 319.0)">o</text><text xml:space="preserve" font-family="Lora-Regular" font-size="24.0" fill="#000000" transform="matrix(1.00, 0.00, -0.00, -1.00, 272.6, 319.0)">t</text><text xml:space="preserve" font-family="Lora-Regular" font-size="24.0" fill="#000000" transform="matrix(1.00, 0.00, -0.00, -1.00, 281.9, 319.0)">h</text><text xml:space="preserve" font-family="Lora-Regular" font-size="24.0" fill="#000000" transform="matrix(1.00, 0.00, -0.00, -1.00, 296.2, 319.0)"> </text><text xml:space="preserve" font-family="Lora-Regular" font-size="24.0" fill="#000000" transform="matrix(1.00, 0.00, -0.00, -1.00, 302.6, 319.0)">t</text><text xml:space="preserve" font-family="Lora-Regular" font-size="24.0" fill="#000000" transform="matrix(1.00, 0.00, -0.00, -1.00, 311.9, 319.0)">a</text><text xml:space="preserve" font-family="Lora-Regular" font-size="24.0" fill="#000000" transform="matrix(1.00, 0.00, -0.00, -1.00, 324.2, 319.0)">c</text><text xml:space="preserve" font-family="Lora-Regular" font-size="24.0" fill="#000000" transform="matrix(1.00, 0.00, -0.00, -1.00, 337.0, 319.0)">k</text><text xml:space="preserve" font-family="Lora-Regular" font-size="24.0" fill="#000000" transform="matrix(1.00, 0.00, -0.00, -1.00, 349.9, 319.0)">l</text><text xml:space="preserve" font-family="Lora-Regular" font-size="24.0" fill="#000000" transform="matrix(1.00, 0.00, -0.00, -1.00, 356.4, 319.0)">e</text><text xml:space="preserve" font-family="Lora-Regular" font-size="24.0" fill="#000000" transform="matrix(1.00, 0.00, -0.00, -1.00, 369.4, 319.0)"> </text><text xml:space="preserve" font-family="Lora-Regular" font-size="24.0" fill="#000000" transform="matrix(1.00, 0.00, -0.00, -1.00, 375.8, 319.0)">a</text><text xml:space="preserve" font-family="Lora-Regular" font-size="24.0" fill="#000000" transform="matrix(1.00, 0.00, -0.00, -1.00, 388.2, 319.0)">n</text><text xml:space="preserve" font-family="Lora-Regular" font-size="24.0" fill="#000000" transform="matrix(1.00, 0.00, -0.00, -1.00, 402.7, 319.0)">d</text><text xml:space="preserve" font-family="Lora-Regular" font-size="24.0" fill="#000000" transform="matrix(1.00, 0.00, -0.00, -1.00, 417.1, 319.0)"> </text><text xml:space="preserve" font-family="Lora-Regular" font-size="24.0" fill="#000000" transform="matrix(1.00, 0.00, -0.00, -1.00, 423.4, 319.0)">v</text><text xml:space="preserve" font-family="Lora-Regular" font-size="24.0" fill="#000000" transform="matrix(1.00, 0.00, -0.00, -1.00, 435.5, 319.0)">i</text><text xml:space="preserve" font-family="Lora-Regular" font-size="24.0" fill="#000000" transform="matrix(1.00, 0.00, -0.00, -1.00, 442.3, 319.0)">s</text><text xml:space="preserve" font-family="Lora-Regular" font-size="24.0" fill="#000000" transform="matrix(1.00, 0.00, -0.00, -1.00, 453.4, 319.0)">u</text><text xml:space="preserve" font-family="Lora-Regular" font-size="24.0" fill="#000000" transform="matrix(1.00, 0.00, -0.00, -1.00, 467.7, 319.0)">a</text><text xml:space="preserve" font-family="Lora-Regular" font-size="24.0" fill="#000000" transform="matrix(1.00, 0.00, -0.00, -1.00, 480.1, 319.0)">l</text><text xml:space="preserve" font-family="Lora-Regular" font-size="24.0" fill="#000000" transform="matrix(1.00, 0.00, -0.00, -1.00, 486.6, 319.0)">.</text><text xml:space="preserve" font-family="Lora-Regular" font-size="24.0" fill="#000000" transform="matrix(1.00, 0.00, -0.00, -1.00, 492.5, 319.0)"> </text><text xml:space="preserve" font-family="Lora-Regular" font-size="24.0" fill="#000000" transform="matrix(1.00, 0.00, -0.00, -1.00, 498.8, 319.0)">I</text><text xml:space="preserve" font-family="Lora-Regular" font-size="24.0" fill="#000000" transform="matrix(1.00, 0.00, -0.00, -1.00, 506.7, 319.0)">n</text><text xml:space="preserve" font-family="Lora-Regular" font-size="24.0" fill="#000000" transform="matrix(1.00, 0.00, -0.00, -1.00, 521.3, 319.0)"> </text><text xml:space="preserve" font-family="Lora-Regular" font-size="24.0" fill="#000000" transform="matrix(1.00, 0.00, -0.00, -1.00, 527.6, 319.0)">t</text><text xml:space="preserve" font-family="Lora-Regular" font-size="24.0" fill="#000000" transform="matrix(1.00, 0.00, -0.00, -1.00, 536.9, 319.0)">h</text><text xml:space="preserve" font-family="Lora-Regular" font-size="24.0" fill="#000000" transform="matrix(1.00, 0.00, -0.00, -1.00, 551.3, 319.0)">e</text><text xml:space="preserve" font-family="Lora-Regular" font-size="24.0" fill="#000000" transform="matrix(1.00, 0.00, -0.00, -1.00, 564.3, 319.0)"> </text><text xml:space="preserve" font-family="Lora-Regular" font-size="24.0" fill="#000000" transform="matrix(1.00, 0.00, -0.00, -1.00, 570.6, 319.0)">e</text><text xml:space="preserve" font-family="Lora-Regular" font-size="24.0" fill="#000000" transform="matrix(1.00, 0.00, -0.00, -1.00, 583.6, 319.0)">n</text><text xml:space="preserve" font-family="Lora-Regular" font-size="24.0" fill="#000000" transform="matrix(1.00, 0.00, -0.00, -1.00, 598.2, 319.0)">d</text><text xml:space="preserve" font-family="Lora-Regular" font-size="24.0" fill="#000000" transform="matrix(1.00, 0.00, -0.00, -1.00, 612.5, 319.0)">,</text><text xml:space="preserve" font-family="Lora-Regular" font-size="24.0" fill="#000000" transform="matrix(1.00, 0.00, -0.00, -1.00, 618.6, 319.0)"> </text><text xml:space="preserve" font-family="Lora-Regular" font-size="24.0" fill="#000000" transform="matrix(1.00, 0.00, -0.00, -1.00, 624.9, 319.0)">I</text><text xml:space="preserve" font-family="Lora-Regular" font-size="24.0" fill="#000000" transform="matrix(1.00, 0.00, -0.00, -1.00, 632.9, 319.0)"> </text><text xml:space="preserve" font-family="Lora-Regular" font-size="24.0" fill="#000000" transform="matrix(1.00, 0.00, -0.00, -1.00, 639.3, 319.0)">d</text><text xml:space="preserve" font-family="Lora-Regular" font-size="24.0" fill="#000000" transform="matrix(1.00, 0.00, -0.00, -1.00, 653.6, 319.0)">i</text><text xml:space="preserve" font-family="Lora-Regular" font-size="24.0" fill="#000000" transform="matrix(1.00, 0.00, -0.00, -1.00, 660.4, 319.0)">d</text><text xml:space="preserve" font-family="Lora-Regular" font-size="24.0" fill="#000000" transform="matrix(1.00, 0.00, -0.00, -1.00, 674.7, 319.0)"> </text><text xml:space="preserve" font-family="Lora-Regular" font-size="24.0" fill="#000000" transform="matrix(1.00, 0.00, -0.00, -1.00, 681.0, 319.0)">n</text><text xml:space="preserve" font-family="Lora-Regular" font-size="24.0" fill="#000000" transform="matrix(1.00, 0.00, -0.00, -1.00, 695.6, 319.0)">o</text><text xml:space="preserve" font-family="Lora-Regular" font-size="24.0" fill="#000000" transform="matrix(1.00, 0.00, -0.00, -1.00, 709.6, 319.0)">t</text><text xml:space="preserve" font-family="Lora-Regular" font-size="24.0" fill="#000000" transform="matrix(1.00, 0.00, -0.00, -1.00, 718.9, 319.0)"> </text><text xml:space="preserve" font-family="Lora-Regular" font-size="24.0" fill="#000000" transform="matrix(1.00, 0.00, -0.00, -1.00, 725.3, 319.0)">w</text><text xml:space="preserve" font-family="Lora-Regular" font-size="24.0" fill="#000000" transform="matrix(1.00, 0.00, -0.00, -1.00, 744.5, 319.0)">i</text><text xml:space="preserve" font-family="Lora-Regular" font-size="24.0" fill="#000000" transform="matrix(1.00, 0.00, -0.00, -1.00, 751.2, 319.0)">n</text><text xml:space="preserve" font-family="Lora-Regular" font-size="24.0" fill="#000000" transform="matrix(1.00, 0.00, -0.00, -1.00, 765.8, 319.0)"> </text><text xml:space="preserve" font-family="Lora-Regular" font-size="24.0" fill="#000000" transform="matrix(1.00, 0.00, -0.00, -1.00, 772.1, 319.0)">b</text><text xml:space="preserve" font-family="Lora-Regular" font-size="24.0" fill="#000000" transform="matrix(1.00, 0.00, -0.00, -1.00, 786.1, 319.0)">u</text><text xml:space="preserve" font-family="Lora-Regular" font-size="24.0" fill="#000000" transform="matrix(1.00, 0.00, -0.00, -1.00, 800.4, 319.0)">t</text><text xml:space="preserve" font-family="Lora-Regular" font-size="24.0" fill="#000000" transform="matrix(1.00, 0.00, -0.00, -1.00, 809.7, 319.0)"> </text><text xml:space="preserve" font-family="Lora-Regular" font-size="24.0" fill="#000000" transform="matrix(1.00, 0.00, -0.00, -1.00, 816.0, 319.0)">t</text><text xml:space="preserve" font-family="Lora-Regular" font-size="24.0" fill="#000000" transform="matrix(1.00, 0.00, -0.00, -1.00, 825.3, 319.0)">h</text><text xml:space="preserve" font-family="Lora-Regular" font-size="24.0" fill="#000000" transform="matrix(1.00, 0.00, -0.00, -1.00, 839.7, 319.0)">a</text><text xml:space="preserve" font-family="Lora-Regular" font-size="24.0" fill="#000000" transform="matrix(1.00, 0.00, -0.00, -1.00, 851.9, 319.0)">t</text><text xml:space="preserve" font-family="Lora-Regular" font-size="24.0" fill="#000000" transform="matrix(1.00, 0.00, -0.00, -1.00, 861.2, 319.0)">’</text><text xml:space="preserve" font-family="Lora-Regular" font-size="24.0" fill="#000000" transform="matrix(1.00, 0.00, -0.00, -1.00, 864.9, 319.0)">s</text><text xml:space="preserve" font-family="Lora-Regular" font-size="24.0" fill="#000000" transform="matrix(1.00, 0.00, -0.00, -1.00, 876.0, 319.0)"> </text><text xml:space="preserve" font-family="Lora-Regular" font-size="24.0" fill="#000000" transform="matrix(1.00, 0.00, -0.00, -1.00, 882.4, 319.0)">o</text><text xml:space="preserve" font-family="Lora-Regular" font-size="24.0" fill="#000000" transform="matrix(1.00, 0.00, -0.00, -1.00, 896.4, 319.0)">k</text><text xml:space="preserve" font-family="Lora-Regular" font-size="24.0" fill="#000000" transform="matrix(1.00, 0.00, -0.00, -1.00, 909.3, 319.0)">…</text></g></svg>