<?xml version="1.0" encoding="UTF-8" standalone="no"?><svg xmlns="http://www.w3.org/2000/svg" xmlns:xlink="http://www.w3.org/1999/xlink" clip-rule="evenodd" stroke-miterlimit="4.00" viewBox="0 0 1024 768"><desc>SVG generated by Keynote</desc><defs></defs><g transform="matrix(1.00, 0.00, -0.00, -1.00, 0.0, 768.0)"><path d="M 0.0 768.0 L 1024.0 768.0 L 1024.0 0.0 L 0.0 0.0 Z M 0.0 768.0 " fill="#FEFFFF"></path><text xml:space="preserve" font-family="BebasNeueRegular" font-size="80.0" fill="#000000" transform="matrix(1.00, 0.00, -0.00, -1.00, 327.0, 354.0)">C</text><text xml:space="preserve" font-family="BebasNeueRegular" font-size="80.0" fill="#000000" transform="matrix(1.00, 0.00, -0.00, -1.00, 357.4, 354.0)">u</text><text xml:space="preserve" font-family="BebasNeueRegular" font-size="80.0" fill="#000000" transform="matrix(1.00, 0.00, -0.00, -1.00, 388.4, 354.0)">r</text><text xml:space="preserve" font-family="BebasNeueRegular" font-size="80.0" fill="#000000" transform="matrix(1.00, 0.00, -0.00, -1.00, 419.9, 354.0)">r</text><text xml:space="preserve" font-family="BebasNeueRegular" font-size="80.0" fill="#000000" transform="matrix(1.00, 0.00, -0.00, -1.00, 451.4, 354.0)">e</text><text xml:space="preserve" font-family="BebasNeueRegular" font-size="80.0" fill="#000000" transform="matrix(1.00, 0.00, -0.00, -1.00, 480.2, 354.0)">n</text><text xml:space="preserve" font-family="BebasNeueRegular" font-size="80.0" fill="#000000" transform="matrix(1.00, 0.00, -0.00, -1.00, 512.9, 354.0)">t</text><text xml:space="preserve" font-family="BebasNeueRegular" font-size="80.0" fill="#000000" transform="matrix(1.00, 0.00, -0.00, -1.00, 541.7, 354.0)"> </text><text xml:space="preserve" font-family="BebasNeueRegular" font-size="80.0" fill="#000000" transform="matrix(1.00, 0.00, -0.00, -1.00, 554.1, 354.0)">s</text><text xml:space="preserve" font-family="BebasNeueRegular" font-size="80.0" fill="#000000" transform="matrix(1.00, 0.00, -0.00, -1.00, 583.9, 354.0)">t</text><text xml:space="preserve" font-family="BebasNeueRegular" font-size="80.0" fill="#000000" transform="matrix(1.00, 0.00, -0.00, -1.00, 609.6, 354.0)">a</text><text xml:space="preserve" font-family="BebasNeueRegular" font-size="80.0" fill="#000000" transform="matrix(1.00, 0.00, -0.00, -1.00, 640.4, 354.0)">t</text><text xml:space="preserve" font-family="BebasNeueRegular" font-size="80.0" fill="#000000" transform="matrix(1.00, 0.00, -0.00, -1.00, 669.2, 354.0)">e</text><image xlink:href="../../F18E1ACF-D7AF-48AA-BAE0-E2673DC94CA9/assets/7FEB93579C31987C45DA1F2A667FDC16.png" width="70.00" height="65.00" transform="matrix(0.99, 0.00, -0.00, -1.02, 930.0, 76.0)"></image></g></svg>