<?xml version="1.0" encoding="UTF-8" standalone="no"?><svg xmlns="http://www.w3.org/2000/svg" xmlns:xlink="http://www.w3.org/1999/xlink" clip-rule="evenodd" stroke-miterlimit="4.00" viewBox="0 0 1024 768"><desc>SVG generated by Keynote</desc><defs></defs><g transform="matrix(1.00, 0.00, -0.00, -1.00, 0.0, 768.0)"><path d="M 0.0 768.0 L 1024.0 768.0 L 1024.0 0.0 L 0.0 0.0 Z M 0.0 768.0 " fill="#FEFFFF"></path><text xml:space="preserve" font-family="BebasNeueRegular" font-size="80.0" fill="#000000" transform="matrix(1.00, 0.00, -0.00, -1.00, 36.0, 618.0)">G</text><text xml:space="preserve" font-family="BebasNeueRegular" font-size="80.0" fill="#000000" transform="matrix(1.00, 0.00, -0.00, -1.00, 66.6, 618.0)">e</text><text xml:space="preserve" font-family="BebasNeueRegular" font-size="80.0" fill="#000000" transform="matrix(1.00, 0.00, -0.00, -1.00, 95.4, 618.0)">t</text><text xml:space="preserve" font-family="BebasNeueRegular" font-size="80.0" fill="#000000" transform="matrix(1.00, 0.00, -0.00, -1.00, 124.2, 618.0)"> </text><text xml:space="preserve" font-family="BebasNeueRegular" font-size="80.0" fill="#000000" transform="matrix(1.00, 0.00, -0.00, -1.00, 136.6, 618.0)">F</text><text xml:space="preserve" font-family="BebasNeueRegular" font-size="80.0" fill="#000000" transform="matrix(1.00, 0.00, -0.00, -1.00, 163.8, 618.0)">i</text><text xml:space="preserve" font-family="BebasNeueRegular" font-size="80.0" fill="#000000" transform="matrix(1.00, 0.00, -0.00, -1.00, 176.5, 618.0)">t</text><text xml:space="preserve" font-family="BebasNeueRegular" font-size="80.0" fill="#000000" transform="matrix(1.00, 0.00, -0.00, -1.00, 205.3, 618.0)"> </text><text xml:space="preserve" font-family="BebasNeueRegular" font-size="80.0" fill="#000000" transform="matrix(1.00, 0.00, -0.00, -1.00, 217.7, 618.0)">w</text><text xml:space="preserve" font-family="BebasNeueRegular" font-size="80.0" fill="#000000" transform="matrix(1.00, 0.00, -0.00, -1.00, 264.3, 618.0)">i</text><text xml:space="preserve" font-family="BebasNeueRegular" font-size="80.0" fill="#000000" transform="matrix(1.00, 0.00, -0.00, -1.00, 277.0, 618.0)">t</text><text xml:space="preserve" font-family="BebasNeueRegular" font-size="80.0" fill="#000000" transform="matrix(1.00, 0.00, -0.00, -1.00, 305.8, 618.0)">h</text><text xml:space="preserve" font-family="BebasNeueRegular" font-size="80.0" fill="#000000" transform="matrix(1.00, 0.00, -0.00, -1.00, 338.4, 618.0)"> </text><text xml:space="preserve" font-family="BebasNeueRegular" font-size="80.0" fill="#000000" transform="matrix(1.00, 0.00, -0.00, -1.00, 350.8, 618.0)">M</text><text xml:space="preserve" font-family="BebasNeueRegular" font-size="80.0" fill="#000000" transform="matrix(1.00, 0.00, -0.00, -1.00, 392.6, 618.0)">a</text><text xml:space="preserve" font-family="BebasNeueRegular" font-size="80.0" fill="#000000" transform="matrix(1.00, 0.00, -0.00, -1.00, 426.4, 618.0)">s</text><text xml:space="preserve" font-family="BebasNeueRegular" font-size="80.0" fill="#000000" transform="matrix(1.00, 0.00, -0.00, -1.00, 456.2, 618.0)">s</text><text xml:space="preserve" font-family="BebasNeueRegular" font-size="80.0" fill="#000000" transform="matrix(1.00, 0.00, -0.00, -1.00, 485.9, 618.0)">i</text><text xml:space="preserve" font-family="Lora-Bold" font-weight="bold" font-size="24.0" fill="#000000" transform="matrix(1.00, 0.00, -0.00, -1.00, 39.0, 379.0)">A</text><text xml:space="preserve" font-family="Lora-Bold" font-weight="bold" font-size="24.0" fill="#000000" transform="matrix(1.00, 0.00, -0.00, -1.00, 54.9, 379.0)">s</text><text xml:space="preserve" font-family="Lora-Bold" font-weight="bold" font-size="24.0" fill="#000000" transform="matrix(1.00, 0.00, -0.00, -1.00, 66.5, 379.0)">k</text><text xml:space="preserve" font-family="Lora-Bold" font-weight="bold" font-size="24.0" fill="#000000" transform="matrix(1.00, 0.00, -0.00, -1.00, 80.8, 379.0)">:</text><text xml:space="preserve" font-family="Lora-Bold" font-weight="bold" font-size="24.0" fill="#000000" transform="matrix(1.00, 0.00, -0.00, -1.00, 86.7, 379.0)"> </text><text xml:space="preserve" font-family="Lora-Regular" font-size="24.0" fill="#000000" transform="matrix(1.00, 0.00, -0.00, -1.00, 39.0, 349.0)">M</text><text xml:space="preserve" font-family="Lora-Regular" font-size="24.0" fill="#000000" transform="matrix(1.00, 0.00, -0.00, -1.00, 61.0, 349.0)">a</text><text xml:space="preserve" font-family="Lora-Regular" font-size="24.0" fill="#000000" transform="matrix(1.00, 0.00, -0.00, -1.00, 73.4, 349.0)">s</text><text xml:space="preserve" font-family="Lora-Regular" font-size="24.0" fill="#000000" transform="matrix(1.00, 0.00, -0.00, -1.00, 84.5, 349.0)">i</text><text xml:space="preserve" font-family="Lora-Regular" font-size="24.0" fill="#000000" transform="matrix(1.00, 0.00, -0.00, -1.00, 91.3, 349.0)">e</text><text xml:space="preserve" font-family="Lora-Regular" font-size="24.0" fill="#000000" transform="matrix(1.00, 0.00, -0.00, -1.00, 104.3, 349.0)">l</text><text xml:space="preserve" font-family="Lora-Regular" font-size="24.0" fill="#000000" transform="matrix(1.00, 0.00, -0.00, -1.00, 110.8, 349.0)"> </text><text xml:space="preserve" font-family="Lora-Regular" font-size="24.0" fill="#000000" transform="matrix(1.00, 0.00, -0.00, -1.00, 117.1, 349.0)">n</text><text xml:space="preserve" font-family="Lora-Regular" font-size="24.0" fill="#000000" transform="matrix(1.00, 0.00, -0.00, -1.00, 131.7, 349.0)">e</text><text xml:space="preserve" font-family="Lora-Regular" font-size="24.0" fill="#000000" transform="matrix(1.00, 0.00, -0.00, -1.00, 144.6, 349.0)">e</text><text xml:space="preserve" font-family="Lora-Regular" font-size="24.0" fill="#000000" transform="matrix(1.00, 0.00, -0.00, -1.00, 157.5, 349.0)">d</text><text xml:space="preserve" font-family="Lora-Regular" font-size="24.0" fill="#000000" transform="matrix(1.00, 0.00, -0.00, -1.00, 171.8, 349.0)">e</text><text xml:space="preserve" font-family="Lora-Regular" font-size="24.0" fill="#000000" transform="matrix(1.00, 0.00, -0.00, -1.00, 184.7, 349.0)">d</text><text xml:space="preserve" font-family="Lora-Regular" font-size="24.0" fill="#000000" transform="matrix(1.00, 0.00, -0.00, -1.00, 199.1, 349.0)"> </text><text xml:space="preserve" font-family="Lora-Regular" font-size="24.0" fill="#000000" transform="matrix(1.00, 0.00, -0.00, -1.00, 205.4, 349.0)">a</text><text xml:space="preserve" font-family="Lora-Regular" font-size="24.0" fill="#000000" transform="matrix(1.00, 0.00, -0.00, -1.00, 217.8, 349.0)"> </text><text xml:space="preserve" font-family="Lora-Regular" font-size="24.0" fill="#000000" transform="matrix(1.00, 0.00, -0.00, -1.00, 224.1, 349.0)">w</text><text xml:space="preserve" font-family="Lora-Regular" font-size="24.0" fill="#000000" transform="matrix(1.00, 0.00, -0.00, -1.00, 243.0, 349.0)">e</text><text xml:space="preserve" font-family="Lora-Regular" font-size="24.0" fill="#000000" transform="matrix(1.00, 0.00, -0.00, -1.00, 256.0, 349.0)">b</text><text xml:space="preserve" font-family="Lora-Regular" font-size="24.0" fill="#000000" transform="matrix(1.00, 0.00, -0.00, -1.00, 270.0, 349.0)">s</text><text xml:space="preserve" font-family="Lora-Regular" font-size="24.0" fill="#000000" transform="matrix(1.00, 0.00, -0.00, -1.00, 281.1, 349.0)">i</text><text xml:space="preserve" font-family="Lora-Regular" font-size="24.0" fill="#000000" transform="matrix(1.00, 0.00, -0.00, -1.00, 287.7, 349.0)">t</text><text xml:space="preserve" font-family="Lora-Regular" font-size="24.0" fill="#000000" transform="matrix(1.00, 0.00, -0.00, -1.00, 297.0, 349.0)">e</text><text xml:space="preserve" font-family="Lora-Regular" font-size="24.0" fill="#000000" transform="matrix(1.00, 0.00, -0.00, -1.00, 310.0, 349.0)"> </text><text xml:space="preserve" font-family="Lora-Regular" font-size="24.0" fill="#000000" transform="matrix(1.00, 0.00, -0.00, -1.00, 316.4, 349.0)">t</text><text xml:space="preserve" font-family="Lora-Regular" font-size="24.0" fill="#000000" transform="matrix(1.00, 0.00, -0.00, -1.00, 325.7, 349.0)">o</text><text xml:space="preserve" font-family="Lora-Regular" font-size="24.0" fill="#000000" transform="matrix(1.00, 0.00, -0.00, -1.00, 339.7, 349.0)"> </text><text xml:space="preserve" font-family="Lora-Regular" font-size="24.0" fill="#000000" transform="matrix(1.00, 0.00, -0.00, -1.00, 346.0, 349.0)">s</text><text xml:space="preserve" font-family="Lora-Regular" font-size="24.0" fill="#000000" transform="matrix(1.00, 0.00, -0.00, -1.00, 357.1, 349.0)">u</text><text xml:space="preserve" font-family="Lora-Regular" font-size="24.0" fill="#000000" transform="matrix(1.00, 0.00, -0.00, -1.00, 371.5, 349.0)">p</text><text xml:space="preserve" font-family="Lora-Regular" font-size="24.0" fill="#000000" transform="matrix(1.00, 0.00, -0.00, -1.00, 385.8, 349.0)">p</text><text xml:space="preserve" font-family="Lora-Regular" font-size="24.0" fill="#000000" transform="matrix(1.00, 0.00, -0.00, -1.00, 400.1, 349.0)">l</text><text xml:space="preserve" font-family="Lora-Regular" font-size="24.0" fill="#000000" transform="matrix(1.00, 0.00, -0.00, -1.00, 406.7, 349.0)">e</text><text xml:space="preserve" font-family="Lora-Regular" font-size="24.0" fill="#000000" transform="matrix(1.00, 0.00, -0.00, -1.00, 419.7, 349.0)">m</text><text xml:space="preserve" font-family="Lora-Regular" font-size="24.0" fill="#000000" transform="matrix(1.00, 0.00, -0.00, -1.00, 441.1, 349.0)">e</text><text xml:space="preserve" font-family="Lora-Regular" font-size="24.0" fill="#000000" transform="matrix(1.00, 0.00, -0.00, -1.00, 454.1, 349.0)">n</text><text xml:space="preserve" font-family="Lora-Regular" font-size="24.0" fill="#000000" transform="matrix(1.00, 0.00, -0.00, -1.00, 468.5, 349.0)">t</text><text xml:space="preserve" font-family="Lora-Regular" font-size="24.0" fill="#000000" transform="matrix(1.00, 0.00, -0.00, -1.00, 477.8, 349.0)"> </text><text xml:space="preserve" font-family="Lora-Regular" font-size="24.0" fill="#000000" transform="matrix(1.00, 0.00, -0.00, -1.00, 484.1, 349.0)">h</text><text xml:space="preserve" font-family="Lora-Regular" font-size="24.0" fill="#000000" transform="matrix(1.00, 0.00, -0.00, -1.00, 498.5, 349.0)">e</text><text xml:space="preserve" font-family="Lora-Regular" font-size="24.0" fill="#000000" transform="matrix(1.00, 0.00, -0.00, -1.00, 511.5, 349.0)">r</text><text xml:space="preserve" font-family="Lora-Regular" font-size="24.0" fill="#000000" transform="matrix(1.00, 0.00, -0.00, -1.00, 521.9, 349.0)"> </text><text xml:space="preserve" font-family="Lora-Regular" font-size="24.0" fill="#000000" transform="matrix(1.00, 0.00, -0.00, -1.00, 528.2, 349.0)">1</text><text xml:space="preserve" font-family="Lora-Regular" font-size="24.0" fill="#000000" transform="matrix(1.00, 0.00, -0.00, -1.00, 536.7, 349.0)">-</text><text xml:space="preserve" font-family="Lora-Regular" font-size="24.0" fill="#000000" transform="matrix(1.00, 0.00, -0.00, -1.00, 548.4, 349.0)">o</text><text xml:space="preserve" font-family="Lora-Regular" font-size="24.0" fill="#000000" transform="matrix(1.00, 0.00, -0.00, -1.00, 562.4, 349.0)">n</text><text xml:space="preserve" font-family="Lora-Regular" font-size="24.0" fill="#000000" transform="matrix(1.00, 0.00, -0.00, -1.00, 577.0, 349.0)">-</text><text xml:space="preserve" font-family="Lora-Regular" font-size="24.0" fill="#000000" transform="matrix(1.00, 0.00, -0.00, -1.00, 588.1, 349.0)">1</text><text xml:space="preserve" font-family="Lora-Regular" font-size="24.0" fill="#000000" transform="matrix(1.00, 0.00, -0.00, -1.00, 596.8, 349.0)"> </text><text xml:space="preserve" font-family="Lora-Regular" font-size="24.0" fill="#000000" transform="matrix(1.00, 0.00, -0.00, -1.00, 603.1, 349.0)">s</text><text xml:space="preserve" font-family="Lora-Regular" font-size="24.0" fill="#000000" transform="matrix(1.00, 0.00, -0.00, -1.00, 614.2, 349.0)">e</text><text xml:space="preserve" font-family="Lora-Regular" font-size="24.0" fill="#000000" transform="matrix(1.00, 0.00, -0.00, -1.00, 627.3, 349.0)">s</text><text xml:space="preserve" font-family="Lora-Regular" font-size="24.0" fill="#000000" transform="matrix(1.00, 0.00, -0.00, -1.00, 638.4, 349.0)">s</text><text xml:space="preserve" font-family="Lora-Regular" font-size="24.0" fill="#000000" transform="matrix(1.00, 0.00, -0.00, -1.00, 649.5, 349.0)">i</text><text xml:space="preserve" font-family="Lora-Regular" font-size="24.0" fill="#000000" transform="matrix(1.00, 0.00, -0.00, -1.00, 656.2, 349.0)">o</text><text xml:space="preserve" font-family="Lora-Regular" font-size="24.0" fill="#000000" transform="matrix(1.00, 0.00, -0.00, -1.00, 670.2, 349.0)">n</text><text xml:space="preserve" font-family="Lora-Regular" font-size="24.0" fill="#000000" transform="matrix(1.00, 0.00, -0.00, -1.00, 684.8, 349.0)">s</text><text xml:space="preserve" font-family="Lora-Regular" font-size="24.0" fill="#000000" transform="matrix(1.00, 0.00, -0.00, -1.00, 695.9, 349.0)"> </text><text xml:space="preserve" font-family="Lora-Regular" font-size="24.0" fill="#000000" transform="matrix(1.00, 0.00, -0.00, -1.00, 702.2, 349.0)">w</text><text xml:space="preserve" font-family="Lora-Regular" font-size="24.0" fill="#000000" transform="matrix(1.00, 0.00, -0.00, -1.00, 721.4, 349.0)">i</text><text xml:space="preserve" font-family="Lora-Regular" font-size="24.0" fill="#000000" transform="matrix(1.00, 0.00, -0.00, -1.00, 728.1, 349.0)">t</text><text xml:space="preserve" font-family="Lora-Regular" font-size="24.0" fill="#000000" transform="matrix(1.00, 0.00, -0.00, -1.00, 737.4, 349.0)">h</text><text xml:space="preserve" font-family="Lora-Regular" font-size="24.0" fill="#000000" transform="matrix(1.00, 0.00, -0.00, -1.00, 751.8, 349.0)"> </text><text xml:space="preserve" font-family="Lora-Regular" font-size="24.0" fill="#000000" transform="matrix(1.00, 0.00, -0.00, -1.00, 758.1, 349.0)">h</text><text xml:space="preserve" font-family="Lora-Regular" font-size="24.0" fill="#000000" transform="matrix(1.00, 0.00, -0.00, -1.00, 772.5, 349.0)">e</text><text xml:space="preserve" font-family="Lora-Regular" font-size="24.0" fill="#000000" transform="matrix(1.00, 0.00, -0.00, -1.00, 785.5, 349.0)">r</text><text xml:space="preserve" font-family="Lora-Regular" font-size="24.0" fill="#000000" transform="matrix(1.00, 0.00, -0.00, -1.00, 795.9, 349.0)"> </text><text xml:space="preserve" font-family="Lora-Regular" font-size="24.0" fill="#000000" transform="matrix(1.00, 0.00, -0.00, -1.00, 802.2, 349.0)">f</text><text xml:space="preserve" font-family="Lora-Regular" font-size="24.0" fill="#000000" transform="matrix(1.00, 0.00, -0.00, -1.00, 811.0, 349.0)">i</text><text xml:space="preserve" font-family="Lora-Regular" font-size="24.0" fill="#000000" transform="matrix(1.00, 0.00, -0.00, -1.00, 817.7, 349.0)">t</text><text xml:space="preserve" font-family="Lora-Regular" font-size="24.0" fill="#000000" transform="matrix(1.00, 0.00, -0.00, -1.00, 827.0, 349.0)">n</text><text xml:space="preserve" font-family="Lora-Regular" font-size="24.0" fill="#000000" transform="matrix(1.00, 0.00, -0.00, -1.00, 841.5, 349.0)">e</text><text xml:space="preserve" font-family="Lora-Regular" font-size="24.0" fill="#000000" transform="matrix(1.00, 0.00, -0.00, -1.00, 854.6, 349.0)">s</text><text xml:space="preserve" font-family="Lora-Regular" font-size="24.0" fill="#000000" transform="matrix(1.00, 0.00, -0.00, -1.00, 865.7, 349.0)">s</text><text xml:space="preserve" font-family="Lora-Regular" font-size="24.0" fill="#000000" transform="matrix(1.00, 0.00, -0.00, -1.00, 876.8, 349.0)"> </text><text xml:space="preserve" font-family="Lora-Regular" font-size="24.0" fill="#000000" transform="matrix(1.00, 0.00, -0.00, -1.00, 883.1, 349.0)">c</text><text xml:space="preserve" font-family="Lora-Regular" font-size="24.0" fill="#000000" transform="matrix(1.00, 0.00, -0.00, -1.00, 895.9, 349.0)">l</text><text xml:space="preserve" font-family="Lora-Regular" font-size="24.0" fill="#000000" transform="matrix(1.00, 0.00, -0.00, -1.00, 902.4, 349.0)">i</text><text xml:space="preserve" font-family="Lora-Regular" font-size="24.0" fill="#000000" transform="matrix(1.00, 0.00, -0.00, -1.00, 909.1, 349.0)">e</text><text xml:space="preserve" font-family="Lora-Regular" font-size="24.0" fill="#000000" transform="matrix(1.00, 0.00, -0.00, -1.00, 922.1, 349.0)">n</text><text xml:space="preserve" font-family="Lora-Regular" font-size="24.0" fill="#000000" transform="matrix(1.00, 0.00, -0.00, -1.00, 936.5, 349.0)">t</text><text xml:space="preserve" font-family="Lora-Regular" font-size="24.0" fill="#000000" transform="matrix(1.00, 0.00, -0.00, -1.00, 945.8, 349.0)">s</text><text xml:space="preserve" font-family="Lora-Regular" font-size="24.0" fill="#000000" transform="matrix(1.00, 0.00, -0.00, -1.00, 956.9, 349.0)">.</text><text xml:space="preserve" font-family="Lora-Regular" font-size="24.0" fill="#000000" transform="matrix(1.00, 0.00, -0.00, -1.00, 962.8, 349.0)"> </text><text xml:space="preserve" font-family="Lora-Regular" font-size="24.0" fill="#000000" transform="matrix(1.00, 0.00, -0.00, -1.00, 39.0, 320.0)">S</text><text xml:space="preserve" font-family="Lora-Regular" font-size="24.0" fill="#000000" transform="matrix(1.00, 0.00, -0.00, -1.00, 52.6, 320.0)">h</text><text xml:space="preserve" font-family="Lora-Regular" font-size="24.0" fill="#000000" transform="matrix(1.00, 0.00, -0.00, -1.00, 67.0, 320.0)">e</text><text xml:space="preserve" font-family="Lora-Regular" font-size="24.0" fill="#000000" transform="matrix(1.00, 0.00, -0.00, -1.00, 80.0, 320.0)"> </text><text xml:space="preserve" font-family="Lora-Regular" font-size="24.0" fill="#000000" transform="matrix(1.00, 0.00, -0.00, -1.00, 86.3, 320.0)">w</text><text xml:space="preserve" font-family="Lora-Regular" font-size="24.0" fill="#000000" transform="matrix(1.00, 0.00, -0.00, -1.00, 105.3, 320.0)">a</text><text xml:space="preserve" font-family="Lora-Regular" font-size="24.0" fill="#000000" transform="matrix(1.00, 0.00, -0.00, -1.00, 117.7, 320.0)">n</text><text xml:space="preserve" font-family="Lora-Regular" font-size="24.0" fill="#000000" transform="matrix(1.00, 0.00, -0.00, -1.00, 132.0, 320.0)">t</text><text xml:space="preserve" font-family="Lora-Regular" font-size="24.0" fill="#000000" transform="matrix(1.00, 0.00, -0.00, -1.00, 141.3, 320.0)">e</text><text xml:space="preserve" font-family="Lora-Regular" font-size="24.0" fill="#000000" transform="matrix(1.00, 0.00, -0.00, -1.00, 154.2, 320.0)">d</text><text xml:space="preserve" font-family="Lora-Regular" font-size="24.0" fill="#000000" transform="matrix(1.00, 0.00, -0.00, -1.00, 168.6, 320.0)"> </text><text xml:space="preserve" font-family="Lora-Regular" font-size="24.0" fill="#000000" transform="matrix(1.00, 0.00, -0.00, -1.00, 174.9, 320.0)">a</text><text xml:space="preserve" font-family="Lora-Regular" font-size="24.0" fill="#000000" transform="matrix(1.00, 0.00, -0.00, -1.00, 187.3, 320.0)"> </text><text xml:space="preserve" font-family="Lora-Regular" font-size="24.0" fill="#000000" transform="matrix(1.00, 0.00, -0.00, -1.00, 193.6, 320.0)">b</text><text xml:space="preserve" font-family="Lora-Regular" font-size="24.0" fill="#000000" transform="matrix(1.00, 0.00, -0.00, -1.00, 207.6, 320.0)">a</text><text xml:space="preserve" font-family="Lora-Regular" font-size="24.0" fill="#000000" transform="matrix(1.00, 0.00, -0.00, -1.00, 220.0, 320.0)">s</text><text xml:space="preserve" font-family="Lora-Regular" font-size="24.0" fill="#000000" transform="matrix(1.00, 0.00, -0.00, -1.00, 231.1, 320.0)">i</text><text xml:space="preserve" font-family="Lora-Regular" font-size="24.0" fill="#000000" transform="matrix(1.00, 0.00, -0.00, -1.00, 237.8, 320.0)">c</text><text xml:space="preserve" font-family="Lora-Regular" font-size="24.0" fill="#000000" transform="matrix(1.00, 0.00, -0.00, -1.00, 250.6, 320.0)">,</text><text xml:space="preserve" font-family="Lora-Regular" font-size="24.0" fill="#000000" transform="matrix(1.00, 0.00, -0.00, -1.00, 256.7, 320.0)"> </text><text xml:space="preserve" font-family="Lora-Regular" font-size="24.0" fill="#000000" transform="matrix(1.00, 0.00, -0.00, -1.00, 263.0, 320.0)">o</text><text xml:space="preserve" font-family="Lora-Regular" font-size="24.0" fill="#000000" transform="matrix(1.00, 0.00, -0.00, -1.00, 277.0, 320.0)">n</text><text xml:space="preserve" font-family="Lora-Regular" font-size="24.0" fill="#000000" transform="matrix(1.00, 0.00, -0.00, -1.00, 291.6, 320.0)">e</text><text xml:space="preserve" font-family="Lora-Regular" font-size="24.0" fill="#000000" transform="matrix(1.00, 0.00, -0.00, -1.00, 304.6, 320.0)">-</text><text xml:space="preserve" font-family="Lora-Regular" font-size="24.0" fill="#000000" transform="matrix(1.00, 0.00, -0.00, -1.00, 316.3, 320.0)">p</text><text xml:space="preserve" font-family="Lora-Regular" font-size="24.0" fill="#000000" transform="matrix(1.00, 0.00, -0.00, -1.00, 330.7, 320.0)">a</text><text xml:space="preserve" font-family="Lora-Regular" font-size="24.0" fill="#000000" transform="matrix(1.00, 0.00, -0.00, -1.00, 343.0, 320.0)">g</text><text xml:space="preserve" font-family="Lora-Regular" font-size="24.0" fill="#000000" transform="matrix(1.00, 0.00, -0.00, -1.00, 356.3, 320.0)">e</text><text xml:space="preserve" font-family="Lora-Regular" font-size="24.0" fill="#000000" transform="matrix(1.00, 0.00, -0.00, -1.00, 369.3, 320.0)"> </text><text xml:space="preserve" font-family="Lora-Regular" font-size="24.0" fill="#000000" transform="matrix(1.00, 0.00, -0.00, -1.00, 375.7, 320.0)">w</text><text xml:space="preserve" font-family="Lora-Regular" font-size="24.0" fill="#000000" transform="matrix(1.00, 0.00, -0.00, -1.00, 394.6, 320.0)">e</text><text xml:space="preserve" font-family="Lora-Regular" font-size="24.0" fill="#000000" transform="matrix(1.00, 0.00, -0.00, -1.00, 407.6, 320.0)">b</text><text xml:space="preserve" font-family="Lora-Regular" font-size="24.0" fill="#000000" transform="matrix(1.00, 0.00, -0.00, -1.00, 421.5, 320.0)">s</text><text xml:space="preserve" font-family="Lora-Regular" font-size="24.0" fill="#000000" transform="matrix(1.00, 0.00, -0.00, -1.00, 432.7, 320.0)">i</text><text xml:space="preserve" font-family="Lora-Regular" font-size="24.0" fill="#000000" transform="matrix(1.00, 0.00, -0.00, -1.00, 439.3, 320.0)">t</text><text xml:space="preserve" font-family="Lora-Regular" font-size="24.0" fill="#000000" transform="matrix(1.00, 0.00, -0.00, -1.00, 448.6, 320.0)">e</text><text xml:space="preserve" font-family="Lora-Regular" font-size="24.0" fill="#000000" transform="matrix(1.00, 0.00, -0.00, -1.00, 461.6, 320.0)"> </text><text xml:space="preserve" font-family="Lora-Regular" font-size="24.0" fill="#000000" transform="matrix(1.00, 0.00, -0.00, -1.00, 467.9, 320.0)">t</text><text xml:space="preserve" font-family="Lora-Regular" font-size="24.0" fill="#000000" transform="matrix(1.00, 0.00, -0.00, -1.00, 477.2, 320.0)">h</text><text xml:space="preserve" font-family="Lora-Regular" font-size="24.0" fill="#000000" transform="matrix(1.00, 0.00, -0.00, -1.00, 491.6, 320.0)">a</text><text xml:space="preserve" font-family="Lora-Regular" font-size="24.0" fill="#000000" transform="matrix(1.00, 0.00, -0.00, -1.00, 503.8, 320.0)">t</text><text xml:space="preserve" font-family="Lora-Regular" font-size="24.0" fill="#000000" transform="matrix(1.00, 0.00, -0.00, -1.00, 513.1, 320.0)"> </text><text xml:space="preserve" font-family="Lora-Regular" font-size="24.0" fill="#000000" transform="matrix(1.00, 0.00, -0.00, -1.00, 519.4, 320.0)">c</text><text xml:space="preserve" font-family="Lora-Regular" font-size="24.0" fill="#000000" transform="matrix(1.00, 0.00, -0.00, -1.00, 532.1, 320.0)">o</text><text xml:space="preserve" font-family="Lora-Regular" font-size="24.0" fill="#000000" transform="matrix(1.00, 0.00, -0.00, -1.00, 546.1, 320.0)">u</text><text xml:space="preserve" font-family="Lora-Regular" font-size="24.0" fill="#000000" transform="matrix(1.00, 0.00, -0.00, -1.00, 560.5, 320.0)">l</text><text xml:space="preserve" font-family="Lora-Regular" font-size="24.0" fill="#000000" transform="matrix(1.00, 0.00, -0.00, -1.00, 567.0, 320.0)">d</text><text xml:space="preserve" font-family="Lora-Regular" font-size="24.0" fill="#000000" transform="matrix(1.00, 0.00, -0.00, -1.00, 581.4, 320.0)"> </text><text xml:space="preserve" font-family="Lora-Regular" font-size="24.0" fill="#000000" transform="matrix(1.00, 0.00, -0.00, -1.00, 587.7, 320.0)">h</text><text xml:space="preserve" font-family="Lora-Regular" font-size="24.0" fill="#000000" transform="matrix(1.00, 0.00, -0.00, -1.00, 602.1, 320.0)">o</text><text xml:space="preserve" font-family="Lora-Regular" font-size="24.0" fill="#000000" transform="matrix(1.00, 0.00, -0.00, -1.00, 616.1, 320.0)">s</text><text xml:space="preserve" font-family="Lora-Regular" font-size="24.0" fill="#000000" transform="matrix(1.00, 0.00, -0.00, -1.00, 627.2, 320.0)">t</text><text xml:space="preserve" font-family="Lora-Regular" font-size="24.0" fill="#000000" transform="matrix(1.00, 0.00, -0.00, -1.00, 636.5, 320.0)"> </text><text xml:space="preserve" font-family="Lora-Regular" font-size="24.0" fill="#000000" transform="matrix(1.00, 0.00, -0.00, -1.00, 642.8, 320.0)">a</text><text xml:space="preserve" font-family="Lora-Regular" font-size="24.0" fill="#000000" transform="matrix(1.00, 0.00, -0.00, -1.00, 655.2, 320.0)"> </text><text xml:space="preserve" font-family="Lora-Regular" font-size="24.0" fill="#000000" transform="matrix(1.00, 0.00, -0.00, -1.00, 661.5, 320.0)">b</text><text xml:space="preserve" font-family="Lora-Regular" font-size="24.0" fill="#000000" transform="matrix(1.00, 0.00, -0.00, -1.00, 675.5, 320.0)">i</text><text xml:space="preserve" font-family="Lora-Regular" font-size="24.0" fill="#000000" transform="matrix(1.00, 0.00, -0.00, -1.00, 682.2, 320.0)">o</text><text xml:space="preserve" font-family="Lora-Regular" font-size="24.0" fill="#000000" transform="matrix(1.00, 0.00, -0.00, -1.00, 696.3, 320.0)">,</text><text xml:space="preserve" font-family="Lora-Regular" font-size="24.0" fill="#000000" transform="matrix(1.00, 0.00, -0.00, -1.00, 702.3, 320.0)"> </text><text xml:space="preserve" font-family="Lora-Regular" font-size="24.0" fill="#000000" transform="matrix(1.00, 0.00, -0.00, -1.00, 708.7, 320.0)">e</text><text xml:space="preserve" font-family="Lora-Regular" font-size="24.0" fill="#000000" transform="matrix(1.00, 0.00, -0.00, -1.00, 721.7, 320.0)">m</text><text xml:space="preserve" font-family="Lora-Regular" font-size="24.0" fill="#000000" transform="matrix(1.00, 0.00, -0.00, -1.00, 743.1, 320.0)">a</text><text xml:space="preserve" font-family="Lora-Regular" font-size="24.0" fill="#000000" transform="matrix(1.00, 0.00, -0.00, -1.00, 755.5, 320.0)">i</text><text xml:space="preserve" font-family="Lora-Regular" font-size="24.0" fill="#000000" transform="matrix(1.00, 0.00, -0.00, -1.00, 762.3, 320.0)">l</text><text xml:space="preserve" font-family="Lora-Regular" font-size="24.0" fill="#000000" transform="matrix(1.00, 0.00, -0.00, -1.00, 768.8, 320.0)"> </text><text xml:space="preserve" font-family="Lora-Regular" font-size="24.0" fill="#000000" transform="matrix(1.00, 0.00, -0.00, -1.00, 775.1, 320.0)">i</text><text xml:space="preserve" font-family="Lora-Regular" font-size="24.0" fill="#000000" transform="matrix(1.00, 0.00, -0.00, -1.00, 781.8, 320.0)">n</text><text xml:space="preserve" font-family="Lora-Regular" font-size="24.0" fill="#000000" transform="matrix(1.00, 0.00, -0.00, -1.00, 796.4, 320.0)">f</text><text xml:space="preserve" font-family="Lora-Regular" font-size="24.0" fill="#000000" transform="matrix(1.00, 0.00, -0.00, -1.00, 804.4, 320.0)">o</text><text xml:space="preserve" font-family="Lora-Regular" font-size="24.0" fill="#000000" transform="matrix(1.00, 0.00, -0.00, -1.00, 818.4, 320.0)"> </text><text xml:space="preserve" font-family="Lora-Regular" font-size="24.0" fill="#000000" transform="matrix(1.00, 0.00, -0.00, -1.00, 824.7, 320.0)">a</text><text xml:space="preserve" font-family="Lora-Regular" font-size="24.0" fill="#000000" transform="matrix(1.00, 0.00, -0.00, -1.00, 837.1, 320.0)">n</text><text xml:space="preserve" font-family="Lora-Regular" font-size="24.0" fill="#000000" transform="matrix(1.00, 0.00, -0.00, -1.00, 851.7, 320.0)">d</text><text xml:space="preserve" font-family="Lora-Regular" font-size="24.0" fill="#000000" transform="matrix(1.00, 0.00, -0.00, -1.00, 866.1, 320.0)"> </text><text xml:space="preserve" font-family="Lora-Regular" font-size="24.0" fill="#000000" transform="matrix(1.00, 0.00, -0.00, -1.00, 872.4, 320.0)">a</text><text xml:space="preserve" font-family="Lora-Regular" font-size="24.0" fill="#000000" transform="matrix(1.00, 0.00, -0.00, -1.00, 884.8, 320.0)"> </text><text xml:space="preserve" font-family="Lora-Regular" font-size="24.0" fill="#000000" transform="matrix(1.00, 0.00, -0.00, -1.00, 891.1, 320.0)">l</text><text xml:space="preserve" font-family="Lora-Regular" font-size="24.0" fill="#000000" transform="matrix(1.00, 0.00, -0.00, -1.00, 897.6, 320.0)">i</text><text xml:space="preserve" font-family="Lora-Regular" font-size="24.0" fill="#000000" transform="matrix(1.00, 0.00, -0.00, -1.00, 904.4, 320.0)">n</text><text xml:space="preserve" font-family="Lora-Regular" font-size="24.0" fill="#000000" transform="matrix(1.00, 0.00, -0.00, -1.00, 918.9, 320.0)">k</text><text xml:space="preserve" font-family="Lora-Regular" font-size="24.0" fill="#000000" transform="matrix(1.00, 0.00, -0.00, -1.00, 931.8, 320.0)"> </text><text xml:space="preserve" font-family="Lora-Regular" font-size="24.0" fill="#000000" transform="matrix(1.00, 0.00, -0.00, -1.00, 938.1, 320.0)">t</text><text xml:space="preserve" font-family="Lora-Regular" font-size="24.0" fill="#000000" transform="matrix(1.00, 0.00, -0.00, -1.00, 947.4, 320.0)">o</text><text xml:space="preserve" font-family="Lora-Regular" font-size="24.0" fill="#000000" transform="matrix(1.00, 0.00, -0.00, -1.00, 961.5, 320.0)"> </text><text xml:space="preserve" font-family="Lora-Regular" font-size="24.0" fill="#000000" transform="matrix(1.00, 0.00, -0.00, -1.00, 39.0, 291.0)">h</text><text xml:space="preserve" font-family="Lora-Regular" font-size="24.0" fill="#000000" transform="matrix(1.00, 0.00, -0.00, -1.00, 53.4, 291.0)">e</text><text xml:space="preserve" font-family="Lora-Regular" font-size="24.0" fill="#000000" transform="matrix(1.00, 0.00, -0.00, -1.00, 66.4, 291.0)">r</text><text xml:space="preserve" font-family="Lora-Regular" font-size="24.0" fill="#000000" transform="matrix(1.00, 0.00, -0.00, -1.00, 76.8, 291.0)"> </text><text xml:space="preserve" font-family="Lora-Regular" font-size="24.0" fill="#000000" transform="matrix(1.00, 0.00, -0.00, -1.00, 83.1, 291.0)">M</text><text xml:space="preserve" font-family="Lora-Regular" font-size="24.0" fill="#000000" transform="matrix(1.00, 0.00, -0.00, -1.00, 105.0, 291.0)">e</text><text xml:space="preserve" font-family="Lora-Regular" font-size="24.0" fill="#000000" transform="matrix(1.00, 0.00, -0.00, -1.00, 117.9, 291.0)">d</text><text xml:space="preserve" font-family="Lora-Regular" font-size="24.0" fill="#000000" transform="matrix(1.00, 0.00, -0.00, -1.00, 132.2, 291.0)">i</text><text xml:space="preserve" font-family="Lora-Regular" font-size="24.0" fill="#000000" transform="matrix(1.00, 0.00, -0.00, -1.00, 138.9, 291.0)">u</text><text xml:space="preserve" font-family="Lora-Regular" font-size="24.0" fill="#000000" transform="matrix(1.00, 0.00, -0.00, -1.00, 153.3, 291.0)">m</text><text xml:space="preserve" font-family="Lora-Regular" font-size="24.0" fill="#000000" transform="matrix(1.00, 0.00, -0.00, -1.00, 174.7, 291.0)"> </text><text xml:space="preserve" font-family="Lora-Regular" font-size="24.0" fill="#000000" transform="matrix(1.00, 0.00, -0.00, -1.00, 181.1, 291.0)">b</text><text xml:space="preserve" font-family="Lora-Regular" font-size="24.0" fill="#000000" transform="matrix(1.00, 0.00, -0.00, -1.00, 195.0, 291.0)">l</text><text xml:space="preserve" font-family="Lora-Regular" font-size="24.0" fill="#000000" transform="matrix(1.00, 0.00, -0.00, -1.00, 201.6, 291.0)">o</text><text xml:space="preserve" font-family="Lora-Regular" font-size="24.0" fill="#000000" transform="matrix(1.00, 0.00, -0.00, -1.00, 215.6, 291.0)">g</text><text xml:space="preserve" font-family="Lora-Regular" font-size="24.0" fill="#000000" transform="matrix(1.00, 0.00, -0.00, -1.00, 228.9, 291.0)">.</text><image xlink:href="../../F18E1ACF-D7AF-48AA-BAE0-E2673DC94CA9/assets/7FEB93579C31987C45DA1F2A667FDC16.png" width="70.00" height="65.00" transform="matrix(0.99, 0.00, -0.00, -1.02, 930.0, 76.0)"></image></g></svg>